<svg width="16" height="16" viewBox="0 0 16 16" fill="none" xmlns="http://www.w3.org/2000/svg">
<g clip-path="url(#clip0_4073_13444)">
<path d="M5.33341 2.66666H4.00008C3.2637 2.66666 2.66675 3.26361 2.66675 3.99999V4.66666C2.66675 5.40304 3.2637 5.99999 4.00008 5.99999H5.33341C6.06979 5.99999 6.66675 5.40304 6.66675 4.66666V3.99999C6.66675 3.26361 6.06979 2.66666 5.33341 2.66666Z" stroke="#5E6777" stroke-width="1.2" stroke-linecap="round" stroke-linejoin="round"/>
<path d="M5.33341 8.66666H4.00008C3.2637 8.66666 2.66675 9.26361 2.66675 9.99999V12C2.66675 12.7364 3.2637 13.3333 4.00008 13.3333H5.33341C6.06979 13.3333 6.66675 12.7364 6.66675 12V9.99999C6.66675 9.26361 6.06979 8.66666 5.33341 8.66666Z" stroke="#5E6777" stroke-width="1.2" stroke-linecap="round" stroke-linejoin="round"/>
<path d="M11.9999 2.66666H10.6666C9.93021 2.66666 9.33325 3.26361 9.33325 3.99999V5.99999C9.33325 6.73637 9.93021 7.33332 10.6666 7.33332H11.9999C12.7363 7.33332 13.3333 6.73637 13.3333 5.99999V3.99999C13.3333 3.26361 12.7363 2.66666 11.9999 2.66666Z" stroke="#5E6777" stroke-width="1.2" stroke-linecap="round" stroke-linejoin="round"/>
<path d="M11.9999 10H10.6666C9.93021 10 9.33325 10.597 9.33325 11.3333V12C9.33325 12.7364 9.93021 13.3333 10.6666 13.3333H11.9999C12.7363 13.3333 13.3333 12.7364 13.3333 12V11.3333C13.3333 10.597 12.7363 10 11.9999 10Z" stroke="#5E6777" stroke-width="1.2" stroke-linecap="round" stroke-linejoin="round"/>
</g>
<defs>
<clipPath id="clip0_4073_13444">
<rect width="16" height="16" fill="white"/>
</clipPath>
</defs>
</svg>
