<svg width="1514" height="1154" viewBox="0 0 1514 1154" fill="none" xmlns="http://www.w3.org/2000/svg">
<g opacity="0.5">
<path d="M477.931 1000.85L477.931 1000.85C444.658 1033.33 407.433 1050.31 367.551 1055C332.255 1060.14 297.547 1062.55 262.373 1064.1M477.931 1000.85L262.329 1063.6M477.931 1000.85C501.226 978.048 520.879 950.681 539.09 920.787C556.967 891.902 572.492 861.089 587.987 830.337C592.492 821.396 596.995 812.46 601.552 803.578L601.552 803.577M477.931 1000.85L601.552 803.577M262.373 1064.1C262.373 1064.1 262.372 1064.1 262.371 1064.1L262.329 1063.6M262.373 1064.1C262.374 1064.1 262.374 1064.1 262.374 1064.1L262.329 1063.6M262.373 1064.1C254.498 1064.5 246.618 1064.89 238.735 1065.28C166.127 1068.87 93.2153 1072.48 20.5182 1082.61M262.329 1063.6C254.453 1063.99 246.573 1064.38 238.689 1064.77C166.084 1068.37 93.1505 1071.98 20.4308 1082.11M20.5182 1082.61C20.5192 1082.61 20.5203 1082.61 20.5214 1082.61L20.4308 1082.11M20.5182 1082.61C-53.3266 1093.42 -127.421 1108.49 -200.672 1128.82M20.5182 1082.61L20.4308 1082.11M20.4308 1082.11L-200.672 1128.82M-200.672 1128.82L-200.666 1128.79L-200.659 1128.76L-200.652 1128.73L-200.645 1128.69L-200.638 1128.66L-200.631 1128.63L-200.625 1128.6L-200.618 1128.57L-200.611 1128.53L-201.094 1128.41L-200.946 1128.89C-200.854 1128.87 -200.763 1128.84 -200.672 1128.82ZM601.552 803.577C602.598 801.526 603.644 799.476 604.689 797.427C629.603 748.585 654.274 700.218 675.909 649.05C682.875 632.822 689.77 616.578 696.665 600.335C710.454 567.853 724.241 535.375 738.582 503.041C758.594 458.483 780.172 415.806 806.758 377.348C853.228 310.244 909.06 276.005 976.16 277.869C1006.81 278.747 1036.3 285.087 1065.38 293.484C1091.61 301.489 1117.72 310.006 1143.84 318.526L1143.84 318.526C1169.96 327.046 1196.09 335.566 1222.32 343.575C1306.25 369.341 1391.18 387.422 1478.71 390.281L1478.73 390.281M601.552 803.577L1478.73 390.281M1478.73 390.281C1480.5 390.29 1482.29 390.303 1484.09 390.316C1493.59 390.386 1503.43 390.458 1512.93 389.934M1478.73 390.281L1512.93 389.934M1512.93 389.934L1512.99 389.948L1513.12 389.983L1513.25 390.018L1513.38 390.052L1513.51 390.087L1513.65 390.122L1513.78 390.156L1513.91 390.191L1514.04 390.226L1514.17 390.26L1514.3 390.295L1514.43 390.329L1514.56 390.364L1514.7 390.399L1514.83 390.433L1514.96 390.468L1515.09 390.503L1515.22 390.537L1515.35 390.572L1515.48 390.607L1515.61 390.641L1515.75 390.676L1515.88 390.711L1516.01 390.745L1516.14 390.78L1516.27 390.815L1516.4 390.849L1516.53 390.884L1516.66 390.918L1516.8 390.953L1516.93 390.988L1517.06 391.022L1517.19 391.057L1517.32 391.092L1517.45 391.126L1517.58 391.161L1517.71 391.196L1517.85 391.23L1517.98 391.265L1518.11 391.3L1518.24 391.334L1518.37 391.369L1518.5 391.404L1518.63 391.438L1518.76 391.473L1518.9 391.507L1519.03 391.542L1519.16 391.577L1519.29 391.611L1519.42 391.646L1519.55 391.681L1519.68 391.715L1519.82 391.75L1519.95 391.785L1520.08 391.819L1520.21 391.854L1520.34 391.889L1520.47 391.923L1520.6 391.958L1520.73 391.993L1520.87 392.027L1521 392.062L1521.13 392.096L1521.26 392.131L1521.39 392.166L1521.52 392.2L1521.65 392.235L1521.78 392.27L1521.92 392.304L1522.05 392.339L1522.18 392.374L1522.31 392.408L1522.44 392.443L1522.57 392.478L1522.7 392.512L1522.83 392.547L1522.97 392.582L1523.1 392.616L1523.23 392.651L1523.36 392.685L1523.49 392.72L1523.62 392.755L1523.75 392.789L1523.88 392.824L1524.02 392.859L1524.15 392.893L1524.28 392.928L1524.41 392.963L1524.54 392.997L1524.67 393.032L1524.8 393.067L1524.93 393.101L1525.07 393.136L1525.2 393.171L1525.33 393.205L1525.46 393.24L1525.59 393.274L1525.72 393.309L1525.85 393.344L1525.98 393.378L1526.12 393.413L1526.25 393.448L1526.38 393.482L1526.51 393.517L1526.64 393.552L1526.77 393.586L1526.9 393.621L1527.03 393.656L1527.17 393.69L1527.3 393.725L1527.43 393.76L1527.56 393.794L1527.69 393.829L1527.82 393.863L1527.95 393.898L1528.08 393.933L1528.22 393.967L1528.35 394.002L1528.48 394.037L1528.61 394.071L1528.74 394.106L1528.87 394.141L1529 394.175L1529.14 394.21L1529.27 394.245L1529.4 394.279L1529.53 394.314L1529.66 394.348L1529.79 394.383L1529.92 394.418L1530.05 394.452L1530.19 394.487L1530.32 394.522L1530.45 394.556L1530.58 394.591L1530.71 394.626L1530.84 394.66L1530.97 394.695L1531.1 394.73L1531.24 394.764L1531.37 394.799L1531.5 394.834L1531.63 394.868L1531.76 394.903L1531.89 394.937L1532.02 394.972L1532.15 395.007L1532.29 395.041L1532.42 395.076L1532.55 395.111L1532.68 395.145L1532.81 395.18L1532.94 395.215L1533.07 395.249L1533.2 395.284L1533.34 395.319L1533.47 395.353L1533.6 395.388L1533.73 395.423L1533.86 395.457L1533.99 395.492L1534.12 395.526L1534.25 395.561L1534.39 395.596L1534.52 395.63L1534.65 395.665L1534.78 395.7L1534.91 395.734L1535.04 395.769L1535.17 395.804L1535.3 395.838L1535.44 395.873L1535.57 395.908L1535.7 395.942L1535.83 395.977L1535.96 396.012L1536.09 396.046L1536.22 396.081L1536.35 396.115L1536.49 396.15L1536.62 396.185L1536.75 396.219L1536.88 396.254L1537.01 396.289L1537.14 396.323L1537.27 396.358L1537.41 396.393L1537.54 396.427L1537.67 396.462L1537.8 396.497L1537.93 396.531L1538.06 396.566L1538.19 396.601L1538.32 396.635L1538.46 396.67L1538.59 396.704L1538.72 396.739L1538.85 396.774L1538.98 396.808L1539.11 396.843L1539.24 396.878L1539.37 396.912L1539.51 396.947L1539.64 396.982L1539.77 397.016L1539.9 397.051L1540.03 397.086L1540.16 397.12L1540.29 397.155L1540.42 397.19L1540.56 397.224L1540.69 397.259L1540.82 397.293L1540.95 397.328L1541.08 397.363L1541.21 397.397L1541.34 397.432L1541.47 397.467L1541.61 397.501L1541.74 397.536L1541.87 397.571L1542 397.605L1542.13 397.64L1542.26 397.675L1542.39 397.709L1542.52 397.744L1542.66 397.778L1542.79 397.813L1542.92 397.848L1543.05 397.882L1543.18 397.917L1543.31 397.952L1543.44 397.986L1543.57 398.021L1543.71 398.056L1543.84 398.09L1543.97 398.125L1544.1 398.16L1544.23 398.194L1544.36 398.229L1544.49 398.264L1544.62 398.298L1544.76 398.333L1544.89 398.367L1545.02 398.402L1545.15 398.437L1545.28 398.471L1545.41 398.506L1545.54 398.541L1545.67 398.575L1545.81 398.61L1545.94 398.645L1546.07 398.679L1546.2 398.714L1546.33 398.749L1546.46 398.783L1546.59 398.818L1546.73 398.853L1546.86 398.887L1546.99 398.922L1547.12 398.956L1547.25 398.991L1547.38 399.026L1547.51 399.06L1547.64 399.095L1547.78 399.13L1547.91 399.164L1548.04 399.199L1548.17 399.234L1548.3 399.268L1548.43 399.303L1548.56 399.338L1548.69 399.372L1548.83 399.407L1548.96 399.442L1549.09 399.476L1549.22 399.511L1549.35 399.545L1549.48 399.58L1549.61 399.615L1549.74 399.649L1549.88 399.684L1550.01 399.719L1550.14 399.753L1550.27 399.788L1550.4 399.823L1550.53 399.857L1550.66 399.892L1550.79 399.927L1550.93 399.961L1551.06 399.996L1551.19 400.03L1551.32 400.065L1551.45 400.1L1551.58 400.134L1551.71 400.169L1551.84 400.204L1551.98 400.238L1552.11 400.273L1552.24 400.308L1552.37 400.342L1552.5 400.377L1552.63 400.412L1552.76 400.446L1552.89 400.481L1553.03 400.516L1553.16 400.55L1553.29 400.585L1553.42 400.62L1553.55 400.654L1553.68 400.689L1553.81 400.723L1553.94 400.758L1554.08 400.793L1554.21 400.827L1554.34 400.862L1554.47 400.897L1554.6 400.931L1554.73 400.966L1554.86 401.001L1555 401.035L1555.13 401.07L1555.26 401.105L1555.39 401.139L1555.52 401.174L1555.65 401.208L1555.78 401.243L1555.91 401.278L1556.05 401.312L1556.18 401.347L1556.31 401.382L1556.44 401.416L1556.57 401.451L1556.7 401.486L1556.83 401.52L1556.96 401.555L1557.1 401.59L1557.23 401.624L1557.36 401.659L1557.49 401.694L1557.62 401.728L1557.75 401.763L1557.88 401.797L1558.01 401.832L1558.15 401.867L1558.28 401.901L1558.41 401.936L1558.54 401.971L1558.67 402.005L1558.8 402.04L1558.93 402.075L1559.06 402.109L1559.2 402.144L1559.33 402.179L1559.46 402.213L1559.59 402.248L1559.72 402.283L1559.85 402.317L1559.98 402.352L1560.11 402.386L1560.25 402.421L1560.38 402.456L1560.51 402.49L1560.64 402.525L1560.77 402.56L1560.9 402.594L1561.03 402.629L1561.16 402.664L1561.3 402.698L1561.43 402.733L1561.56 402.768L1561.69 402.802L1561.82 402.837L1561.95 402.872L1562.08 402.906L1562.21 402.941L1562.35 402.975L1562.48 403.01L1562.61 403.045L1562.74 403.079L1562.87 403.114L1563 403.149L1563.13 403.183L1563.27 403.218L1563.4 403.253L1563.53 403.287L1563.66 403.322L1563.79 403.357L1563.92 403.391L1564.05 403.426L1564.18 403.46L1564.32 403.495L1564.45 403.53L1564.58 403.564L1564.71 403.599L1564.84 403.634L1564.97 403.668L1565.1 403.703L1565.23 403.738L1565.37 403.772L1565.5 403.807L1565.63 403.842L1565.76 403.876L1565.89 403.911L1566.02 403.946L1566.15 403.98L1566.28 404.015L1566.42 404.049L1566.55 404.084L1566.68 404.119L1566.81 404.153L1566.94 404.188L1567.07 404.223L1567.2 404.257L1567.33 404.292L1567.47 404.327L1567.6 404.361L1567.73 404.396L1567.86 404.431L1567.99 404.465L1568.12 404.5L1568.25 404.535L1568.38 404.569L1568.52 404.604L1568.65 404.638L1568.78 404.673L1568.91 404.708L1569.04 404.742L1569.17 404.777L1569.3 404.812L1569.43 404.846L1569.57 404.881L1569.7 404.916L1569.83 404.95L1569.96 404.985L1570.09 405.02L1570.22 405.054L1570.35 405.089L1570.48 405.124L1570.62 405.158L1570.75 405.193L1570.88 405.227L1571.01 405.262L1571.14 405.297L1571.27 405.331L1571.4 405.366L1571.53 405.401L1571.67 405.435L1571.8 405.47L1571.93 405.505L1572.06 405.539L1572.19 405.574L1572.32 405.609L1572.45 405.643L1572.59 405.678L1572.72 405.713L1572.85 405.747L1572.98 405.782L1573.11 405.816L1573.24 405.851L1573.37 405.886L1573.5 405.92L1573.64 405.955L1573.77 405.99L1573.9 406.024L1574.03 406.059L1574.16 406.094L1574.29 406.128L1574.42 406.163L1574.55 406.198L1574.69 406.232L1574.82 406.267L1574.95 406.302L1575.08 406.336L1575.21 406.371L1575.34 406.405L1575.47 406.44L1575.6 406.475L1575.74 406.509L1575.87 406.544L1576 406.579L1576.13 406.613L1576.26 406.648L1576.39 406.683L1576.52 406.717L1576.65 406.752L1576.79 406.787L1576.92 406.821L1577.05 406.856L1577.18 406.891L1577.31 406.925L1577.44 406.96L1577.5 406.975C1576.39 407.11 1575.29 407.246 1574.2 407.382C1566.91 408.286 1559.89 409.157 1552.57 409.501L1552.57 409.501C1465.41 414.657 1379.59 404.283 1295.66 385.018C1259.81 376.52 1224.51 366.883 1189.11 357.219C1171.37 352.376 1153.61 347.526 1135.74 342.809C1132.17 341.868 1128.61 340.921 1125.04 339.975C1089.42 330.513 1053.75 321.039 1016.88 317.224C985.31 313.958 953.939 315.815 923.008 327.939C882.034 343.928 847.815 374.72 817.626 414.484L817.624 414.486C790.034 451.318 767.473 492.361 746.971 536.098L746.969 536.102C736.659 558.62 726.753 581.244 716.907 603.732C716.181 605.389 715.456 607.045 714.731 608.701C704.166 632.825 693.64 656.772 682.72 680.254C662.033 723.91 640.895 767.146 619.719 810.459C607.877 834.679 596.025 858.924 584.232 883.279C565.824 920.313 546.47 955.636 523.827 987.918L1512.93 389.934ZM-204.739 1145.51L-204.622 1144.95C-204.442 1144.91 -204.263 1144.87 -204.083 1144.82L-204.084 1144.83L-204.091 1144.86L-204.098 1144.89L-204.105 1144.92L-204.112 1144.96L-204.119 1144.99L-204.125 1145.02L-204.132 1145.05L-204.139 1145.09L-204.146 1145.12L-204.153 1145.15L-204.16 1145.18L-204.167 1145.22L-204.174 1145.25L-204.18 1145.28L-204.187 1145.31L-204.194 1145.34L-204.201 1145.38C-204.38 1145.42 -204.56 1145.46 -204.739 1145.51Z" stroke="#437ADB"/>
<path d="M628.04 834.279C622.253 846.282 616.525 858.299 610.805 870.299C597.894 897.386 585.028 924.378 571.634 950.884C559.102 975.754 544.227 999.282 528.399 1021.11M628.04 834.279L-203.92 1160.17C-97.7035 1127.52 9.33063 1109.53 116.852 1104.67C185.946 1101.24 253.728 1103.95 322.133 1106.84C351.449 1108.07 381.057 1107.94 410.586 1102M628.04 834.279C655.329 777.181 682.619 720.082 709.762 663.667L628.04 834.279ZM528.399 1021.11C495.683 1066.67 455.887 1093.01 410.586 1102M528.399 1021.11L528.801 1021.43C528.801 1021.43 528.802 1021.42 528.802 1021.42M528.399 1021.11L528.802 1021.42M410.586 1102L410.701 1102.5M410.586 1102L410.702 1102.5C410.701 1102.5 410.701 1102.5 410.701 1102.5M410.701 1102.5C381.115 1108.45 351.462 1108.58 322.134 1107.34C253.727 1104.46 185.966 1101.74 116.897 1105.18L116.895 1105.18C9.41308 1110.03 -97.5814 1128.02 -203.759 1160.66L-203.769 1160.66L-203.78 1160.66C-204.531 1160.86 -205.238 1160.86 -205.886 1160.87L-205.906 1160.87C-206.474 1160.88 -206.996 1160.88 -207.53 1160.99C-207.582 1161.2 -207.639 1161.42 -207.691 1161.61C-207.737 1161.79 -207.779 1161.95 -207.811 1162.08C-207.908 1162.49 -207.943 1162.77 -207.908 1163C-207.878 1163.18 -207.794 1163.35 -207.552 1163.54C-207.286 1163.74 -206.834 1163.95 -206.081 1164.14L-206.037 1164.16L-205.993 1164.17L-205.949 1164.18L-205.905 1164.19L-205.862 1164.2L-205.818 1164.21L-205.774 1164.22L-205.73 1164.24L-205.686 1164.25L-205.642 1164.26L-205.598 1164.27L-205.555 1164.28L-205.511 1164.29L-205.467 1164.31L-205.423 1164.32L-205.379 1164.33L-205.335 1164.34L-205.291 1164.35L-205.247 1164.36L-205.203 1164.38L-205.159 1164.39L-205.115 1164.4L-205.071 1164.41L-205.026 1164.42L-204.982 1164.43L-204.938 1164.45L-204.894 1164.46L-204.85 1164.47L-204.806 1164.48L-204.762 1164.49L-204.717 1164.5L-204.673 1164.52L-204.629 1164.53L-204.585 1164.54L-204.541 1164.55L-204.496 1164.56L-204.452 1164.57L-204.408 1164.59L-204.364 1164.6L-204.319 1164.61L-204.275 1164.62L-204.231 1164.63L-204.186 1164.64L-204.142 1164.66L-204.098 1164.67L-204.053 1164.68L-204.009 1164.69L-203.964 1164.7L-203.92 1164.71L-203.876 1164.73L-203.831 1164.74L-203.787 1164.75L-203.742 1164.76L-203.698 1164.77L-203.653 1164.78L-203.609 1164.8L-203.564 1164.81L-203.52 1164.82L-203.475 1164.83L-203.431 1164.84L-203.386 1164.86L-203.341 1164.87L-203.297 1164.88L-203.252 1164.89L-203.208 1164.9L-203.163 1164.91L-203.118 1164.93L-203.074 1164.94L-203.029 1164.95L-202.984 1164.96L-202.94 1164.97L-202.895 1164.98L-202.85 1165L-202.806 1165.01L-202.761 1165.02L-202.716 1165.03L-202.671 1165.04L-202.627 1165.06L-202.582 1165.07L-202.537 1165.08L-202.492 1165.09L-202.447 1165.1L-202.402 1165.11L-202.358 1165.13L-202.313 1165.14L-202.268 1165.15L-202.223 1165.16L-202.178 1165.17L-202.133 1165.19L-202.088 1165.2L-202.043 1165.21L-201.998 1165.22L-201.953 1165.23L-201.908 1165.25L-201.863 1165.26L-201.818 1165.27L-201.773 1165.28L-201.728 1165.29L-201.683 1165.3L-201.638 1165.32L-201.593 1165.33L-201.548 1165.34L-201.503 1165.35L-201.458 1165.36L-201.413 1165.38L-201.368 1165.39L-201.323 1165.4L-201.278 1165.41L-201.233 1165.42L-201.187 1165.44L-201.142 1165.45L-201.097 1165.46L-201.052 1165.47L-201.007 1165.48L-200.962 1165.5L-200.916 1165.51L-200.871 1165.52L-200.826 1165.53L-200.781 1165.54L-200.735 1165.55L-200.69 1165.57L-200.645 1165.58L-200.599 1165.59L-200.554 1165.6L-200.509 1165.61L-200.464 1165.63L-200.418 1165.64L-200.373 1165.65L-200.327 1165.66L-200.282 1165.67L-200.237 1165.69L-200.191 1165.7L-200.146 1165.71L-200.101 1165.72L-200.055 1165.73L-200.01 1165.75L-199.964 1165.76L-199.919 1165.77L-199.873 1165.78L-199.828 1165.79L-199.782 1165.81L-199.737 1165.82L-199.691 1165.83L-199.646 1165.84L-199.6 1165.85L-199.555 1165.87L-199.509 1165.88L-199.464 1165.89L-199.418 1165.9L-199.373 1165.91L-199.327 1165.93L-199.281 1165.94L-199.236 1165.95L-199.19 1165.96L-199.145 1165.97L-199.099 1165.99L-199.053 1166L-199.008 1166.01L-198.962 1166.02L-198.916 1166.03L-198.871 1166.05L-198.825 1166.06L-198.779 1166.07L-198.733 1166.08L-198.688 1166.1L-198.642 1166.11L-198.596 1166.12L-198.551 1166.13L-198.505 1166.14L-198.459 1166.16L-198.413 1166.17L-198.367 1166.18L-198.322 1166.19L-198.276 1166.2L-198.23 1166.22L-198.184 1166.23L-198.138 1166.24L-198.093 1166.25L-198.047 1166.26L-198.001 1166.28L-197.955 1166.29L-197.909 1166.3L-197.863 1166.31L-197.817 1166.33L-197.771 1166.34L-197.725 1166.35L-197.679 1166.36L-197.634 1166.37L-197.588 1166.39L-197.542 1166.4L-197.496 1166.41L-197.45 1166.42L-197.404 1166.43L-197.358 1166.45L-197.312 1166.46L-197.266 1166.47L-197.22 1166.48L-197.174 1166.49L-197.128 1166.51L-197.082 1166.52L-197.036 1166.53L-196.989 1166.54L-196.943 1166.56L-196.897 1166.57L-196.851 1166.58L-196.805 1166.59L-196.759 1166.6L-196.713 1166.62L-196.667 1166.63L-196.621 1166.64L-196.575 1166.65L-196.528 1166.67L-196.482 1166.68L-196.436 1166.69L-196.39 1166.7L-196.344 1166.71L-196.298 1166.73L-196.251 1166.74L-196.205 1166.75L-196.159 1166.76L-196.113 1166.77L-196.066 1166.79L-196.02 1166.8L-195.974 1166.81L-195.928 1166.82L-195.881 1166.84L-195.835 1166.85L-195.789 1166.86L-195.743 1166.87L-195.696 1166.88L-195.65 1166.9L-195.604 1166.91L-195.557 1166.92L-195.511 1166.93L-195.465 1166.95L-195.418 1166.96L-195.372 1166.97L-195.326 1166.98L-195.279 1166.99L-195.233 1167.01L-195.187 1167.02L-195.14 1167.03L-195.094 1167.04L-195.047 1167.06L-195.001 1167.07L-194.955 1167.08L-194.908 1167.09L-194.862 1167.11L-194.815 1167.12L-194.769 1167.13L-194.722 1167.14L-194.676 1167.15L-194.63 1167.17L-194.583 1167.18L-194.537 1167.19L-194.49 1167.2L-194.444 1167.22L-194.397 1167.23L-194.351 1167.24L-194.304 1167.25L-194.258 1167.26L-194.211 1167.28L-194.164 1167.29L-194.118 1167.3L-194.071 1167.31L-194.025 1167.33L-193.978 1167.34L-193.932 1167.35L-193.885 1167.36L-193.839 1167.38L-193.792 1167.39L-193.745 1167.4L-193.699 1167.41L-193.652 1167.42L-193.605 1167.44L-193.559 1167.45L-193.512 1167.46L-193.466 1167.47L-193.419 1167.49L-193.372 1167.5L-193.326 1167.51L-193.279 1167.52L-193.232 1167.54L-193.186 1167.55L-193.139 1167.56L-193.092 1167.57L-193.046 1167.58L-192.999 1167.6L-192.952 1167.61L-192.905 1167.62L-192.859 1167.63L-192.812 1167.65L-192.765 1167.66L-192.719 1167.67L-192.672 1167.68L-192.625 1167.7L-192.578 1167.71L-192.532 1167.72L-192.485 1167.73L-192.438 1167.74L-192.391 1167.76L-192.344 1167.77L-192.298 1167.78L-192.251 1167.79L-192.204 1167.81L-192.157 1167.82L-192.11 1167.83L-192.064 1167.84L-192.017 1167.86L-191.97 1167.87L-191.923 1167.88L-191.876 1167.89L-191.829 1167.91L-191.783 1167.92L-191.736 1167.93L-191.689 1167.94L-191.642 1167.95L-191.595 1167.97L-191.548 1167.98L-191.501 1167.99L-191.454 1168L-191.407 1168.02L-191.361 1168.03L-191.314 1168.04L-191.267 1168.05L-191.22 1168.07L-191.173 1168.08L-191.126 1168.09L-191.079 1168.1L-191.032 1168.12L-190.985 1168.13L-190.938 1168.14L-190.891 1168.15L-190.844 1168.17L-190.797 1168.18L-190.75 1168.19L-190.703 1168.2L-190.656 1168.21L-190.609 1168.23L-190.562 1168.24L-190.515 1168.25L-190.468 1168.26L-190.421 1168.28L-190.374 1168.29L-190.327 1168.3L-190.28 1168.31L-190.233 1168.33L-190.186 1168.34L-190.139 1168.35L-190.092 1168.36L-190.045 1168.38L-189.998 1168.39L-189.951 1168.4L-189.904 1168.41L-189.857 1168.43L-189.81 1168.44L-189.763 1168.45L-189.716 1168.46L-189.669 1168.48L-189.622 1168.49L-189.575 1168.5L-189.528 1168.51L-189.48 1168.53L-189.433 1168.54L-189.386 1168.55L-189.339 1168.56L-189.292 1168.58L-189.245 1168.59L-189.198 1168.6L-189.151 1168.61L-189.104 1168.62L-189.056 1168.64L-189.009 1168.65L-188.962 1168.66L-188.915 1168.67L-188.868 1168.69L-188.821 1168.7L-188.774 1168.71L-188.726 1168.72L-188.679 1168.74L-188.632 1168.75L-188.585 1168.76L-188.538 1168.77L-188.491 1168.79L-188.443 1168.8L-188.396 1168.81L-188.349 1168.82L-188.302 1168.84L-188.255 1168.85L-188.207 1168.86L-188.16 1168.87L-188.113 1168.89L-188.066 1168.9L-188.019 1168.91L-187.971 1168.92L-187.924 1168.94L-187.877 1168.95L-187.83 1168.96L-187.783 1168.97L-187.735 1168.99L-187.688 1169L-187.641 1169.01L-187.594 1169.02L-187.546 1169.04L-187.499 1169.05L-187.452 1169.06L-187.405 1169.07L-187.357 1169.09L-187.31 1169.1L-187.263 1169.11L-187.216 1169.12L-187.168 1169.14L-187.121 1169.15L-187.074 1169.16L-187.027 1169.17L-186.979 1169.19L-186.932 1169.2L-186.885 1169.21L-186.837 1169.22L-186.79 1169.24L-186.743 1169.25L-186.696 1169.26L-186.648 1169.27L-186.601 1169.29L-186.554 1169.3L-186.506 1169.31L-186.459 1169.32L-186.412 1169.34L-186.365 1169.35L-186.317 1169.36L-186.27 1169.37L-186.223 1169.39L-186.175 1169.4L-186.128 1169.41L-186.081 1169.42L-186.033 1169.44L-185.986 1169.45L-185.939 1169.46L-185.891 1169.47L-185.844 1169.49L-185.797 1169.5L-185.749 1169.51L-185.702 1169.52L-185.655 1169.54L-185.607 1169.55L-185.56 1169.56L-185.513 1169.57L-185.465 1169.59L-185.418 1169.6L-185.371 1169.61L-185.323 1169.62L-185.276 1169.64L-185.229 1169.65L-185.181 1169.66L-185.134 1169.67L-185.087 1169.69L-185.039 1169.7L-184.992 1169.71L-184.944 1169.72L-184.897 1169.74L-184.85 1169.75L-184.802 1169.76L-184.755 1169.77L-184.708 1169.79L-184.66 1169.8L-184.613 1169.81L-184.565 1169.82L-184.518 1169.84L-184.471 1169.85L-184.423 1169.86L-184.376 1169.87L-184.329 1169.89L-184.281 1169.9L-184.234 1169.91L-184.186 1169.92L-184.139 1169.94L-184.092 1169.95L-184.044 1169.96L-183.997 1169.97L-183.95 1169.99L-183.902 1170L-183.855 1170.01L-183.807 1170.02L-183.76 1170.04L-183.713 1170.05L-183.665 1170.06L-183.618 1170.07L-183.57 1170.09L-183.523 1170.1L-183.476 1170.11L-183.428 1170.12L-183.381 1170.14L-183.333 1170.15L-183.286 1170.16L-183.239 1170.17L-183.191 1170.19L-183.144 1170.2L-183.096 1170.21L-183.049 1170.22L-183.002 1170.24L-182.954 1170.25L-182.907 1170.26L-182.859 1170.27L-182.812 1170.29L-182.765 1170.3L-182.717 1170.31L-182.67 1170.32L-182.645 1170.33C-181.164 1169.33 -179.629 1168.31 -177.505 1167.45L-177.484 1167.44L-177.462 1167.43C-51.8782 1130.47 73.839 1114.5 200.165 1120.38L200.168 1120.38C230.66 1121.99 261.23 1124.39 291.75 1126.78C312.624 1128.41 333.475 1130.05 354.262 1131.43L354.263 1131.43C380.149 1133.21 405.831 1132.77 431.901 1127.4C474.426 1118.46 510.871 1092.06 540.938 1049.51L540.939 1049.51C564.344 1016.72 582.596 980.389 600.531 942.499L600.543 942.474C628.557 881.965 656.572 821.454 685.209 761.106C710.233 708.468 735.258 655.825 760.76 604.031L760.761 604.03C782.655 559.934 807.233 518.696 837.316 482.519L837.318 482.516C870.764 442.895 908.386 411.561 951.848 396.234C983.242 384.965 1014.74 382.423 1046.73 383.633L1046.74 383.633C1084.2 385.709 1120.59 392.775 1156.94 399.834C1160.98 400.619 1165.02 401.404 1169.06 402.181L1169.06 402.182C1183.46 405.055 1197.88 407.983 1212.33 410.915C1254.2 419.415 1296.23 427.947 1338.16 435.254C1418.63 449.269 1499.29 456.115 1581.46 449.646C1582.45 449.552 1583.29 449.418 1584.14 449.282L1584.15 449.281C1584.9 449.16 1585.66 449.037 1586.53 448.943L1586.54 448.932L1586.55 448.887L1586.55 448.843L1586.56 448.799L1586.57 448.755L1586.58 448.711L1586.59 448.667L1586.6 448.623L1586.61 448.579L1586.62 448.535L1586.63 448.491L1586.64 448.447L1586.65 448.403L1586.66 448.358L1586.67 448.314L1586.68 448.27L1586.69 448.226L1586.7 448.182L1586.71 448.138L1586.71 448.094L1586.72 448.05L1586.73 448.006L1586.74 447.962L1586.75 447.918L1586.76 447.874L1586.77 447.829L1586.78 447.785L1586.79 447.741L1586.8 447.697L1586.81 447.653L1586.82 447.609L1586.83 447.565L1586.84 447.521L1586.85 447.477L1586.86 447.433L1586.86 447.389L1586.87 447.344L1586.88 447.3L1586.89 447.256L1586.9 447.212L1586.91 447.168L1586.92 447.124L1586.93 447.08L1586.94 447.036L1586.95 446.992L1586.96 446.948L1586.97 446.904L1586.98 446.86L1586.99 446.815L1587 446.771L1587.01 446.727L1587.02 446.683L1587.02 446.639L1587.03 446.595L1587.04 446.551L1587.05 446.507L1587.06 446.463L1587.07 446.419L1587.08 446.375L1587.09 446.33L1587.1 446.286L1587.11 446.242L1587.12 446.198L1587.13 446.154L1587.14 446.11L1587.15 446.066L1587.16 446.022L1587.17 445.978L1587.17 445.934L1587.18 445.89L1587.19 445.846L1587.2 445.801L1587.21 445.757L1587.22 445.713L1587.23 445.669L1587.24 445.625L1587.25 445.581L1587.26 445.537L1587.27 445.493L1587.28 445.449L1587.29 445.405L1587.3 445.361L1587.31 445.317L1587.32 445.272L1587.33 445.228L1587.33 445.184L1587.34 445.14L1587.35 445.096L1587.36 445.052L1587.37 445.008L1587.38 444.964L1587.39 444.92L1587.4 444.876L1587.41 444.832L1587.42 444.787L1587.43 444.743L1587.44 444.699L1587.45 444.655L1587.46 444.611L1587.47 444.567L1587.48 444.523L1587.49 444.479L1587.49 444.435L1587.5 444.391L1587.51 444.347L1587.52 444.303L1587.53 444.258L1587.54 444.214L1587.55 444.17L1587.56 444.126L1587.57 444.082L1587.58 444.038L1587.59 443.994L1587.6 443.95L1587.61 443.906L1587.62 443.862L1587.63 443.818L1587.64 443.773L1587.64 443.729L1587.65 443.685L1587.66 443.641L1587.67 443.597L1587.68 443.553L1587.69 443.509L1587.7 443.465L1587.71 443.421L1587.72 443.377L1587.73 443.333L1587.74 443.289L1587.75 443.244L1587.76 443.2L1587.77 443.156L1587.78 443.112L1587.79 443.068L1587.8 443.024L1587.8 442.98L1587.81 442.936L1587.82 442.892L1587.83 442.848L1587.84 442.804L1587.85 442.76L1587.86 442.715L1587.87 442.671L1587.88 442.627L1587.89 442.583L1587.9 442.539L1587.91 442.495L1587.92 442.451L1587.93 442.407L1587.94 442.363L1587.95 442.319L1587.95 442.275L1587.96 442.23L1587.97 442.186L1587.98 442.142L1587.99 442.098L1588 442.054L1588.01 442.01L1588.02 441.966L1588.03 441.922L1588.04 441.878L1588.05 441.834L1588.06 441.79L1588.07 441.746L1588.08 441.701L1588.09 441.657L1588.1 441.613L1588.11 441.569L1588.11 441.525L1588.12 441.481L1588.13 441.437L1588.14 441.393L1588.15 441.349L1588.16 441.305L1588.17 441.261L1588.18 441.216L1588.19 441.172L1588.2 441.128L1588.21 441.084L1588.22 441.04L1588.23 440.996L1588.24 440.952L1588.25 440.908L1588.26 440.864L1588.27 440.82L1588.27 440.776L1588.28 440.732L1588.29 440.687L1588.3 440.643L1588.31 440.599L1588.32 440.555L1588.33 440.511L1588.34 440.467L1588.35 440.423L1588.36 440.379L1588.37 440.335L1588.38 440.291L1588.39 440.247L1588.4 440.203L1588.41 440.158L1588.42 440.114L1588.42 440.07L1588.43 440.026L1588.44 439.982L1588.45 439.938L1588.46 439.894L1588.47 439.85L1588.48 439.806L1588.49 439.762L1588.5 439.718L1588.51 439.673L1588.52 439.629L1588.53 439.585L1588.54 439.541L1588.55 439.497L1588.56 439.453L1588.57 439.409L1588.58 439.365L1588.58 439.321L1588.59 439.277L1588.6 439.233L1588.61 439.189L1588.62 439.144L1588.63 439.1L1588.64 439.056L1588.65 439.012L1588.66 438.968L1588.67 438.924L1588.68 438.88L1588.69 438.836L1588.7 438.792L1588.71 438.748L1588.72 438.704L1588.73 438.659L1588.73 438.615L1588.74 438.571L1588.75 438.527L1588.76 438.483L1588.77 438.439L1588.78 438.395L1588.79 438.351L1588.8 438.307L1588.81 438.263L1588.82 438.219L1588.83 438.175L1588.84 438.13L1588.85 438.086L1588.86 438.042L1588.87 437.998L1588.88 437.954L1588.89 437.91L1588.89 437.866L1588.9 437.822L1588.91 437.778L1588.92 437.734L1588.93 437.69L1588.94 437.645L1588.95 437.601L1588.96 437.557L1588.97 437.513L1588.98 437.469L1588.99 437.425L1589 437.381L1589.01 437.337L1589.02 437.293L1589.03 437.249L1589.04 437.205L1589.05 437.161L1589.05 437.116L1589.06 437.072L1589.07 437.028L1589.08 436.984L1589.09 436.94L1589.1 436.896L1589.11 436.852L1589.12 436.808L1589.13 436.764L1589.14 436.72L1589.15 436.676L1589.16 436.632L1589.17 436.587L1589.18 436.543L1589.19 436.499L1589.2 436.455L1589.2 436.411L1589.21 436.367L1589.22 436.323L1589.23 436.279L1589.24 436.235L1589.25 436.191L1589.26 436.147L1589.27 436.102L1589.28 436.058L1589.29 436.014L1589.3 435.97L1589.31 435.926L1589.32 435.882L1589.33 435.838L1589.34 435.794L1589.35 435.75L1589.36 435.706L1589.36 435.662L1589.37 435.618L1589.38 435.573L1589.39 435.529L1589.4 435.485L1589.41 435.441L1589.42 435.397L1589.43 435.353L1589.44 435.309L1589.45 435.265L1589.46 435.221L1589.47 435.177L1589.48 435.133L1589.49 435.088L1589.5 435.044L1589.51 435L1589.51 434.956L1589.52 434.912L1589.53 434.868L1589.54 434.824L1589.55 434.78L1589.56 434.736L1589.57 434.692L1589.58 434.648L1589.59 434.604L1589.6 434.559L1589.61 434.515L1589.62 434.471L1589.63 434.427L1589.64 434.383L1589.65 434.339L1589.66 434.295L1589.67 434.251L1589.67 434.207L1589.68 434.163L1589.69 434.119L1589.7 434.075L1589.71 434.03L1589.72 433.986L1589.73 433.942L1589.74 433.898L1589.75 433.854L1589.76 433.81L1589.77 433.766L1589.78 433.722L1589.79 433.678L1589.8 433.634L1589.81 433.59L1589.82 433.545L1589.82 433.501L1589.83 433.457L1589.84 433.413L1589.85 433.369L1589.86 433.325L1589.87 433.281L1589.88 433.237L1589.89 433.193L1589.9 433.149L1589.91 433.105L1589.92 433.061L1589.93 433.016L1589.94 432.972L1589.95 432.928L1589.96 432.884L1589.97 432.84L1589.98 432.796L1589.98 432.752L1589.99 432.708L1590 432.664L1590.01 432.62L1590.02 432.576L1590.03 432.531L1590.04 432.487L1590.05 432.443L1590.06 432.399L1590.07 432.355L1590.08 432.311L1590.09 432.267L1590.1 432.223L1590.11 432.179L1590.12 432.135L1590.13 432.091L1590.14 432.047L1590.14 432.002L1590.15 431.958L1590.16 431.914L1590.17 431.87L1590.18 431.826L1590.19 431.782L1590.2 431.738L1590.21 431.694L1590.22 431.65L1590.23 431.606L1590.24 431.562L1590.25 431.518L1590.26 431.473L1590.27 431.429L1590.28 431.385L1590.29 431.341L1590.29 431.297L1590.3 431.253L1590.31 431.209L1590.32 431.165L1590.33 431.121L1590.34 431.077L1590.35 431.033L1590.36 430.988L1590.37 430.944L1590.38 430.9L1590.39 430.856L1590.4 430.812L1590.41 430.768L1590.42 430.724L1590.43 430.68L1590.44 430.636L1590.45 430.592L1590.45 430.548L1590.46 430.504L1590.47 430.459L1590.48 430.415L1590.49 430.371L1590.5 430.327L1590.51 430.283L1590.52 430.239L1590.53 430.195L1590.54 430.151L1590.55 430.107L1590.56 430.063L1590.57 430.019L1590.58 429.974L1590.59 429.93L1590.6 429.886L1590.6 429.842L1590.61 429.798L1590.62 429.754L1590.63 429.71L1590.64 429.666L1590.65 429.622L1590.66 429.578L1590.67 429.534L1590.68 429.49L1590.69 429.445L1590.7 429.401L1590.71 429.357L1590.72 429.313L1590.73 429.269L1590.74 429.225L1590.75 429.181L1590.76 429.137L1590.76 429.093L1590.77 429.049L1590.78 429.005L1590.79 428.961L1590.8 428.916L1590.81 428.872L1590.82 428.828L1590.83 428.784L1590.84 428.74L1590.85 428.696L1590.86 428.652L1590.87 428.608L1590.88 428.564L1590.89 428.52L1590.9 428.476L1590.91 428.431L1590.92 428.387L1590.92 428.343L1590.93 428.299L1590.94 428.255L1590.95 428.211L1590.96 428.167L1590.97 428.123L1590.98 428.079L1590.99 428.035L1591 427.991L1591.01 427.947L1591.02 427.902L1591.03 427.858L1591.04 427.814L1591.05 427.77L1591.06 427.726L1591.07 427.682L1591.07 427.638L1591.08 427.594L1591.09 427.55L1591.1 427.506L1591.11 427.462L1591.12 427.428C1533.28 434.408 1476.09 432.258 1419.02 426.553L1419.02 426.553C1341.83 418.467 1265.92 401.322 1190.94 382.98L1191.04 382.488L1190.94 382.979C1149.73 372.824 1108.38 363.354 1066.73 355.251L1066.73 355.251C1045.33 351.044 1023.19 350.247 1001.49 350.299C938.426 350.946 883.455 381.111 835.15 438.349C808.486 471.012 784.97 507.394 765.222 547.659C755.872 566.861 746.796 586.316 737.718 605.776L737.716 605.78C728.64 625.237 719.561 644.697 710.208 663.906C683.065 720.32 655.776 777.418 628.486 834.516L628.486 834.518C622.701 846.516 616.973 858.532 611.254 870.53C598.342 897.619 585.472 924.62 572.075 951.131C559.53 976.027 544.641 999.577 528.802 1021.42M410.701 1102.5C456.134 1093.48 496.027 1067.06 528.802 1021.42" stroke="#437ADB"/>
<path d="M-155.337 1177.54C-155.278 1177.51 -155.22 1177.49 -155.161 1177.46C-154.97 1177.38 -154.778 1177.3 -154.588 1177.22C-153.793 1176.9 -152.956 1176.61 -152.018 1176.52L-151.977 1176.52L-151.938 1176.51C-95.4299 1161.09 -38.5529 1150.11 18.6932 1143.55L18.6951 1143.55C122.495 1131.23 225.004 1137.34 327.026 1151.99L327.027 1151.99L327.048 1151.99C356.388 1156.12 385.781 1160.27 415.726 1158.76C439.644 1157.83 463.828 1152.63 486.836 1140.58L486.841 1140.58C516.639 1124.52 540.677 1098.27 561.352 1066.12L561.354 1066.11C582.168 1033.28 599.679 997.414 615.464 960.383L615.465 960.38C660.965 851.752 712.727 747.665 764.497 643.561C787.434 597.611 812.556 553.712 844.107 516.576L844.111 516.572C875.049 479.263 909.626 449.446 948.683 432.362L948.686 432.36C979.126 418.771 1009.69 413.857 1041.41 412.85C1086.3 411.709 1130.69 419.093 1175.13 426.488C1195.53 429.993 1215.91 433.57 1236.27 437.144C1278.57 444.569 1320.78 451.979 1362.84 458.69L1362.84 458.69C1416.93 467.183 1471.89 471.571 1527.11 471.688L1527.11 471.687C1536.34 471.593 1545.6 471.327 1554.86 471.062L1554.86 471.062C1563.91 470.802 1572.94 470.543 1581.95 470.443L1581.95 470.447L1581.94 470.487L1581.93 470.527L1581.92 470.568L1581.91 470.608L1581.9 470.648L1581.9 470.689L1581.89 470.729L1581.88 470.77L1581.87 470.81L1581.86 470.851L1581.85 470.891L1581.84 470.931L1581.84 470.972L1581.83 471.012L1581.82 471.053L1581.81 471.094L1581.8 471.134L1581.79 471.175L1581.78 471.215L1581.78 471.256L1581.77 471.296L1581.76 471.337L1581.75 471.378L1581.74 471.418L1581.73 471.459L1581.72 471.5L1581.71 471.54L1581.71 471.581L1581.7 471.622L1581.69 471.663L1581.68 471.703L1581.67 471.744L1581.66 471.785L1581.65 471.826L1581.65 471.866L1581.64 471.907L1581.63 471.948L1581.62 471.989L1581.61 472.03L1581.6 472.071L1581.59 472.111L1581.58 472.152L1581.58 472.193L1581.57 472.234L1581.56 472.275L1581.55 472.316L1581.54 472.357L1581.53 472.398L1581.52 472.439L1581.51 472.48L1581.51 472.521L1581.5 472.562L1581.49 472.603L1581.48 472.644L1581.47 472.685L1581.46 472.726L1581.45 472.767L1581.44 472.808L1581.44 472.849L1581.43 472.89L1581.42 472.931L1581.41 472.972L1581.4 473.013L1581.39 473.055L1581.38 473.096L1581.37 473.137L1581.37 473.178L1581.36 473.219L1581.35 473.26L1581.34 473.302L1581.33 473.343L1581.32 473.384L1581.31 473.425L1581.3 473.466L1581.3 473.508L1581.29 473.549L1581.28 473.59L1581.27 473.631L1581.26 473.673L1581.25 473.714L1581.24 473.755L1581.23 473.797L1581.23 473.838L1581.22 473.879L1581.21 473.921L1581.2 473.962L1581.19 474.003L1581.18 474.045L1581.17 474.086L1581.16 474.128L1581.15 474.169L1581.15 474.21L1581.14 474.252L1581.13 474.293L1581.12 474.335L1581.11 474.376L1581.1 474.417L1581.09 474.459L1581.08 474.5L1581.08 474.542L1581.07 474.583L1581.06 474.625L1581.05 474.666L1581.04 474.708L1581.03 474.749L1581.02 474.791L1581.01 474.832L1581 474.874L1581 474.916L1580.99 474.957L1580.98 474.999L1580.97 475.04L1580.96 475.082L1580.95 475.123L1580.94 475.165L1580.93 475.207L1580.92 475.248L1580.92 475.29L1580.91 475.332L1580.9 475.373L1580.89 475.415L1580.88 475.456L1580.87 475.498L1580.86 475.54L1580.85 475.581L1580.84 475.623L1580.84 475.665L1580.83 475.707L1580.82 475.748L1580.81 475.79L1580.8 475.832L1580.79 475.873L1580.78 475.915L1580.77 475.957L1580.76 475.999L1580.76 476.04L1580.75 476.082L1580.74 476.124L1580.73 476.166L1580.72 476.207L1580.71 476.249L1580.7 476.291L1580.69 476.333L1580.68 476.375L1580.68 476.416L1580.67 476.458L1580.66 476.5L1580.65 476.542L1580.64 476.584L1580.63 476.625L1580.62 476.667L1580.61 476.709L1580.6 476.751L1580.6 476.793L1580.59 476.835L1580.58 476.877L1580.57 476.918L1580.56 476.96L1580.55 477.002L1580.54 477.044L1580.53 477.086L1580.52 477.128L1580.51 477.17L1580.51 477.212L1580.5 477.254L1580.49 477.295L1580.48 477.337L1580.47 477.379L1580.46 477.421L1580.45 477.463L1580.44 477.505L1580.43 477.547L1580.43 477.589L1580.42 477.631L1580.41 477.673L1580.4 477.715L1580.39 477.757L1580.38 477.799L1580.37 477.841L1580.36 477.883L1580.35 477.925L1580.35 477.967L1580.34 478.009L1580.33 478.051L1580.32 478.093L1580.31 478.135L1580.3 478.177L1580.29 478.219L1580.28 478.261L1580.27 478.303L1580.26 478.345L1580.26 478.387L1580.25 478.429L1580.24 478.471L1580.23 478.513L1580.22 478.555L1580.21 478.597L1580.2 478.639L1580.19 478.681L1580.18 478.723L1580.17 478.765L1580.17 478.807L1580.16 478.849L1580.15 478.891L1580.14 478.933L1580.13 478.975L1580.12 479.017L1580.11 479.059L1580.1 479.101L1580.09 479.143L1580.09 479.185L1580.08 479.227L1580.07 479.269L1580.06 479.311L1580.05 479.354L1580.04 479.396L1580.03 479.438L1580.02 479.48L1580.01 479.522L1580 479.564L1580 479.606L1579.99 479.648L1579.98 479.69L1579.97 479.732L1579.96 479.774L1579.95 479.816L1579.94 479.858L1579.93 479.9L1579.92 479.943L1579.91 479.985L1579.91 480.027L1579.9 480.069L1579.89 480.111L1579.88 480.153L1579.87 480.195L1579.86 480.237L1579.85 480.279L1579.84 480.321L1579.83 480.363L1579.83 480.405L1579.82 480.448L1579.81 480.49L1579.8 480.532L1579.79 480.574L1579.78 480.616L1579.77 480.658L1579.76 480.7L1579.75 480.742L1579.74 480.784L1579.74 480.826L1579.73 480.868L1579.72 480.91L1579.71 480.952L1579.7 480.995L1579.69 481.037L1579.68 481.079L1579.67 481.121L1579.66 481.163L1579.65 481.205L1579.65 481.247L1579.64 481.289L1579.63 481.331L1579.62 481.373L1579.61 481.415L1579.6 481.457L1579.59 481.499L1579.58 481.541L1579.57 481.584L1579.57 481.626L1579.56 481.668L1579.55 481.71L1579.54 481.752L1579.53 481.794L1579.52 481.836L1579.51 481.878L1579.5 481.92L1579.49 481.962L1579.48 482.004L1579.48 482.046L1579.47 482.088L1579.46 482.13L1579.45 482.172L1579.44 482.214L1579.43 482.256L1579.42 482.298L1579.41 482.34L1579.4 482.382L1579.39 482.424L1579.39 482.466L1579.38 482.508L1579.37 482.55L1579.36 482.592L1579.35 482.634L1579.34 482.676L1579.33 482.718L1579.32 482.76L1579.31 482.802L1579.31 482.844L1579.3 482.886L1579.29 482.928L1579.28 482.97L1579.27 483.012L1579.26 483.054L1579.25 483.096L1579.24 483.138L1579.23 483.18L1579.22 483.222L1579.22 483.264L1579.21 483.306L1579.2 483.348L1579.19 483.39L1579.18 483.432L1579.17 483.473L1579.16 483.515L1579.15 483.557L1579.14 483.599L1579.14 483.641L1579.13 483.683L1579.12 483.725L1579.11 483.767L1579.1 483.809L1579.09 483.851L1579.08 483.892L1579.07 483.934L1579.06 483.976L1579.06 484.018L1579.05 484.06L1579.04 484.102L1579.03 484.144L1579.02 484.185L1579.01 484.227L1579 484.269L1578.99 484.311L1578.98 484.353L1578.97 484.395L1578.97 484.436L1578.96 484.478L1578.95 484.52L1578.94 484.562L1578.93 484.603L1578.92 484.645L1578.91 484.687L1578.9 484.729L1578.89 484.771L1578.89 484.812L1578.88 484.854L1578.87 484.896L1578.86 484.938L1578.85 484.979L1578.84 485.021L1578.83 485.063L1578.82 485.104L1578.81 485.146L1578.81 485.188L1578.8 485.229L1578.79 485.271L1578.78 485.313L1578.77 485.354L1578.76 485.396L1578.75 485.438L1578.74 485.479L1578.73 485.521L1578.73 485.563L1578.72 485.604L1578.71 485.646L1578.7 485.687L1578.69 485.729L1578.68 485.771L1578.67 485.812L1578.66 485.854L1578.66 485.895L1578.65 485.937L1578.64 485.978L1578.63 486.02L1578.62 486.061L1578.61 486.103L1578.6 486.145L1578.59 486.186L1578.58 486.228L1578.58 486.269L1578.57 486.31L1578.56 486.352L1578.55 486.393L1578.54 486.435L1578.53 486.476L1578.52 486.518L1578.51 486.559L1578.5 486.601L1578.5 486.642L1578.49 486.683L1578.48 486.725L1578.47 486.766L1578.46 486.808L1578.45 486.849L1578.44 486.89L1578.43 486.932L1578.43 486.973L1578.42 487.014L1578.41 487.056L1578.4 487.097L1578.39 487.138L1578.38 487.179L1578.37 487.221L1578.36 487.262L1578.35 487.303L1578.35 487.344L1578.34 487.386L1578.33 487.427L1578.32 487.468L1578.31 487.509L1578.3 487.551L1578.29 487.592L1578.28 487.633L1578.28 487.674L1578.27 487.715L1578.26 487.756L1578.25 487.798L1578.24 487.839L1578.23 487.88L1578.22 487.921L1578.21 487.962L1578.21 488.003L1578.2 488.044L1578.19 488.085L1578.18 488.126L1578.17 488.167L1578.16 488.208L1578.15 488.249L1578.14 488.29L1578.14 488.331L1578.13 488.372L1578.12 488.413L1578.11 488.454L1578.1 488.495L1578.09 488.536L1578.08 488.577L1578.07 488.618L1578.07 488.659L1578.06 488.7L1578.05 488.74L1578.04 488.781L1578.03 488.822L1578.02 488.863L1578.01 488.904L1578.01 488.945L1578 488.985L1577.99 489.026L1577.98 489.067L1577.97 489.108L1577.96 489.148L1577.95 489.189L1577.94 489.23L1577.94 489.27L1577.93 489.311L1577.92 489.352L1577.91 489.393L1577.9 489.433L1577.89 489.474L1577.88 489.514L1577.87 489.555L1577.87 489.596L1577.86 489.636L1577.85 489.677L1577.84 489.717L1577.83 489.758L1577.82 489.798L1577.81 489.839L1577.81 489.879L1577.8 489.92L1577.79 489.96L1577.78 490.001L1577.77 490.041L1577.76 490.082L1577.75 490.122L1577.75 490.163L1577.74 490.203L1577.73 490.243L1577.72 490.284L1577.71 490.324L1577.7 490.364L1577.69 490.405L1577.69 490.445L1577.68 490.485L1577.67 490.525L1577.66 490.566L1577.65 490.606L1577.64 490.646L1577.63 490.686L1577.63 490.712C1577.11 490.826 1576.71 490.865 1576.28 490.905L1576.28 490.906C1575.78 490.953 1575.26 491.002 1574.56 491.178C1489.24 493.924 1405.61 485.573 1321.61 472.789L1321.55 473.289L1321.61 472.789C1302.95 469.959 1284.38 467.075 1265.83 464.194C1226.75 458.128 1187.78 452.077 1148.39 446.58C1112.02 441.318 1075.53 439.641 1038.63 442.923C991.008 447.002 945.404 463.198 903.159 497.648C862.619 530.356 829.354 572.207 800.536 620.994L800.535 620.996C757.037 695.513 718.706 773.557 681.955 853.453C666.074 887.871 651.737 923.079 637.367 958.37C631.833 971.958 626.295 985.559 620.662 999.132C605.8 1034.94 589.703 1070.39 569.696 1102.64C537.736 1154.07 498.238 1182.52 449.346 1187.61C421.855 1190.45 394.895 1187.66 367.569 1183.34C356.226 1181.28 344.894 1179.16 333.583 1177.04C310.197 1172.65 286.898 1168.28 263.753 1164.61L263.75 1164.61C147.187 1146.85 29.9848 1150.61 -87.853 1175.89C-97.5807 1177.45 -107.149 1179.8 -116.595 1182.11C-120.345 1183.03 -124.075 1183.95 -127.788 1184.81L-127.846 1184.79L-127.904 1184.78L-127.963 1184.76L-128.021 1184.75L-128.079 1184.73L-128.137 1184.72L-128.196 1184.7L-128.254 1184.68L-128.312 1184.67L-128.37 1184.65L-128.428 1184.64L-128.486 1184.62L-128.545 1184.61L-128.603 1184.59L-128.661 1184.58L-128.719 1184.56L-128.777 1184.55L-128.835 1184.53L-128.893 1184.52L-128.951 1184.5L-129.009 1184.48L-129.067 1184.47L-129.125 1184.45L-129.183 1184.44L-129.241 1184.42L-129.299 1184.41L-129.357 1184.39L-129.415 1184.38L-129.473 1184.36L-129.531 1184.35L-129.589 1184.33L-129.647 1184.32L-129.705 1184.3L-129.763 1184.29L-129.82 1184.27L-129.878 1184.26L-129.936 1184.24L-129.994 1184.23L-130.052 1184.21L-130.11 1184.19L-130.167 1184.18L-130.225 1184.16L-130.283 1184.15L-130.341 1184.13L-130.398 1184.12L-130.456 1184.1L-130.514 1184.09L-130.571 1184.07L-130.629 1184.06L-130.687 1184.04L-130.745 1184.03L-130.802 1184.01L-130.86 1184L-130.917 1183.98L-130.975 1183.97L-131.033 1183.95L-131.09 1183.94L-131.148 1183.92L-131.205 1183.91L-131.263 1183.89L-131.321 1183.87L-131.378 1183.86L-131.436 1183.84L-131.493 1183.83L-131.551 1183.81L-131.608 1183.8L-131.666 1183.78L-131.723 1183.77L-131.781 1183.75L-131.838 1183.74L-131.896 1183.72L-131.953 1183.71L-132.011 1183.69L-132.068 1183.68L-132.125 1183.66L-132.183 1183.65L-132.24 1183.63L-132.298 1183.62L-132.355 1183.6L-132.412 1183.59L-132.47 1183.57L-132.527 1183.56L-132.584 1183.54L-132.642 1183.53L-132.699 1183.51L-132.756 1183.5L-132.814 1183.48L-132.871 1183.47L-132.928 1183.45L-132.985 1183.44L-133.043 1183.42L-133.1 1183.41L-133.157 1183.39L-133.214 1183.38L-133.272 1183.36L-133.329 1183.34L-133.386 1183.33L-133.443 1183.31L-133.5 1183.3L-133.558 1183.28L-133.615 1183.27L-133.672 1183.25L-133.729 1183.24L-133.786 1183.22L-133.843 1183.21L-133.901 1183.19L-133.958 1183.18L-134.015 1183.16L-134.072 1183.15L-134.129 1183.13L-134.186 1183.12L-134.243 1183.1L-134.3 1183.09L-134.357 1183.07L-134.414 1183.06L-134.471 1183.04L-134.528 1183.03L-134.586 1183.01L-134.643 1183L-134.7 1182.98L-134.757 1182.97L-134.814 1182.95L-134.871 1182.94L-134.928 1182.92L-134.985 1182.91L-135.042 1182.89L-135.099 1182.88L-135.155 1182.86L-135.212 1182.85L-135.269 1182.83L-135.326 1182.82L-135.383 1182.8L-135.44 1182.79L-135.497 1182.77L-135.554 1182.76L-135.611 1182.74L-135.668 1182.73L-135.725 1182.71L-135.782 1182.7L-135.839 1182.68L-135.895 1182.67L-135.952 1182.65L-136.009 1182.64L-136.066 1182.62L-136.123 1182.61L-136.18 1182.59L-136.237 1182.58L-136.293 1182.56L-136.35 1182.55L-136.407 1182.53L-136.464 1182.52L-136.521 1182.5L-136.577 1182.49L-136.634 1182.47L-136.691 1182.46L-136.748 1182.44L-136.805 1182.43L-136.861 1182.41L-136.918 1182.4L-136.975 1182.38L-137.032 1182.37L-137.088 1182.35L-137.145 1182.34L-137.202 1182.32L-137.259 1182.31L-137.315 1182.29L-137.372 1182.28L-137.429 1182.26L-137.486 1182.25L-137.542 1182.23L-137.599 1182.22L-137.656 1182.2L-137.712 1182.19L-137.769 1182.17L-137.826 1182.16L-137.883 1182.14L-137.939 1182.13L-137.996 1182.11L-138.053 1182.1L-138.109 1182.08L-138.166 1182.07L-138.223 1182.05L-138.279 1182.04L-138.336 1182.02L-138.393 1182.01L-138.449 1181.99L-138.506 1181.98L-138.562 1181.96L-138.619 1181.95L-138.676 1181.93L-138.732 1181.92L-138.789 1181.9L-138.846 1181.89L-138.902 1181.87L-138.959 1181.86L-139.015 1181.84L-139.072 1181.83L-139.129 1181.81L-139.185 1181.8L-139.242 1181.78L-139.298 1181.77L-139.355 1181.75L-139.412 1181.74L-139.468 1181.72L-139.525 1181.71L-139.581 1181.69L-139.638 1181.68L-139.695 1181.66L-139.751 1181.65L-139.808 1181.63L-139.864 1181.62L-139.921 1181.61L-139.977 1181.59L-140.034 1181.58L-140.091 1181.56L-140.147 1181.55L-140.204 1181.53L-140.26 1181.52L-140.317 1181.5L-140.373 1181.49L-140.43 1181.47L-140.486 1181.46L-140.543 1181.44L-140.6 1181.43L-140.656 1181.41L-140.713 1181.4L-140.769 1181.38L-140.826 1181.37L-140.882 1181.35L-140.939 1181.34L-140.995 1181.32L-141.052 1181.31L-141.108 1181.29L-141.165 1181.28L-141.221 1181.26L-141.278 1181.25L-141.334 1181.23L-141.391 1181.22L-141.448 1181.2L-141.504 1181.19L-141.561 1181.17L-141.617 1181.16L-141.674 1181.14L-141.73 1181.13L-141.787 1181.11L-141.843 1181.1L-141.9 1181.08L-141.956 1181.07L-142.013 1181.05L-142.069 1181.04L-142.126 1181.02L-142.182 1181.01L-142.239 1180.99L-142.295 1180.98L-142.352 1180.96L-142.408 1180.95L-142.465 1180.93L-142.521 1180.92L-142.578 1180.9L-142.634 1180.89L-142.691 1180.87L-142.748 1180.86L-142.804 1180.84L-142.861 1180.83L-142.917 1180.81L-142.974 1180.8L-143.03 1180.78L-143.087 1180.77L-143.143 1180.75L-143.2 1180.74L-143.256 1180.72L-143.313 1180.71L-143.369 1180.69L-143.426 1180.68L-143.482 1180.67L-143.539 1180.65L-143.595 1180.64L-143.652 1180.62L-143.708 1180.61L-143.765 1180.59L-143.822 1180.58L-143.878 1180.56L-143.935 1180.55L-143.991 1180.53L-144.048 1180.52L-144.104 1180.5L-144.161 1180.49L-144.217 1180.47L-144.274 1180.46L-144.33 1180.44L-144.387 1180.43L-144.444 1180.41L-144.5 1180.4L-144.557 1180.38L-144.613 1180.37L-144.67 1180.35L-144.726 1180.34L-144.783 1180.32L-144.84 1180.31L-144.896 1180.29L-144.953 1180.28L-145.009 1180.26L-145.066 1180.25L-145.122 1180.23L-145.179 1180.22L-145.236 1180.2L-145.292 1180.19L-145.349 1180.17L-145.405 1180.16L-145.462 1180.14L-145.519 1180.13L-145.575 1180.11L-145.632 1180.1L-145.688 1180.08L-145.745 1180.07L-145.802 1180.05L-145.858 1180.04L-145.915 1180.02L-145.972 1180.01L-146.028 1179.99L-146.085 1179.98L-146.142 1179.96L-146.198 1179.95L-146.255 1179.93L-146.311 1179.92L-146.368 1179.9L-146.425 1179.89L-146.481 1179.87L-146.538 1179.86L-146.595 1179.84L-146.652 1179.83L-146.708 1179.81L-146.765 1179.8L-146.822 1179.78L-146.878 1179.77L-146.935 1179.75L-146.992 1179.74L-147.048 1179.72L-147.105 1179.71L-147.162 1179.69L-147.219 1179.68L-147.275 1179.66L-147.332 1179.65L-147.389 1179.63L-147.446 1179.62L-147.502 1179.6L-147.559 1179.59L-147.616 1179.57L-147.673 1179.56L-147.729 1179.54L-147.786 1179.53L-147.843 1179.51L-147.9 1179.5L-147.956 1179.48L-148.013 1179.47L-148.07 1179.45L-148.127 1179.44L-148.184 1179.42L-148.241 1179.41L-148.297 1179.39L-148.354 1179.38L-148.411 1179.36L-148.468 1179.35L-148.525 1179.33L-148.582 1179.32L-148.638 1179.3L-148.695 1179.29L-148.752 1179.27L-148.809 1179.26L-148.866 1179.24L-148.923 1179.23L-148.98 1179.21L-149.037 1179.2L-149.094 1179.18L-149.151 1179.17L-149.207 1179.15L-149.264 1179.14L-149.321 1179.12L-149.378 1179.11L-149.435 1179.09L-149.492 1179.08L-149.549 1179.06L-149.606 1179.05L-149.663 1179.03L-149.72 1179.02L-149.777 1179L-149.834 1178.99L-149.891 1178.97L-149.948 1178.96L-150.005 1178.94L-150.062 1178.93L-150.119 1178.91L-150.176 1178.9L-150.233 1178.88L-150.29 1178.87L-150.348 1178.85L-150.405 1178.84L-150.462 1178.82L-150.519 1178.81L-150.576 1178.79L-150.633 1178.78L-150.69 1178.76L-150.747 1178.75L-150.804 1178.73L-150.862 1178.72L-150.919 1178.7L-150.976 1178.69L-151.033 1178.67L-151.09 1178.66L-151.147 1178.64L-151.205 1178.63L-151.262 1178.61L-151.319 1178.6L-151.376 1178.58L-151.434 1178.57L-151.491 1178.55L-151.548 1178.54L-151.605 1178.52L-151.663 1178.51L-151.72 1178.49L-151.777 1178.48L-151.834 1178.46L-151.892 1178.45L-151.949 1178.43L-152.006 1178.42L-152.064 1178.4L-152.121 1178.38L-152.178 1178.37L-152.236 1178.35L-152.293 1178.34L-152.351 1178.32L-152.408 1178.31L-152.465 1178.29L-152.523 1178.28L-152.58 1178.26L-152.638 1178.25L-152.695 1178.23L-152.753 1178.22L-152.81 1178.2L-152.867 1178.19L-152.925 1178.17L-152.982 1178.16L-153.04 1178.14L-153.097 1178.13L-153.155 1178.11L-153.213 1178.1L-153.27 1178.08L-153.328 1178.07L-153.385 1178.05L-153.443 1178.04L-153.5 1178.02L-153.558 1178.01L-153.616 1177.99L-153.673 1177.98L-153.731 1177.96L-153.789 1177.94L-153.846 1177.93L-153.904 1177.91L-153.962 1177.9L-154.019 1177.88L-154.077 1177.87L-154.135 1177.85L-154.192 1177.84L-154.25 1177.82L-154.308 1177.81L-154.366 1177.79L-154.423 1177.78L-154.481 1177.76L-154.539 1177.75L-154.597 1177.73L-154.655 1177.72L-154.712 1177.7L-154.77 1177.69L-154.828 1177.67L-154.886 1177.66L-154.944 1177.64L-155.002 1177.62L-155.06 1177.61L-155.118 1177.59L-155.176 1177.58L-155.234 1177.56L-155.291 1177.55L-155.337 1177.54Z" stroke="#437ADB"/>
<path d="M1565.32 532.048L1565.38 532.063C1565.93 532.208 1566.52 532.205 1567.19 532.198L1567.22 532.197C1567.71 532.192 1568.24 532.187 1568.77 532.265L1568.77 532.244L1568.78 532.204L1568.79 532.164L1568.8 532.123L1568.81 532.083L1568.82 532.043L1568.83 532.002L1568.83 531.962L1568.84 531.922L1568.85 531.881L1568.86 531.841L1568.87 531.8L1568.88 531.76L1568.89 531.72L1568.89 531.679L1568.9 531.639L1568.91 531.598L1568.92 531.558L1568.93 531.517L1568.94 531.477L1568.95 531.436L1568.95 531.395L1568.96 531.355L1568.97 531.314L1568.98 531.274L1568.99 531.233L1569 531.192L1569.01 531.152L1569.02 531.111L1569.02 531.071L1569.03 531.03L1569.04 530.989L1569.05 530.948L1569.06 530.908L1569.07 530.867L1569.08 530.826L1569.08 530.786L1569.09 530.745L1569.1 530.704L1569.11 530.663L1569.12 530.622L1569.13 530.582L1569.14 530.541L1569.15 530.5L1569.15 530.459L1569.16 530.418L1569.17 530.377L1569.18 530.336L1569.19 530.296L1569.2 530.255L1569.21 530.214L1569.22 530.173L1569.22 530.132L1569.23 530.091L1569.24 530.05L1569.25 530.009L1569.26 529.968L1569.27 529.927L1569.28 529.886L1569.29 529.845L1569.29 529.804L1569.3 529.763L1569.31 529.722L1569.32 529.681L1569.33 529.64L1569.34 529.598L1569.35 529.557L1569.36 529.516L1569.36 529.475L1569.37 529.434L1569.38 529.393L1569.39 529.352L1569.4 529.31L1569.41 529.269L1569.42 529.228L1569.43 529.187L1569.43 529.146L1569.44 529.104L1569.45 529.063L1569.46 529.022L1569.47 528.981L1569.48 528.939L1569.49 528.898L1569.5 528.857L1569.5 528.816L1569.51 528.774L1569.52 528.733L1569.53 528.692L1569.54 528.65L1569.55 528.609L1569.56 528.568L1569.57 528.526L1569.57 528.485L1569.58 528.443L1569.59 528.402L1569.6 528.361L1569.61 528.319L1569.62 528.278L1569.63 528.236L1569.64 528.195L1569.65 528.154L1569.65 528.112L1569.66 528.071L1569.67 528.029L1569.68 527.988L1569.69 527.946L1569.7 527.905L1569.71 527.863L1569.72 527.822L1569.73 527.78L1569.73 527.739L1569.74 527.697L1569.75 527.656L1569.76 527.614L1569.77 527.572L1569.78 527.531L1569.79 527.489L1569.8 527.448L1569.8 527.406L1569.81 527.365L1569.82 527.323L1569.83 527.281L1569.84 527.24L1569.85 527.198L1569.86 527.156L1569.87 527.115L1569.88 527.073L1569.88 527.031L1569.89 526.99L1569.9 526.948L1569.91 526.906L1569.92 526.865L1569.93 526.823L1569.94 526.781L1569.95 526.74L1569.96 526.698L1569.96 526.656L1569.97 526.614L1569.98 526.573L1569.99 526.531L1570 526.489L1570.01 526.447L1570.02 526.406L1570.03 526.364L1570.04 526.322L1570.04 526.28L1570.05 526.239L1570.06 526.197L1570.07 526.155L1570.08 526.113L1570.09 526.071L1570.1 526.03L1570.11 525.988L1570.12 525.946L1570.13 525.904L1570.13 525.862L1570.14 525.82L1570.15 525.779L1570.16 525.737L1570.17 525.695L1570.18 525.653L1570.19 525.611L1570.2 525.569L1570.21 525.527L1570.21 525.486L1570.22 525.444L1570.23 525.402L1570.24 525.36L1570.25 525.318L1570.26 525.276L1570.27 525.234L1570.28 525.192L1570.29 525.15L1570.29 525.108L1570.3 525.066L1570.31 525.024L1570.32 524.983L1570.33 524.941L1570.34 524.899L1570.35 524.857L1570.36 524.815L1570.37 524.773L1570.38 524.731L1570.38 524.689L1570.39 524.647L1570.4 524.605L1570.41 524.563L1570.42 524.521L1570.43 524.479L1570.44 524.437L1570.45 524.395L1570.46 524.353L1570.46 524.311L1570.47 524.269L1570.48 524.227L1570.49 524.185L1570.5 524.143L1570.51 524.101L1570.52 524.059L1570.53 524.017L1570.54 523.975L1570.55 523.933L1570.55 523.891L1570.56 523.849L1570.57 523.807L1570.58 523.765L1570.59 523.723L1570.6 523.681L1570.61 523.639L1570.62 523.597L1570.63 523.555L1570.63 523.512L1570.64 523.47L1570.65 523.428L1570.66 523.386L1570.67 523.344L1570.68 523.302L1570.69 523.26L1570.7 523.218L1570.71 523.176L1570.72 523.134L1570.72 523.092L1570.73 523.05L1570.74 523.008L1570.75 522.966L1570.76 522.924L1570.77 522.882L1570.78 522.839L1570.79 522.797L1570.8 522.755L1570.81 522.713L1570.81 522.671L1570.82 522.629L1570.83 522.587L1570.84 522.545L1570.85 522.503L1570.86 522.461L1570.87 522.419L1570.88 522.377L1570.89 522.335L1570.89 522.292L1570.9 522.25L1570.91 522.208L1570.92 522.166L1570.93 522.124L1570.94 522.082L1570.95 522.04L1570.96 521.998L1570.97 521.956L1570.98 521.914L1570.98 521.872L1570.99 521.83L1571 521.787L1571.01 521.745L1571.02 521.703L1571.03 521.661L1571.04 521.619L1571.05 521.577L1571.06 521.535L1571.07 521.493L1571.07 521.451L1571.08 521.409L1571.09 521.367L1571.1 521.325L1571.11 521.283L1571.12 521.241L1571.13 521.198L1571.14 521.156L1571.15 521.114L1571.15 521.072L1571.16 521.03L1571.17 520.988L1571.18 520.946L1571.19 520.904L1571.2 520.862L1571.21 520.82L1571.22 520.778L1571.23 520.736L1571.24 520.694L1571.24 520.652L1571.25 520.61L1571.26 520.568L1571.27 520.526L1571.28 520.484L1571.29 520.441L1571.3 520.399L1571.31 520.357L1571.32 520.315L1571.33 520.273L1571.33 520.231L1571.34 520.189L1571.35 520.147L1571.36 520.105L1571.37 520.063L1571.38 520.021L1571.39 519.979L1571.4 519.937L1571.41 519.895L1571.41 519.853L1571.42 519.811L1571.43 519.769L1571.44 519.727L1571.45 519.685L1571.46 519.643L1571.47 519.601L1571.48 519.559L1571.49 519.517L1571.5 519.475L1571.5 519.434L1571.51 519.392L1571.52 519.35L1571.53 519.308L1571.54 519.266L1571.55 519.224L1571.56 519.182L1571.57 519.14L1571.58 519.098L1571.58 519.056L1571.59 519.014L1571.6 518.972L1571.61 518.93L1571.62 518.888L1571.63 518.847L1571.64 518.805L1571.65 518.763L1571.66 518.721L1571.67 518.679L1571.67 518.637L1571.68 518.595L1571.69 518.553L1571.7 518.512L1571.71 518.47L1571.72 518.428L1571.73 518.386L1571.74 518.344L1571.75 518.302L1571.75 518.26L1571.76 518.219L1571.77 518.177L1571.78 518.135L1571.79 518.093L1571.8 518.051L1571.81 518.01L1571.82 517.968L1571.83 517.926L1571.83 517.884L1571.84 517.843L1571.85 517.801L1571.86 517.759L1571.87 517.717L1571.88 517.676L1571.89 517.634L1571.9 517.592L1571.91 517.55L1571.91 517.509L1571.92 517.467L1571.93 517.425L1571.94 517.384L1571.95 517.342L1571.96 517.3L1571.97 517.258L1571.98 517.217L1571.99 517.175L1571.99 517.134L1572 517.092L1572.01 517.05L1572.02 517.009L1572.03 516.967L1572.04 516.925L1572.05 516.884L1572.06 516.842L1572.07 516.801L1572.07 516.759L1572.08 516.717L1572.09 516.676L1572.1 516.634L1572.11 516.593L1572.12 516.551L1572.13 516.51L1572.14 516.468L1572.15 516.427L1572.15 516.385L1572.16 516.344L1572.17 516.302L1572.18 516.261L1572.19 516.219L1572.2 516.178L1572.21 516.136L1572.22 516.095L1572.22 516.053L1572.23 516.012L1572.24 515.97L1572.25 515.929L1572.26 515.888L1572.27 515.846L1572.28 515.805L1572.29 515.763L1572.3 515.722L1572.3 515.681L1572.31 515.639L1572.32 515.598L1572.33 515.557L1572.34 515.515L1572.35 515.474L1572.36 515.433L1572.37 515.391L1572.37 515.35L1572.38 515.309L1572.39 515.268L1572.4 515.226L1572.41 515.185L1572.42 515.144L1572.43 515.103L1572.44 515.061L1572.44 515.02L1572.45 514.979L1572.46 514.938L1572.47 514.897L1572.48 514.856L1572.49 514.814L1572.5 514.773L1572.51 514.732L1572.52 514.691L1572.52 514.65L1572.53 514.609L1572.54 514.568L1572.55 514.527L1572.56 514.486L1572.57 514.444L1572.58 514.403L1572.59 514.362L1572.59 514.321L1572.6 514.28L1572.61 514.239L1572.62 514.198L1572.63 514.157L1572.64 514.116L1572.65 514.076L1572.66 514.035L1572.66 513.994L1572.67 513.953L1572.68 513.912L1572.69 513.871L1572.7 513.83L1572.71 513.789L1572.72 513.748L1572.72 513.708L1572.73 513.667L1572.74 513.626L1572.75 513.585L1572.76 513.544L1572.77 513.503L1572.78 513.463L1572.79 513.422L1572.79 513.381L1572.8 513.341L1572.81 513.3L1572.82 513.259L1572.83 513.218L1572.84 513.178L1572.85 513.137L1572.86 513.096L1572.86 513.056L1572.87 513.015L1572.88 512.975L1572.89 512.934L1572.9 512.893L1572.91 512.853L1572.92 512.812L1572.92 512.772L1572.93 512.731L1572.94 512.691L1572.95 512.65L1572.96 512.61L1572.97 512.569L1572.98 512.529L1572.98 512.488L1572.99 512.448L1573 512.407L1573.01 512.367L1573.02 512.327L1573.03 512.286L1573.04 512.246L1573.04 512.206L1573.05 512.17C1565.12 512.344 1557.24 512.253 1549.02 512.158C1544.45 512.105 1539.78 512.051 1534.94 512.04L1534.93 512.04C1478.62 510.911 1422.42 506.195 1366.8 498.744C1333.49 494.648 1300.1 490.17 1266.64 485.672L1263.84 485.296C1231.3 480.922 1198.69 476.538 1166.01 472.478L1166.01 472.478C1128.92 467.743 1091.73 466.59 1053.67 469.537C968.212 476.544 895.939 523.086 835.759 608.249C813.112 640.536 793.28 675.016 774.396 711.201L774.396 711.202C771.011 717.663 767.62 724.113 764.232 730.56C737.658 781.113 711.209 831.429 688.706 885.058C672.043 925.782 655.738 967.145 639.575 1008.15C637.106 1014.41 634.641 1020.67 632.178 1026.91C617.935 1062.89 603.059 1098.73 583.631 1131.22M1565.32 532.048L583.206 1130.94M1565.32 532.048L1565.26 532.047M1565.32 532.048L1565.26 532.047M583.631 1131.22L583.206 1130.94M583.631 1131.22C583.632 1131.22 583.632 1131.22 583.632 1131.22L583.206 1130.94M583.631 1131.22C565.118 1162.5 543.089 1188.57 514.189 1203.43M583.206 1130.94C564.715 1162.19 542.742 1188.18 513.952 1202.97M514.189 1203.43C514.189 1203.43 514.19 1203.43 514.19 1203.43L513.952 1202.97M514.189 1203.43C491.933 1214.96 468.798 1218.28 445.801 1218M514.189 1203.43L513.952 1202.97M513.952 1202.97L445.801 1218M445.801 1218L445.782 1217.49L445.797 1218C445.798 1218 445.8 1218 445.801 1218ZM445.801 1218C412.249 1217.83 378.924 1210.48 346.556 1201.94C299.283 1189.46 250.659 1180.24 201.929 1174.6L445.801 1218ZM1565.26 532.047C1502.33 531.327 1440.27 526.505 1378.18 518.783L1378.17 518.782M1565.26 532.047L1378.17 518.782M1378.17 518.782C1347.04 515.262 1315.8 511.53 1284.55 507.798L1284.55 507.798L1284.54 507.797C1253.29 504.066 1222.04 500.333 1190.91 496.813L1190.91 496.813M1378.17 518.782L1190.91 496.813M1190.91 496.813C1149.75 492.455 1108.62 490.997 1066.93 495.181C975.562 503.64 898.928 554.348 836.257 647.729L836.256 647.731M1190.91 496.813L836.256 647.731M836.256 647.731C814.973 679.701 795.269 713.529 776.665 748.367M836.256 647.731L776.665 748.367M693.259 923.013C716.921 861.345 746.7 804.903 777.101 748.625C795.699 713.797 815.396 679.982 836.669 648.027L693.259 923.013ZM693.259 923.013C683.964 947.33 674.957 971.723 665.977 996.042M693.259 923.013L665.977 996.042M776.665 748.367C746.265 804.644 716.472 861.11 692.798 922.811L692.798 922.812C683.503 947.128 674.496 971.52 665.517 995.836L664.461 998.696C655.132 1023.96 645.823 1049.13 636.239 1074.05L636.238 1074.06C622.765 1109.51 608.827 1144.09 590.213 1175.98C569.923 1209.58 545.539 1234.8 513.279 1244.98C499.287 1249.2 485.248 1250.54 471.483 1250.51C471.483 1250.51 471.483 1250.51 471.483 1250.51L471.503 1251.01M776.665 748.367L251.065 1199.54M471.503 1251.01C440.028 1250.65 410.011 1243.45 380.286 1234.89C368.643 1231.62 357.032 1228.19 345.408 1224.77C314.311 1215.61 283.125 1206.42 250.991 1200.04M471.503 1251.01C485.3 1251.04 499.39 1249.7 513.44 1245.47L471.503 1251.01ZM250.991 1200.04L251.067 1199.54C251.066 1199.54 251.066 1199.54 251.065 1199.54M250.991 1200.04L251.065 1199.54M250.991 1200.04C147.62 1179.26 42.364 1179.65 -63.0948 1199.5C-63.2406 1200.19 -64.7768 1201.23 -66.1672 1201.58M251.065 1199.54C147.628 1178.75 42.3098 1179.15 -63.2044 1199.01L-63.5118 1199.06L-63.5782 1199.38C-63.5868 1199.42 -63.6389 1199.53 -63.8053 1199.71C-63.9613 1199.88 -64.1813 1200.06 -64.4494 1200.24C-64.9541 1200.58 -65.5868 1200.89 -66.189 1201.06M-66.1672 1201.58L-66.063 1201.09L-66.1286 1201.08L-66.189 1201.06M-66.1672 1201.58L-98.2347 1193.12L-66.189 1201.06M-66.1672 1201.58L-66.3064 1201.09C-66.2674 1201.08 -66.2283 1201.07 -66.189 1201.06M665.977 996.042C656.296 1022.26 646.646 1048.4 636.7 1074.26L665.977 996.042ZM-98.2803 1192.59C-98.0964 1192.52 -97.9116 1192.44 -97.7268 1192.37C-96.7675 1191.98 -95.8082 1191.59 -94.9784 1191.81L-98.2803 1192.59Z" stroke="#437ADB"/>
<path d="M1564.31 553.169L1564.31 553.184L1564.3 553.228L1564.29 553.272L1564.28 553.316L1564.27 553.36L1564.26 553.404L1564.25 553.448L1564.25 553.492L1564.24 553.536L1564.23 553.58L1564.22 553.625L1564.21 553.669L1564.2 553.713L1564.19 553.757L1564.18 553.801L1564.17 553.845L1564.16 553.889L1564.15 553.933L1564.14 553.977L1564.13 554.021L1564.12 554.065L1564.11 554.109L1564.1 554.154L1564.1 554.198L1564.09 554.242L1564.08 554.286L1564.07 554.33L1564.06 554.374L1564.05 554.418L1564.04 554.462L1564.03 554.506L1564.02 554.55L1564.01 554.594L1564 554.639L1563.99 554.683L1563.98 554.727L1563.97 554.771L1563.96 554.815L1563.95 554.859L1563.94 554.903L1563.94 554.947L1563.93 554.991L1563.92 555.035L1563.91 555.079L1563.9 555.123L1563.89 555.168L1563.88 555.212L1563.87 555.256L1563.86 555.3L1563.85 555.344L1563.84 555.388L1563.83 555.432L1563.82 555.476L1563.81 555.52L1563.8 555.564L1563.79 555.608L1563.79 555.652L1563.78 555.697L1563.77 555.741L1563.76 555.785L1563.75 555.829L1563.74 555.873L1563.73 555.917L1563.72 555.961L1563.71 556.005L1563.7 556.049L1563.69 556.093L1563.68 556.137L1563.67 556.182L1563.66 556.226L1563.65 556.27L1563.64 556.314L1563.63 556.358L1563.63 556.402L1563.62 556.446L1563.61 556.49L1563.6 556.534L1563.59 556.578L1563.58 556.622L1563.57 556.666L1563.56 556.711L1563.55 556.755L1563.54 556.799L1563.53 556.843L1563.52 556.887L1563.51 556.931L1563.5 556.975L1563.49 557.019L1563.48 557.063L1563.47 557.107L1563.47 557.151L1563.46 557.196L1563.45 557.24L1563.44 557.284L1563.43 557.328L1563.42 557.372L1563.41 557.416L1563.4 557.46L1563.39 557.504L1563.38 557.548L1563.37 557.592L1563.36 557.636L1563.35 557.68L1563.34 557.725L1563.33 557.769L1563.32 557.813L1563.32 557.857L1563.31 557.901L1563.3 557.945L1563.29 557.989L1563.28 558.033L1563.27 558.077L1563.26 558.121L1563.25 558.165L1563.24 558.21L1563.23 558.254L1563.22 558.298L1563.21 558.342L1563.2 558.386L1563.19 558.43L1563.18 558.474L1563.17 558.518L1563.16 558.562L1563.16 558.606L1563.15 558.65L1563.14 558.694L1563.13 558.739L1563.12 558.783L1563.11 558.827L1563.1 558.871L1563.09 558.915L1563.08 558.959L1563.07 559.003L1563.06 559.047L1563.05 559.091L1563.04 559.135L1563.03 559.179L1563.02 559.223L1563.01 559.268L1563.01 559.312L1563 559.356L1562.99 559.4L1562.98 559.444L1562.97 559.488L1562.96 559.532L1562.95 559.576L1562.94 559.62L1562.93 559.664L1562.92 559.708L1562.91 559.753L1562.9 559.797L1562.89 559.841L1562.88 559.885L1562.87 559.929L1562.86 559.973L1562.85 560.017L1562.85 560.061L1562.84 560.105L1562.83 560.149L1562.82 560.193L1562.81 560.237L1562.8 560.282L1562.79 560.326L1562.78 560.37L1562.77 560.414L1562.76 560.458L1562.75 560.502L1562.74 560.546L1562.73 560.59L1562.72 560.634L1562.71 560.678L1562.7 560.722L1562.69 560.767L1562.69 560.811L1562.68 560.855L1562.67 560.899L1562.66 560.943L1562.65 560.987L1562.64 561.031L1562.63 561.075L1562.62 561.119L1562.61 561.163L1562.6 561.207L1562.59 561.251L1562.58 561.296L1562.57 561.34L1562.56 561.384L1562.55 561.428L1562.54 561.472L1562.54 561.516L1562.53 561.56L1562.52 561.604L1562.51 561.648L1562.5 561.692L1562.49 561.736L1562.48 561.78L1562.47 561.825L1562.46 561.869L1562.45 561.913L1562.44 561.957L1562.43 562.001L1562.42 562.045L1562.41 562.089L1562.4 562.133L1562.39 562.177L1562.38 562.221L1562.38 562.265L1562.37 562.31L1562.36 562.354L1562.35 562.398L1562.34 562.442L1562.33 562.486L1562.32 562.53L1562.31 562.574L1562.3 562.618L1562.29 562.662L1562.28 562.706L1562.27 562.75L1562.26 562.794L1562.25 562.839L1562.24 562.883L1562.23 562.927L1562.23 562.971L1562.22 563.015L1562.21 563.059L1562.2 563.103L1562.19 563.147L1562.18 563.191L1562.17 563.235L1562.16 563.279L1562.15 563.324L1562.14 563.368L1562.13 563.412L1562.12 563.456L1562.11 563.5L1562.1 563.544L1562.09 563.588L1562.08 563.632L1562.07 563.676L1562.07 563.72L1562.06 563.764L1562.05 563.808L1562.04 563.853L1562.03 563.897L1562.02 563.941L1562.01 563.985L1562 564.029L1561.99 564.073L1561.98 564.117L1561.97 564.161L1561.96 564.205L1561.95 564.249L1561.94 564.293L1561.93 564.337L1561.92 564.382L1561.91 564.426L1561.91 564.47L1561.9 564.514L1561.89 564.558L1561.88 564.602L1561.87 564.646L1561.86 564.69L1561.85 564.734L1561.84 564.778L1561.83 564.822L1561.82 564.867L1561.81 564.911L1561.8 564.955L1561.79 564.999L1561.78 565.043L1561.77 565.087L1561.76 565.131L1561.76 565.175L1561.75 565.219L1561.74 565.263L1561.73 565.307L1561.72 565.351L1561.71 565.396L1561.7 565.44L1561.69 565.484L1561.68 565.528L1561.67 565.572L1561.66 565.616L1561.65 565.66L1561.64 565.704L1561.63 565.748L1561.62 565.792L1561.61 565.836L1561.6 565.881L1561.6 565.925L1561.59 565.969L1561.58 566.013L1561.57 566.057L1561.56 566.101L1561.55 566.145L1561.54 566.189L1561.53 566.233L1561.52 566.277L1561.51 566.321L1561.5 566.365L1561.49 566.41L1561.48 566.454L1561.47 566.498L1561.46 566.542L1561.45 566.586L1561.45 566.63L1561.44 566.674L1561.43 566.718L1561.42 566.762L1561.41 566.806L1561.4 566.85L1561.39 566.895L1561.38 566.939L1561.37 566.983L1561.36 567.027L1561.35 567.071L1561.34 567.115L1561.33 567.159L1561.32 567.203L1561.31 567.247L1561.3 567.291L1561.29 567.335L1561.29 567.379L1561.28 567.424L1561.27 567.468L1561.26 567.512L1561.25 567.556L1561.24 567.6L1561.23 567.644L1561.22 567.688L1561.21 567.732L1561.2 567.776L1561.19 567.82L1561.18 567.864L1561.17 567.908L1561.16 567.953L1561.15 567.997L1561.14 568.041L1561.13 568.085L1561.13 568.129L1561.12 568.173L1561.11 568.217L1561.1 568.261L1561.09 568.305L1561.08 568.349L1561.07 568.393L1561.06 568.438L1561.05 568.482L1561.04 568.526L1561.03 568.57L1561.02 568.614L1561.01 568.658L1561 568.702L1560.99 568.746L1560.98 568.79L1560.98 568.834L1560.97 568.878L1560.96 568.922L1560.95 568.967L1560.94 569.011L1560.93 569.055L1560.92 569.099L1560.91 569.143L1560.9 569.187L1560.89 569.231L1560.88 569.275L1560.87 569.319L1560.86 569.363L1560.85 569.407L1560.84 569.452L1560.83 569.496L1560.82 569.54L1560.82 569.584L1560.81 569.628L1560.8 569.672L1560.79 569.716L1560.78 569.76L1560.77 569.804L1560.76 569.848L1560.75 569.892L1560.74 569.936L1560.73 569.981L1560.72 570.025L1560.71 570.069L1560.7 570.113L1560.69 570.157L1560.68 570.201L1560.67 570.245L1560.67 570.289L1560.66 570.333L1560.65 570.377L1560.64 570.421L1560.63 570.465L1560.62 570.51L1560.61 570.554L1560.6 570.598L1560.59 570.642L1560.58 570.686L1560.57 570.73L1560.56 570.774L1560.55 570.818L1560.54 570.862L1560.53 570.906L1560.52 570.95L1560.51 570.995L1560.51 571.039L1560.5 571.083L1560.49 571.127L1560.48 571.171L1560.47 571.215L1560.46 571.259L1560.45 571.303L1560.44 571.347L1560.43 571.391L1560.42 571.435L1560.41 571.479L1560.4 571.524L1560.39 571.568L1560.38 571.612L1560.37 571.656L1560.36 571.7L1560.36 571.744L1560.35 571.788L1560.34 571.832L1560.33 571.876L1560.32 571.92L1560.31 571.964L1560.3 572.009L1560.29 572.053L1560.28 572.097L1560.27 572.141L1560.26 572.185L1560.25 572.229L1560.24 572.273L1560.23 572.317L1560.22 572.361L1560.21 572.405L1560.2 572.449L1560.2 572.493L1560.19 572.538L1560.18 572.582L1560.17 572.626L1560.16 572.67L1560.15 572.714L1560.14 572.758L1560.13 572.802L1560.12 572.846L1560.11 572.89L1560.1 572.934L1560.09 572.978L1560.08 573.022L1560.07 573.067L1560.06 573.111L1560.05 573.155L1560.04 573.199L1560.04 573.243L1560.03 573.287L1560.02 573.331L1560.01 573.375L1560 573.419L1559.99 573.463L1559.98 573.507L1559.97 573.552L1559.96 573.596L1559.95 573.64L1559.94 573.684L1559.93 573.728L1559.92 573.772L1559.91 573.816L1559.9 573.86L1559.89 573.904L1559.89 573.948L1559.88 573.992L1559.87 574.036L1559.86 574.081L1559.85 574.125L1559.84 574.169L1559.83 574.213L1559.82 574.257L1559.81 574.301L1559.8 574.345L1559.79 574.389L1559.78 574.433L1559.77 574.477L1559.76 574.521L1559.75 574.566L1559.74 574.61L1559.74 574.65L1559.73 574.648L1559.72 574.646L1559.72 574.644L1559.71 574.642L1559.7 574.641L1559.69 574.639L1559.69 574.637L1559.68 574.635L1559.67 574.633L1559.66 574.631L1559.66 574.629L1559.65 574.627L1559.64 574.625L1559.64 574.623L1559.63 574.621L1559.62 574.619L1559.61 574.617L1559.61 574.616L1559.6 574.614L1559.59 574.612L1559.58 574.61L1559.58 574.608L1559.57 574.606L1559.56 574.604L1559.56 574.602L1559.55 574.6L1559.54 574.598L1559.53 574.596L1559.53 574.594L1559.52 574.592L1559.51 574.591L1559.5 574.589L1559.5 574.587L1559.49 574.585L1559.48 574.583L1559.48 574.581L1559.47 574.579L1559.46 574.577L1559.45 574.575L1559.45 574.573L1559.44 574.571L1559.43 574.569L1559.42 574.567L1559.42 574.565L1559.41 574.564L1559.4 574.562L1559.4 574.56L1559.39 574.558L1559.38 574.556L1559.37 574.554L1559.37 574.552L1559.36 574.55L1559.35 574.548L1559.34 574.546L1559.34 574.544L1559.33 574.542L1559.32 574.54L1559.31 574.539L1559.31 574.537L1559.3 574.535L1559.29 574.533L1559.29 574.531L1559.28 574.529L1559.27 574.527L1559.26 574.525L1559.26 574.523L1559.25 574.521L1559.24 574.519L1559.23 574.517L1559.23 574.515L1559.22 574.514L1559.21 574.512L1559.21 574.51L1559.2 574.508L1559.19 574.506L1559.18 574.504L1559.18 574.502L1559.17 574.5L1559.16 574.498L1559.15 574.496L1559.15 574.494L1559.14 574.492L1559.13 574.49L1559.13 574.489L1559.12 574.487L1559.11 574.485L1559.1 574.483L1559.1 574.481L1559.09 574.479L1559.08 574.477L1559.07 574.475L1559.07 574.473L1559.06 574.471L1559.05 574.469L1559.04 574.467L1559.04 574.465L1559.03 574.463L1559.02 574.462L1559.02 574.46L1559.01 574.458L1559 574.456L1558.99 574.454L1558.99 574.452L1558.98 574.45L1558.97 574.448L1558.96 574.446L1558.96 574.444L1558.95 574.442L1558.94 574.44L1558.94 574.438L1558.93 574.437L1558.92 574.435L1558.91 574.433L1558.91 574.431L1558.9 574.429L1558.89 574.427L1558.88 574.425L1558.88 574.423L1558.87 574.421L1558.86 574.419L1558.86 574.417L1558.85 574.415L1558.84 574.413L1558.83 574.412L1558.83 574.41L1558.82 574.408L1558.81 574.406L1558.8 574.404L1558.8 574.402L1558.79 574.4L1558.78 574.398L1558.78 574.396L1558.77 574.394L1558.76 574.392L1558.75 574.39L1558.75 574.388L1558.74 574.386L1558.73 574.385L1558.72 574.383L1558.72 574.381L1558.71 574.379L1558.7 574.377L1558.69 574.375L1558.69 574.373L1558.68 574.371L1558.67 574.369L1558.67 574.367L1558.66 574.365L1558.65 574.363L1558.64 574.361L1558.64 574.36L1558.63 574.358L1558.62 574.356L1558.61 574.354L1558.61 574.352L1558.6 574.35L1558.59 574.348L1558.59 574.346L1558.58 574.344L1558.57 574.342L1558.56 574.34L1558.56 574.338L1558.55 574.336L1558.54 574.335L1558.53 574.333L1558.53 574.331L1558.52 574.329L1558.51 574.327L1558.51 574.325L1558.5 574.323L1558.49 574.321L1558.48 574.319L1558.48 574.317L1558.47 574.315L1558.46 574.313L1558.45 574.311L1558.45 574.31L1558.44 574.308L1558.43 574.306L1558.43 574.304L1558.42 574.302L1558.41 574.3L1558.4 574.298L1558.4 574.296L1558.39 574.294L1558.38 574.292L1558.37 574.29L1558.37 574.288L1558.36 574.286L1558.35 574.284L1558.34 574.283L1558.34 574.281L1558.33 574.279L1558.32 574.277L1558.32 574.275L1558.31 574.273L1558.3 574.271L1558.29 574.269L1558.29 574.267L1558.28 574.265L1558.27 574.263L1558.26 574.261L1558.26 574.259L1558.25 574.258L1558.24 574.256L1558.24 574.254L1558.23 574.252L1558.22 574.25L1558.21 574.248L1558.21 574.246L1558.2 574.244L1558.19 574.242L1558.18 574.24L1558.18 574.238L1558.17 574.236L1558.16 574.234L1558.16 574.233L1558.15 574.231L1558.14 574.229L1558.13 574.227L1558.13 574.225L1558.12 574.223L1558.11 574.221L1558.1 574.219L1558.1 574.217L1558.09 574.215L1558.08 574.213L1558.08 574.211L1558.07 574.209L1558.06 574.207L1558.05 574.206L1558.05 574.204L1558.04 574.202L1558.03 574.2L1558.02 574.198L1558.02 574.196L1558.01 574.194L1558 574.192L1557.99 574.19L1557.99 574.188L1557.98 574.186L1557.97 574.184L1557.97 574.182L1557.96 574.181L1557.95 574.179L1557.94 574.177L1557.94 574.175L1557.93 574.173L1557.92 574.171L1557.91 574.169L1557.91 574.167L1557.9 574.165L1557.89 574.163L1557.89 574.161L1557.88 574.159L1557.87 574.157L1557.86 574.156L1557.86 574.154L1557.85 574.152L1557.84 574.15L1557.83 574.148L1557.83 574.146L1557.82 574.144L1557.81 574.142L1557.81 574.14L1557.8 574.138L1557.79 574.136L1557.78 574.134L1557.78 574.132L1557.77 574.131L1557.76 574.129L1557.75 574.127L1557.75 574.125L1557.74 574.123L1557.73 574.121L1557.73 574.119L1557.72 574.117L1557.71 574.115L1557.7 574.113L1557.7 574.111L1557.69 574.109L1557.68 574.107L1557.67 574.105L1557.67 574.104L1557.66 574.102L1557.65 574.1L1557.64 574.098L1557.64 574.096L1557.63 574.094L1557.62 574.092L1557.62 574.09L1557.61 574.088L1557.6 574.086L1557.59 574.084L1557.59 574.082L1557.58 574.08L1557.57 574.079L1557.56 574.077L1557.56 574.075L1557.55 574.073L1557.54 574.071L1557.54 574.069L1557.53 574.067L1557.52 574.065L1557.51 574.063L1557.51 574.061L1557.5 574.059L1557.49 574.057L1557.48 574.055L1557.48 574.054L1557.47 574.052L1557.46 574.05L1557.46 574.048L1557.45 574.046L1557.44 574.044L1557.43 574.042L1557.43 574.04L1557.42 574.038L1557.41 574.036L1557.4 574.034L1557.4 574.032L1557.39 574.03L1557.38 574.028L1557.37 574.027L1557.37 574.025L1557.36 574.023L1557.35 574.021L1557.35 574.019L1557.34 574.017L1557.33 574.015L1557.32 574.013L1557.32 574.011L1557.31 574.009L1557.3 574.007L1557.29 574.005L1557.29 574.003L1557.28 574.002L1557.27 574L1557.27 573.998L1557.26 573.996L1557.25 573.994L1557.24 573.992L1557.24 573.99L1557.23 573.988L1557.22 573.986L1557.21 573.984L1557.21 573.982L1557.2 573.98L1557.19 573.978L1557.19 573.977L1557.18 573.975L1557.17 573.973L1557.16 573.971L1557.16 573.969L1557.15 573.967L1557.14 573.965L1557.13 573.963L1557.13 573.961L1557.12 573.959L1557.11 573.957L1557.11 573.955L1557.1 573.953L1557.09 573.951L1557.08 573.95L1557.08 573.948L1557.07 573.946L1557.06 573.944L1557.05 573.942L1557.05 573.94L1557.04 573.938L1557.03 573.936L1557.02 573.934L1557.02 573.932L1557.01 573.93L1557 573.928L1557 573.926L1556.99 573.925L1556.98 573.923L1556.97 573.921L1556.97 573.919L1556.96 573.917L1556.95 573.915L1556.94 573.913L1556.94 573.911L1556.93 573.909L1556.92 573.907L1556.92 573.905L1556.91 573.903L1556.9 573.901L1556.89 573.9L1556.89 573.898L1556.88 573.896L1556.87 573.894L1556.86 573.892L1556.86 573.89L1556.85 573.888L1556.84 573.886L1556.84 573.884L1556.83 573.882L1556.82 573.88L1556.81 573.878L1556.81 573.876L1556.8 573.875L1556.79 573.873L1556.78 573.871L1556.78 573.869L1556.77 573.867L1556.76 573.865L1556.76 573.863L1556.75 573.861L1556.74 573.859L1556.73 573.857L1556.73 573.855L1556.72 573.853L1556.71 573.851L1556.7 573.849L1556.7 573.848L1556.69 573.846L1556.68 573.844L1556.67 573.842L1556.67 573.84L1556.66 573.838L1556.65 573.836L1556.65 573.834L1556.64 573.832L1556.63 573.83L1556.62 573.828L1556.62 573.826L1556.61 573.824L1556.6 573.823L1556.59 573.821L1556.59 573.819L1556.58 573.817L1556.57 573.815L1556.57 573.813L1556.56 573.811L1556.55 573.809L1556.54 573.807L1556.54 573.805L1556.53 573.803L1556.52 573.801L1556.51 573.799L1556.51 573.797L1556.5 573.796L1556.49 573.794L1556.49 573.792L1556.45 573.781L1556.4 573.777C1484.85 567.174 1413.91 560.734 1342.21 554.814C1330.6 553.81 1319.02 552.781 1307.46 551.753C1266.37 548.1 1225.58 544.473 1184.52 542.097C1145.55 539.764 1105.69 541.538 1066.53 549.285C988.929 564.266 922.298 608.194 867.15 684.771C844.91 715.05 825.494 747.516 805.944 780.645L805.943 780.647C775.933 831.985 748.114 885.361 726.558 943.291M1564.31 553.169L596.428 1226.19L596.848 1226.48C572.811 1265.04 542.107 1285.26 504.736 1287.01L504.733 1287.01C483.455 1287.92 462.903 1285.39 443.08 1279.43L443.069 1279.43C407.413 1267.85 372.374 1256.44 336.858 1244.17L336.854 1244.17C241.584 1210.36 143.628 1195.34 42.3997 1201.83M1564.31 553.169C1556.08 552.772 1547.92 552.731 1539.75 552.69L1539.74 552.69C1531.37 552.648 1522.99 552.605 1514.53 552.18L1514.52 552.179L1514.5 552.178L1514.49 552.177C1441.7 545.245 1368.9 538.313 1295.62 530.533M1564.31 553.169L1295.62 530.533M726.558 943.291C726.558 943.29 726.558 943.288 726.559 943.287L727.021 943.488L726.558 943.291ZM726.558 943.291C710.021 986.808 695.969 1032.02 682.004 1076.96C679.528 1084.93 677.054 1092.89 674.57 1100.83L674.57 1100.83C672.811 1106.47 671.064 1112.12 669.318 1117.77C658.673 1152.19 648.057 1186.51 634.794 1219.61C626.398 1240.51 617.535 1260.53 605.718 1279.04L605.717 1279.04C583.925 1313.63 556.847 1330.17 524.335 1329.48L524.327 1329.48C513.207 1329.43 501.748 1327.85 490.418 1325.58M490.418 1325.58C456.887 1318.62 424.803 1304.87 393.067 1291.27C388.52 1289.32 383.981 1287.38 379.446 1285.45C341.551 1268.95 303.485 1253.12 264.389 1242.08C191.198 1221.31 116.004 1213.03 39.4319 1217.4M490.418 1325.58C490.419 1325.58 490.42 1325.58 490.421 1325.58L490.343 1326.07M490.418 1325.58L490.343 1326.07M39.4319 1217.4C28.8931 1217.51 17.4501 1218.82 6.036 1220.13M39.4319 1217.4C39.4357 1217.4 39.4395 1217.4 39.4433 1217.4L39.4695 1217.91M39.4319 1217.4C39.4282 1217.4 39.4245 1217.4 39.4209 1217.4L39.4695 1217.91M6.036 1220.13L5.96493 1220.11L5.88475 1220.09L5.80458 1220.07L5.72442 1220.04L5.64428 1220.02L5.56415 1220L5.48404 1219.98L5.40394 1219.96L5.32385 1219.94L5.24378 1219.92L5.16372 1219.9L5.08367 1219.88L5.00364 1219.85L4.92362 1219.83L4.84361 1219.81L4.76362 1219.79L4.68364 1219.77L4.60367 1219.75L4.52372 1219.73L4.44378 1219.71L4.36386 1219.69L4.28394 1219.66L4.20404 1219.64L4.12415 1219.62L4.04428 1219.6L3.96442 1219.58L3.88457 1219.56L3.80473 1219.54L3.72491 1219.52L3.6451 1219.5L3.5653 1219.47L3.48551 1219.45L3.40574 1219.43L3.32598 1219.41L3.24623 1219.39L3.16649 1219.37L3.08676 1219.35L3.00705 1219.33L2.92735 1219.31L2.84766 1219.29L2.76799 1219.26L2.68832 1219.24L2.60867 1219.22L2.52903 1219.2L2.4494 1219.18L2.36978 1219.16L2.29018 1219.14L2.21058 1219.12L2.131 1219.1L2.05143 1219.08L1.97187 1219.05L1.89232 1219.03L1.81278 1219.01L1.73325 1218.99L1.65374 1218.97L1.57424 1218.95L1.49474 1218.93L1.41526 1218.91L1.33579 1218.89L1.25633 1218.87L1.17688 1218.84L1.09744 1218.82L1.01802 1218.8L0.938598 1218.78L0.859191 1218.76L0.779795 1218.74L0.700413 1218.72L0.621035 1218.7L0.541672 1218.68L0.46232 1218.66L0.382975 1218.63L0.303642 1218.61L0.224319 1218.59L0.145004 1218.57L0.0657001 1218.55L-0.0135929 1218.53L-0.0928749 1218.51L-0.172146 1218.49L-0.251409 1218.47L-0.330665 1218.45L-0.409907 1218.43L-0.489141 1218.4L-0.568367 1218.38L-0.647583 1218.36L-0.726787 1218.34L-0.805985 1218.32L-0.885171 1218.3L-0.964346 1218.28L-1.04351 1218.26L-1.12267 1218.24L-1.20182 1218.22L-1.28096 1218.2L-1.3601 1218.17L-1.43921 1218.15L-1.51833 1218.13L-1.59744 1218.11L-1.67653 1218.09L-1.75562 1218.07L-1.8347 1218.05L-1.91376 1218.03L-1.99282 1218.01L-2.07188 1217.99L-2.15092 1217.97L-2.22995 1217.95L-2.30898 1217.92L-2.388 1217.9L-2.46701 1217.88L-2.54601 1217.86L-2.62501 1217.84L-2.70399 1217.82L-2.78297 1217.8L-2.86194 1217.78L-2.9409 1217.76L-3.01986 1217.74L-3.0988 1217.72L-3.17774 1217.7L-3.25667 1217.67L-3.33559 1217.65L-3.41451 1217.63L-3.49341 1217.61L-3.57231 1217.59L-3.65121 1217.57L-3.73009 1217.55L-3.80897 1217.53L-3.88784 1217.51L-3.9667 1217.49L-4.04556 1217.47L-4.12441 1217.45L-4.20325 1217.42L-4.28208 1217.4L-4.36091 1217.38L-4.43973 1217.36L-4.51855 1217.34L-4.59735 1217.32L-4.67616 1217.3L-4.75495 1217.28L-4.83374 1217.26L-4.91252 1217.24L-4.99129 1217.22L-5.07006 1217.2L-5.14882 1217.17L-5.22758 1217.15L-5.30633 1217.13L-5.38507 1217.11L-5.4638 1217.09L-5.54253 1217.07L-5.62126 1217.05L-5.69998 1217.03L-5.77869 1217.01L-5.8574 1216.99L-5.9361 1216.97L-6.01479 1216.95L-6.09348 1216.93L-6.17216 1216.9L-6.25084 1216.88L-6.32951 1216.86L-6.40818 1216.84L-6.48684 1216.82L-6.5655 1216.8L-6.64415 1216.78L-6.72279 1216.76L-6.80143 1216.74L-6.88007 1216.72L-6.9587 1216.7L-7.03732 1216.68L-7.11594 1216.66L-7.19456 1216.63L-7.27316 1216.61L-7.35177 1216.59L-7.43037 1216.57L-7.50896 1216.55L-7.58755 1216.53L-7.66614 1216.51L-7.74472 1216.49L-7.8233 1216.47L-7.90187 1216.45L-7.98044 1216.43L-8.059 1216.41L-8.13756 1216.39L-8.21612 1216.37L-8.29467 1216.34L-8.37322 1216.32L-8.45176 1216.3L-8.5303 1216.28L-8.60883 1216.26L-8.68736 1216.24L-8.76589 1216.22L-8.84441 1216.2L-8.92293 1216.18L-9.00145 1216.16L-9.07996 1216.14L-9.15847 1216.12L-9.23698 1216.1L-9.31548 1216.08L-9.39398 1216.05L-9.47247 1216.03L-9.55096 1216.01L-9.62945 1215.99L-9.70794 1215.97L-9.78642 1215.95L-9.8649 1215.93L-9.94338 1215.91L-10.0219 1215.89L-10.1003 1215.87L-10.1788 1215.85L-10.2573 1215.83L-10.3357 1215.81L-10.4142 1215.79L-10.4926 1215.76L-10.5711 1215.74L-10.6495 1215.72L-10.728 1215.7L-10.8064 1215.68L-10.8849 1215.66L-10.9633 1215.64L-11.0418 1215.62L-11.1202 1215.6L-11.1986 1215.58L-11.2771 1215.56L-11.3555 1215.54L-11.4339 1215.52L-11.5124 1215.5L-11.5908 1215.47L-11.6692 1215.45L-11.7476 1215.43L-11.8261 1215.41L-11.9045 1215.39L-11.9829 1215.37L-12.0613 1215.35L-12.1397 1215.33L-12.2181 1215.31L-12.2965 1215.29L-12.375 1215.27L-12.4534 1215.25L-12.5318 1215.23L-12.6102 1215.21L-12.6886 1215.18L-12.767 1215.16L-12.8454 1215.14L-12.9238 1215.12L-13.0022 1215.1L-13.0806 1215.08L-13.159 1215.06L-13.2374 1215.04L-13.3158 1215.02L-13.3942 1215L-13.4726 1214.98L-13.551 1214.96L-13.6294 1214.94L-13.7078 1214.92L-13.7862 1214.9L-13.8646 1214.87L-13.943 1214.85L-14.0214 1214.83L-14.0998 1214.81L-14.1782 1214.79L-14.2566 1214.77L-14.335 1214.75L-14.4134 1214.73L-14.4918 1214.71L-14.5702 1214.69L-14.6486 1214.67L-14.727 1214.65L-14.8054 1214.63L-14.8838 1214.61L-14.9622 1214.58L-15.0406 1214.56L-15.119 1214.54L-15.1974 1214.52L-15.2758 1214.5L-15.3542 1214.48L-15.4326 1214.46L-15.511 1214.44L-15.5894 1214.42L-15.6678 1214.4L-15.7462 1214.38L-15.8246 1214.36L-15.903 1214.34L-15.9814 1214.32L-16.0598 1214.3L-16.1383 1214.27L-16.2167 1214.25L-16.2951 1214.23L-16.3735 1214.21L-16.4519 1214.19L-16.5304 1214.17L-16.6088 1214.15L-16.6872 1214.13L-16.7656 1214.11L-16.8441 1214.09L-16.9225 1214.07L-17.0009 1214.05L-17.0794 1214.03L-17.1578 1214.01L-17.2362 1213.98L-17.3147 1213.96L-17.3931 1213.94L-17.4716 1213.92L-17.55 1213.9L-17.6285 1213.88L-17.7069 1213.86L-17.7854 1213.84L-17.8638 1213.82L-17.9423 1213.8L-18.0208 1213.78L-18.0992 1213.76L-18.1777 1213.74L-18.2562 1213.72L-18.3347 1213.69L-18.4131 1213.67L-18.4916 1213.65L-18.5701 1213.63L-18.6486 1213.61L-18.7271 1213.59L-18.8056 1213.57L-18.8841 1213.55L-18.9626 1213.53L-19.0411 1213.51L-19.1196 1213.49L-19.1981 1213.47L-19.2766 1213.45L-19.3551 1213.43L-19.4337 1213.4L-19.5122 1213.38L-19.5907 1213.36L-19.6693 1213.34L-19.7478 1213.32L-19.8263 1213.3L-19.9049 1213.28L-19.9834 1213.26L-20.062 1213.24L-20.1406 1213.22L-20.2191 1213.2L-20.2977 1213.18L-20.3763 1213.16L-20.4548 1213.14L-20.5334 1213.11L-20.612 1213.09L-20.6906 1213.07L-20.7692 1213.05L-20.8478 1213.03L-20.9264 1213.01L-21.005 1212.99L-21.0836 1212.97L-21.1622 1212.95L-21.2409 1212.93L-21.3195 1212.91L-21.3981 1212.89L-21.4768 1212.87L-21.5554 1212.84L-21.6341 1212.82L-21.7127 1212.8L-21.7914 1212.78L-21.8701 1212.76L-21.9487 1212.74L-22.0274 1212.72L-22.1061 1212.7L-22.1848 1212.68L-22.2635 1212.66L-22.3422 1212.64L-22.4209 1212.62L-22.4996 1212.6L-22.5783 1212.57L-22.657 1212.55L-22.7358 1212.53L-22.8145 1212.51L-22.8932 1212.49L-22.972 1212.47L-23.0507 1212.45L-23.1295 1212.43L-23.2083 1212.41L-23.287 1212.39L-23.3658 1212.37L-23.4446 1212.35L-23.5234 1212.33L-23.6022 1212.3L-23.681 1212.28L-23.7598 1212.26L-23.8387 1212.24L-23.9175 1212.22L-23.9963 1212.2L-24.0752 1212.18L-24.154 1212.16L-24.2329 1212.14L-24.3117 1212.12L-24.3906 1212.1L-24.4695 1212.08L-24.5484 1212.05L-24.6272 1212.03L-24.7061 1212.01L-24.7851 1211.99L-24.864 1211.97L-24.9429 1211.95L-25.0218 1211.93L-25.1008 1211.91L-25.1797 1211.89L-25.2587 1211.87L-25.3376 1211.85L-25.4166 1211.83L-25.4956 1211.8L-25.5746 1211.78L-25.6536 1211.76L-25.7326 1211.74L-25.8116 1211.72L-25.8906 1211.7L-25.9696 1211.68L-26.0486 1211.66L-26.1277 1211.64L-26.2067 1211.62L-26.2858 1211.6L-26.3649 1211.58L-26.4439 1211.55L-26.523 1211.53L-26.6021 1211.51L-26.6812 1211.49L-26.7603 1211.47L-26.8395 1211.45L-26.9186 1211.43L-26.9977 1211.41L-27.0769 1211.39L-27.156 1211.37L-27.2352 1211.35L-27.3144 1211.32L-27.3936 1211.3L-27.4728 1211.28L-27.552 1211.26L-27.6312 1211.24L-27.7104 1211.22L-27.7897 1211.2L-27.8689 1211.18L-27.9482 1211.16L-28.0274 1211.14L-28.1067 1211.12L-28.186 1211.09L-28.2653 1211.07L-28.3446 1211.05L-28.4239 1211.03L-28.5032 1211.01L-28.5825 1210.99L-28.6619 1210.97L-28.7412 1210.95L-28.8206 1210.93L-28.9 1210.91L-28.9794 1210.89L-29.0588 1210.86L-29.1382 1210.84L-29.2176 1210.82L-29.297 1210.8L-29.3764 1210.78L-29.4559 1210.76L-29.5354 1210.74L-29.6148 1210.72L-29.6943 1210.7L-29.7738 1210.68L-29.8533 1210.65L-29.9328 1210.63L-30.0123 1210.61L-30.0919 1210.59L-30.1714 1210.57L-30.251 1210.55L-30.3306 1210.53L-30.4101 1210.51L-30.4897 1210.49L-30.5693 1210.47L-30.649 1210.44L-30.7286 1210.42L-30.8082 1210.4L-30.8879 1210.38L-30.9676 1210.36L-31.0472 1210.34L-31.1269 1210.32L-31.2066 1210.3L-31.2863 1210.28L-31.3661 1210.26L-31.4458 1210.23L-31.5255 1210.21L-31.6053 1210.19L-31.6851 1210.17L-31.7649 1210.15L-31.8447 1210.13L-31.9245 1210.11L-32.0043 1210.09L-32.0841 1210.07L-32.164 1210.04L-32.2438 1210.02L-32.3237 1210L-32.4036 1209.98L-32.4225 1209.98M6.036 1220.13L6.04513 1220.13L6.12535 1220.15L6.02111 1220.64M6.036 1220.13C6.00845 1220.13 5.98092 1220.13 5.95337 1220.14L5.94531 1220.14L6.02111 1220.64M-32.4225 1209.98L-30.1543 1209.4M-32.4225 1209.98L-32.4835 1209.96L-32.5634 1209.94L-32.6433 1209.92L-32.7233 1209.9L-32.8032 1209.88L-32.8832 1209.85L-32.9632 1209.83L-33.0432 1209.81L-33.1232 1209.79L-33.2032 1209.77L-33.2832 1209.75L-33.3633 1209.73L-33.4351 1209.71M-32.4225 1209.98L-33.4165 1210.23L6.02111 1220.64M-30.1543 1209.4C-20.4814 1208.48 -10.7784 1207.34 -1.08139 1206.2C13.4668 1204.5 28.0013 1202.8 42.3997 1201.83M-30.1543 1209.4C-30.1666 1209.4 -30.1789 1209.4 -30.1912 1209.4L-30.2579 1208.9M-30.1543 1209.4L-30.1187 1209.39L-30.2579 1208.9M42.3997 1201.83C42.3993 1201.83 42.3988 1201.83 42.3983 1201.83L42.3463 1201.33M42.3997 1201.83L42.3463 1201.33M1295.62 530.533L1295.65 530.03L1295.63 530.533C1295.63 530.533 1295.62 530.533 1295.62 530.533ZM42.3463 1201.33C27.9421 1202.29 13.3805 1204 -1.18121 1205.7C-10.889 1206.84 -20.5968 1207.98 -30.2579 1208.9M42.3463 1201.33C143.644 1194.83 241.667 1209.86 336.998 1243.69C372.509 1255.96 407.544 1267.37 443.2 1278.95C462.968 1284.89 483.466 1287.41 504.692 1286.51L-30.2579 1208.9M-30.2579 1208.9L-33.4351 1209.71M-30.2579 1208.9L-33.4351 1209.71M-33.4351 1209.71L675.042 1101C673.283 1106.64 671.537 1112.29 669.791 1117.93C659.147 1152.35 648.524 1186.7 635.253 1219.82C626.853 1240.72 617.977 1260.78 606.136 1279.33C584.28 1314.02 557.065 1330.68 524.346 1329.99C513.184 1329.93 501.69 1328.34 490.343 1326.07M6.02111 1220.64C17.4752 1219.33 28.9293 1218.02 39.4695 1217.91M39.4695 1217.91C115.992 1213.54 191.136 1221.81 264.277 1242.56C303.337 1253.59 341.376 1269.41 379.269 1285.92C383.803 1287.84 388.342 1289.78 392.889 1291.73C424.621 1305.33 456.757 1319.1 490.343 1326.07M857.283 659.252L857.683 659.566C857.683 659.566 857.684 659.566 857.684 659.565L857.283 659.252ZM1124.66 518.133L1124.68 518.638C1124.69 518.638 1124.69 518.638 1124.69 518.638L1124.66 518.133Z" stroke="#437ADB"/>
<path d="M654.246 1340.8C663.6 1314.67 670.856 1287.57 677.815 1260.68C693.134 1201.14 707.831 1141.44 723.151 1081.91C739.054 1019.63 757.777 959.552 784.92 903.137C818.091 833.864 856.134 769.488 901.723 712.885C952.795 649.058 1013.7 613.114 1080.15 597.418C1124.97 587.574 1169.44 585.583 1213.94 586.492C1282.64 588.006 1350.02 595.676 1417.55 602.662C1461.33 606.991 1504.33 611.84 1547.49 616.004C1548.73 616.333 1550.12 615.977 1551.66 614.938C1553.12 608.098 1554.72 600.574 1556.18 593.734C1554.79 594.089 1553.54 593.761 1552.3 593.432C1489.75 587.76 1427.96 581.568 1365.41 575.896C1310.47 571.511 1255.06 566.277 1199.83 563.26C1157.01 560.628 1113.64 563.632 1070.21 573.12C1000.5 588.679 939.015 627.359 886.592 694.441C864.035 723.167 844.153 754.767 824.894 786.53C792.295 840.783 762.517 897.224 740.099 959.221C720.676 1013.34 704.841 1069.13 689.006 1124.91C676.417 1168.55 663.683 1212.87 649.85 1256.19C640.469 1284.78 629.367 1312.19 613.247 1335.39C611.567 1337.69 609.876 1339.94 608.162 1342.13" stroke="#437ADB"/>
</g>
</svg>
