<svg width="16" height="16" viewBox="0 0 16 16" fill="none" xmlns="http://www.w3.org/2000/svg">
<path d="M8.67188 6.66602L13.5939 11.6113C14.1425 12.158 14.1425 13.0433 13.5939 13.5893C13.3303 13.8515 12.9736 13.9987 12.6019 13.9987C12.2301 13.9987 11.8735 13.8515 11.6099 13.5893L6.67188 8.66602" stroke="#5E6777" stroke-width="1.2" stroke-linecap="round" stroke-linejoin="round"/>
<path d="M4 6L6.66667 8.66667" stroke="#5E6777" stroke-width="1.2" stroke-linecap="round" stroke-linejoin="round"/>
<path d="M8.66667 6.66667L6 4" stroke="#5E6777" stroke-width="1.2" stroke-linecap="round" stroke-linejoin="round"/>
<path d="M2 14H6.66667" stroke="#5E6777" stroke-width="1.2" stroke-linecap="round" stroke-linejoin="round"/>
<path d="M4.52336 10.5292L2.13269 8.13855C2.00771 8.01353 1.9375 7.84399 1.9375 7.66722C1.9375 7.49044 2.00771 7.3209 2.13269 7.19588L3.66136 5.66722L3.99469 6.00055L5.99469 4.00055L5.66136 3.66722L7.19002 2.13855C7.31504 2.01357 7.48458 1.94336 7.66136 1.94336C7.83813 1.94336 8.00767 2.01357 8.13269 2.13855L10.5234 4.52922C10.6483 4.65424 10.7185 4.82377 10.7185 5.00055C10.7185 5.17733 10.6483 5.34686 10.5234 5.47188L8.99469 7.00055L8.66136 6.66722L6.66136 8.66722L6.99469 9.00055L5.46602 10.5292C5.34101 10.6542 5.17147 10.7244 4.99469 10.7244C4.81791 10.7244 4.64838 10.6542 4.52336 10.5292V10.5292Z" stroke="#5E6777" stroke-width="1.2" stroke-linecap="round" stroke-linejoin="round"/>
</svg>
