<svg width="755" height="561" viewBox="0 0 755 561" fill="none" xmlns="http://www.w3.org/2000/svg">
<g filter="url(#filter0_d_2625_6123)">
<g clip-path="url(#clip0_2625_6123)">
<rect x="36" y="36" width="675" height="481" rx="16" fill="#F4F4F5"/>
<path d="M233 321C233 317.686 235.686 315 239 315H722V556H233V321Z" fill="white"/>
<circle cx="269" cy="355" r="20" fill="#E4E6EA"/>
<rect x="313" y="335" width="160" height="16" rx="2" fill="#E4E6EA"/>
<rect x="313" y="363" width="278" height="16" rx="2" fill="#E4E6EA"/>
<rect x="313" y="391" width="418" height="16" rx="2" fill="#C8CDD4"/>
<circle cx="270" cy="459" r="20" fill="#E4E6EA"/>
<rect x="314" y="439" width="160" height="16" rx="2" fill="#E4E6EA"/>
<rect x="314" y="467" width="278" height="16" rx="2" fill="#E4E6EA"/>
<rect x="314" y="495" width="418" height="16" rx="2" fill="#C8CDD4"/>
<path d="M233 165C233 161.686 235.686 159 239 159H722V299H239C235.686 299 233 296.314 233 293V165Z" fill="white"/>
<path d="M249 183C249 180.791 250.791 179 253 179H441C443.209 179 445 180.791 445 183V203C445 205.209 443.209 207 441 207H253C250.791 207 249 205.209 249 203V183Z" fill="#E4E6EA"/>
<rect x="249" y="239" width="466" height="16" rx="2" fill="#E4E6EA"/>
<rect x="249" y="263" width="269" height="16" rx="2" fill="#C8CDD4"/>
<line x1="249" y1="222.5" x2="714" y2="222.5" stroke="#F1F2F4"/>
</g>
</g>
<rect x="239" y="74.4194" width="139.278" height="16" rx="2" fill="#C8CDD4"/>
<path d="M233 137C233 140.314 235.686 143 239 143H711V107H239C235.686 107 233 109.686 233 113V137Z" fill="white"/>
<g clip-path="url(#clip1_2625_6123)">
<path d="M251 123.667C251 124.28 251.121 124.886 251.355 125.453C251.59 126.019 251.933 126.533 252.367 126.966C252.8 127.4 253.315 127.744 253.881 127.978C254.447 128.213 255.054 128.333 255.667 128.333C256.28 128.333 256.886 128.213 257.453 127.978C258.019 127.744 258.533 127.4 258.966 126.966C259.4 126.533 259.744 126.019 259.978 125.453C260.213 124.886 260.333 124.28 260.333 123.667C260.333 123.054 260.213 122.447 259.978 121.881C259.744 121.315 259.4 120.8 258.966 120.367C258.533 119.933 258.019 119.59 257.453 119.355C256.886 119.121 256.28 119 255.667 119C255.054 119 254.447 119.121 253.881 119.355C253.315 119.59 252.8 119.933 252.367 120.367C251.933 120.8 251.59 121.315 251.355 121.881C251.121 122.447 251 123.054 251 123.667Z" stroke="#9099A8" stroke-width="1.33333" stroke-linecap="round" stroke-linejoin="round"/>
<path d="M263 131L259 127" stroke="#9099A8" stroke-width="1.33333" stroke-linecap="round" stroke-linejoin="round"/>
</g>
<path d="M273.64 127.04C273.64 128.8 274.904 130.08 277 130.08C279.096 130.08 280.36 128.8 280.36 127.36C280.36 123.76 275 125.04 275 122.56C275 121.744 275.8 120.96 277 120.96C278.04 120.96 278.84 121.744 278.84 122.88H280.12C280.12 121.2 278.744 119.84 277 119.84C275.08 119.84 273.72 121.2 273.72 122.56C273.72 126.16 279.08 124.88 279.08 127.36C279.08 128.256 278.36 128.96 277 128.96C275.64 128.96 274.92 128.256 274.92 127.04H273.64ZM286.682 128.08C286.442 128.416 285.866 128.96 284.922 128.96C283.786 128.96 282.842 128 282.762 126.96H288.042L288.074 126.784C288.09 126.672 288.122 126.528 288.122 126.32C288.122 124.144 286.602 122.72 284.842 122.72C283.098 122.72 281.482 124.24 281.482 126.4C281.482 128.56 283.002 130.08 284.922 130.08C286.522 130.08 287.482 129.12 287.962 128.08H286.682ZM282.762 125.92C282.938 124.72 283.802 123.84 284.842 123.84C285.882 123.84 286.746 124.72 286.922 125.92H282.762ZM294.288 130H295.168V125.2C295.168 123.856 294.048 122.72 292.448 122.72C290.848 122.72 289.904 123.68 289.728 124.88H291.008C291.184 124.24 291.552 123.84 292.448 123.84C293.344 123.84 293.968 124.48 293.968 125.2V125.6C290.368 125.6 289.408 126.56 289.408 127.92C289.408 129.12 290.368 130.08 291.808 130.08C292.528 130.08 293.056 129.888 293.424 129.648C293.632 129.52 293.808 129.376 293.968 129.2L294.288 130ZM293.968 127.28C293.968 128.08 293.088 128.96 291.808 128.96C291.088 128.96 290.608 128.496 290.608 128C290.608 127.2 291.088 126.72 293.968 126.72V127.28ZM297.165 130H298.365V125.92C298.365 124.704 299.149 123.92 300.285 123.92H300.605V122.72H300.445C299.757 122.72 299.261 122.928 298.893 123.168C298.685 123.296 298.509 123.44 298.365 123.6L298.045 122.8H297.165V130ZM306.762 127.44C306.506 128.24 305.786 128.96 304.842 128.96C303.722 128.96 302.682 127.936 302.682 126.4C302.682 124.864 303.722 123.84 304.842 123.84C305.786 123.84 306.506 124.56 306.762 125.36H307.962C307.626 123.904 306.442 122.72 304.842 122.72C302.986 122.72 301.482 124.24 301.482 126.4C301.482 128.56 302.986 130.08 304.842 130.08C306.442 130.08 307.626 128.896 307.962 127.44H306.762ZM309.558 130H310.758V125.84C310.758 124.624 311.542 123.84 312.678 123.84C313.622 123.84 314.438 124.64 314.438 125.84V130H315.638V125.84C315.638 124 314.358 122.72 312.838 122.72C312.15 122.72 311.654 122.96 311.286 123.2C311.078 123.344 310.902 123.504 310.758 123.68V119.92H309.558V130ZM317.154 129.04C317.154 129.6 317.634 130.08 318.194 130.08C318.754 130.08 319.234 129.6 319.234 129.04C319.234 128.48 318.754 128 318.194 128C317.634 128 317.154 128.48 317.154 129.04ZM320.357 129.04C320.357 129.6 320.837 130.08 321.397 130.08C321.957 130.08 322.437 129.6 322.437 129.04C322.437 128.48 321.957 128 321.397 128C320.837 128 320.357 128.48 320.357 129.04ZM323.56 129.04C323.56 129.6 324.04 130.08 324.6 130.08C325.16 130.08 325.64 129.6 325.64 129.04C325.64 128.48 325.16 128 324.6 128C324.04 128 323.56 128.48 323.56 129.04Z" fill="#77828D"/>
<path d="M36 52C36 43.1634 43.1634 36 52 36H209V517H52C43.1634 517 36 509.837 36 501V52Z" fill="#5E6777"/>
<defs>
<filter id="filter0_d_2625_6123" x="0" y="0" width="755" height="561" filterUnits="userSpaceOnUse" color-interpolation-filters="sRGB">
<feFlood flood-opacity="0" result="BackgroundImageFix"/>
<feColorMatrix in="SourceAlpha" type="matrix" values="0 0 0 0 0 0 0 0 0 0 0 0 0 0 0 0 0 0 127 0" result="hardAlpha"/>
<feOffset dx="4" dy="4"/>
<feGaussianBlur stdDeviation="20"/>
<feComposite in2="hardAlpha" operator="out"/>
<feColorMatrix type="matrix" values="0 0 0 0 0 0 0 0 0 0 0 0 0 0 0 0 0 0 0.12 0"/>
<feBlend mode="normal" in2="BackgroundImageFix" result="effect1_dropShadow_2625_6123"/>
<feBlend mode="normal" in="SourceGraphic" in2="effect1_dropShadow_2625_6123" result="shape"/>
</filter>
<clipPath id="clip0_2625_6123">
<rect x="36" y="36" width="675" height="481" rx="16" fill="white"/>
</clipPath>
<clipPath id="clip1_2625_6123">
<rect width="16" height="16" fill="white" transform="translate(249 117)"/>
</clipPath>
</defs>
</svg>
