<svg width="16" height="16" viewBox="0 0 16 16" fill="none" xmlns="http://www.w3.org/2000/svg">
<g clip-path="url(#clip0_17155_189969)">
<path d="M5.33366 2.6665H4.00033C3.26395 2.6665 2.66699 3.26346 2.66699 3.99984V4.6665C2.66699 5.40288 3.26395 5.99984 4.00033 5.99984H5.33366C6.07004 5.99984 6.66699 5.40288 6.66699 4.6665V3.99984C6.66699 3.26346 6.07004 2.6665 5.33366 2.6665Z" stroke="#5E6777" stroke-width="1.2" stroke-linecap="round" stroke-linejoin="round"/>
<path d="M5.33366 8.6665H4.00033C3.26395 8.6665 2.66699 9.26346 2.66699 9.99984V11.9998C2.66699 12.7362 3.26395 13.3332 4.00033 13.3332H5.33366C6.07004 13.3332 6.66699 12.7362 6.66699 11.9998V9.99984C6.66699 9.26346 6.07004 8.6665 5.33366 8.6665Z" stroke="#5E6777" stroke-width="1.2" stroke-linecap="round" stroke-linejoin="round"/>
<path d="M11.9997 2.6665H10.6663C9.92996 2.6665 9.33301 3.26346 9.33301 3.99984V5.99984C9.33301 6.73622 9.92996 7.33317 10.6663 7.33317H11.9997C12.7361 7.33317 13.333 6.73622 13.333 5.99984V3.99984C13.333 3.26346 12.7361 2.6665 11.9997 2.6665Z" stroke="#5E6777" stroke-width="1.2" stroke-linecap="round" stroke-linejoin="round"/>
<path d="M11.9997 10H10.6663C9.92996 10 9.33301 10.597 9.33301 11.3333V12C9.33301 12.7364 9.92996 13.3333 10.6663 13.3333H11.9997C12.7361 13.3333 13.333 12.7364 13.333 12V11.3333C13.333 10.597 12.7361 10 11.9997 10Z" stroke="#5E6777" stroke-width="1.2" stroke-linecap="round" stroke-linejoin="round"/>
</g>
<defs>
<clipPath id="clip0_17155_189969">
<rect width="16" height="16" fill="white"/>
</clipPath>
</defs>
</svg>
