<svg width="24" height="24" viewBox="0 0 24 24" fill="none" xmlns="http://www.w3.org/2000/svg">
<path d="M22.2177 14.3123L22.8712 6.47167C22.8972 6.15821 22.7899 5.84546 22.5769 5.61401C22.364 5.38256 22.0615 5.25 21.7469 5.25C21.165 5.25 20.6825 5.68654 20.6243 6.26587L19.9761 12.75H16.5C16.0864 12.75 15.75 13.0866 15.75 13.5V14.25C15.75 14.6378 16.047 14.9542 16.425 14.9924L15.8222 18.308C15.7852 18.5116 15.9203 18.7068 16.1241 18.7438C16.1468 18.7482 16.1693 18.75 16.1915 18.75C16.3693 18.75 16.5271 18.6233 16.5601 18.442L17.1859 15H20.8213L21.4472 18.442C21.4801 18.6233 21.638 18.75 21.8157 18.75C21.8379 18.75 21.8606 18.7482 21.8831 18.7438C22.0869 18.7068 22.2221 18.5116 22.1851 18.308L21.5817 14.9892C21.9183 14.9377 22.1888 14.66 22.2177 14.3123ZM16.5 13.5H20.3154C20.508 13.5 20.6693 13.3539 20.6885 13.1624L21.3706 6.34057C21.39 6.14647 21.5519 6 21.7469 6C21.8538 6 21.9527 6.0432 22.025 6.12195C22.0975 6.2007 22.1325 6.30285 22.1237 6.40943L21.4706 14.25H16.5L16.5 13.5ZM7.5 12.75H4.02394L3.37575 6.26587C3.31751 5.68654 2.83504 5.25 2.25311 5.25C1.93853 5.25 1.63605 5.38256 1.42309 5.61401C1.21013 5.84546 1.10284 6.15821 1.12883 6.47167L1.78234 14.3123C1.81125 14.66 2.0817 14.9376 2.41834 14.9892L1.81493 18.308C1.77795 18.5116 1.91306 18.7068 2.11688 18.7437C2.13956 18.7481 2.1621 18.75 2.18426 18.75C2.36205 18.75 2.51989 18.6233 2.55285 18.442L3.17869 15H6.81413L7.43993 18.442C7.47289 18.6233 7.63073 18.75 7.80851 18.75C7.83068 18.75 7.85336 18.7481 7.8759 18.7437C8.07971 18.7068 8.21483 18.5116 8.17785 18.308L7.57504 14.9924C7.95308 14.9541 8.25 14.6378 8.25 14.25V13.5C8.25 13.0865 7.91363 12.75 7.5 12.75ZM1.87628 6.40943C1.8675 6.30285 1.90245 6.2007 1.97498 6.12195C2.04731 6.0432 2.14616 6 2.25311 6C2.44811 6 2.61 6.14647 2.62939 6.34057L3.31144 13.1624C3.33068 13.3539 3.49196 13.5 3.6846 13.5H7.49996V14.25H2.52979L1.87628 6.40943Z" fill="#24282E"/>
<path d="M17.25 10.5C17.6636 10.5 18 10.1634 18 9.75V9C18 8.58656 17.6636 8.25 17.25 8.25H6.75C6.33637 8.25 6 8.58656 6 9V9.75C6 10.1634 6.33637 10.5 6.75 10.5H9.375V11.25C9.375 11.6634 9.71137 12 10.125 12H11.625V16.5H10.875C10.2546 16.5 9.75 17.0046 9.75 17.625V18.375C9.75 18.5823 9.91792 18.75 10.125 18.75H13.875C14.0821 18.75 14.25 18.5823 14.25 18.375V17.625C14.25 17.0046 13.7454 16.5 13.125 16.5H12.375V12H13.875C14.2886 12 14.625 11.6634 14.625 11.25V10.5H17.25ZM13.5 17.625V18H10.5V17.625C10.5 17.4181 10.6683 17.25 10.875 17.25H13.125C13.3317 17.25 13.5 17.4181 13.5 17.625ZM6.75 9H17.25L17.2506 9.75H6.75V9ZM13.8756 11.25H12.0003H10.125V10.5H13.8752L13.8756 11.25Z" fill="#24282E"/>
</svg>
