<svg width="280" height="280" viewBox="0 0 280 280" fill="none" xmlns="http://www.w3.org/2000/svg">
<path d="M235 77.8219C234.536 72.1 234.173 66.3808 232.182 60.9052C231.119 57.9833 229.33 55.8574 226.479 54.5974C222.685 52.9152 218.59 52.0209 214.441 51.9685C209.256 51.8959 204.071 51.6444 198.886 51.8233C197.287 51.8862 195.686 51.7583 194.118 51.4422C191.064 50.807 188.03 50.9781 184.976 51.4267C178.404 52.3937 171.84 53.5344 165.156 53.3037C163.043 53.2311 160.933 53.1274 158.812 53.1663C149.875 53.3296 140.944 53.4255 132.012 52.6633C127.377 52.2667 122.705 51.7922 118.041 52.1137C114.165 52.4 110.269 52.1979 106.444 51.5122C100.652 50.457 94.8112 51.297 88.9934 51.3955C81.7342 51.52 74.5475 52.6918 67.2882 52.8292C66.2952 52.8561 65.3071 52.9794 64.3379 53.1974C56.866 54.8307 50.3819 58.2556 45.0075 63.7674C42.6897 66.1448 40.1982 68.3096 38.7334 71.4234C36.5893 75.9889 35.3812 80.7386 35.3397 85.7734C35.2904 91.7364 34.8938 97.7253 35.9541 103.616C36.6582 107.61 36.913 111.672 36.7138 115.723C36.6005 117.492 36.6405 119.268 36.833 121.03C37.6964 127.758 38.2797 134.512 38.526 141.286C38.7101 146.432 39.1819 151.524 39.8638 156.616C41.2275 166.795 42.8167 176.952 42.6301 187.276C42.5601 191.113 43.2627 194.958 42.6301 198.787C42.2101 201.354 42.223 203.856 43.2393 206.285C43.4986 206.91 43.2756 207.356 42.8841 207.807C41.4919 209.412 40.8956 211.322 40.8619 213.41C40.8131 215.698 40.5528 217.977 40.0841 220.218C39.5363 222.798 39.3505 225.442 39.5319 228.073C39.6045 229.035 39.8145 229.201 40.7582 228.838C44.2917 227.516 47.3575 225.182 49.573 222.128C53.0627 217.376 56.9982 212.951 59.1967 207.351C60.2338 204.685 62.0901 202.458 63.8453 200.216C65.4742 198.114 67.8005 196.664 70.4045 196.127C72.5175 195.663 74.6745 195.528 76.8134 195.261C83.7642 194.393 90.7201 194.618 97.606 195.655C104.689 196.733 111.867 197.053 119.018 196.609C119.49 196.516 119.965 196.444 120.436 196.394C120.753 196.361 121.066 196.332 121.383 196.317C121.542 196.306 121.7 196.298 121.857 196.293C122.376 196.272 122.894 196.272 123.413 196.293H123.633C123.765 196.293 123.892 196.293 124.025 196.293L124.416 196.309L125.007 196.337C125.209 196.337 125.406 196.358 125.609 196.374L127.058 196.467C127.512 196.498 127.968 196.527 128.422 196.55C136.78 196.983 145.076 198.365 153.474 198.199C153.819 198.199 154.166 198.175 154.511 198.155C154.856 198.134 155.203 198.108 155.548 198.077L156.326 198.002L156.6 197.973L157.638 197.862L158.156 197.805C158.415 197.779 158.675 197.75 158.934 197.727L159.535 197.672L159.87 197.647C160.165 197.623 160.461 197.605 160.754 197.592C161.099 197.577 161.443 197.566 161.791 197.566C162.035 197.566 162.281 197.566 162.525 197.582C162.646 197.582 162.768 197.582 162.89 197.6C163.012 197.618 163.134 197.615 163.256 197.626L163.624 197.662C163.987 197.701 164.352 197.755 164.715 197.828C165.477 197.978 166.242 198.103 167.005 198.207C167.463 198.269 167.921 198.323 168.381 198.37L169.299 198.458L169.76 198.494L170.45 198.546L171.137 198.588C172.363 198.66 173.592 198.702 174.819 198.738L176.315 198.782L177.582 198.821L178.181 198.842C178.596 198.842 179.008 198.873 179.423 198.891C180.099 198.922 180.774 198.935 181.448 198.93C181.629 198.93 181.813 198.93 181.995 198.93C182.405 198.93 182.814 198.914 183.224 198.883L183.46 198.87L183.913 198.842L184.173 198.821C185.037 198.754 185.906 198.656 186.781 198.528C186.999 198.497 187.216 198.466 187.432 198.442C187.867 198.388 188.3 198.347 188.728 198.313L189.384 198.269C189.816 198.243 190.248 198.225 190.68 198.214H191.269H191.541C191.979 198.214 192.42 198.214 192.863 198.214C193.658 198.226 194.454 198.246 195.251 198.274L196.371 198.308L197.652 198.344H198.295H198.935C200.556 198.351 202.177 198.265 203.788 198.085L204.932 197.955C205.629 197.872 206.326 197.781 207.021 197.696L207.669 197.613C208.176 197.545 208.681 197.482 209.186 197.424C209.482 197.387 209.775 197.354 210.07 197.322H210.176L210.604 197.278C210.92 197.245 211.237 197.216 211.553 197.188C211.869 197.159 212.186 197.136 212.502 197.118C213.135 197.076 213.77 197.048 214.405 197.04C214.827 197.04 215.247 197.027 215.665 197.001H215.924C216.515 196.97 217.103 196.922 217.687 196.858L218.009 196.822C218.162 196.807 218.315 196.788 218.467 196.768C218.68 196.739 218.89 196.711 219.103 196.677C219.263 196.654 219.422 196.628 219.582 196.599L219.826 196.558C219.976 196.532 220.124 196.506 220.272 196.475C220.42 196.444 220.586 196.415 220.744 196.381C221.153 196.296 221.558 196.202 221.965 196.101C222.1 196.07 222.237 196.034 222.372 195.998C223.236 195.768 224.092 195.496 224.939 195.184L225.032 195.15C225.203 195.088 225.372 195.023 225.537 194.953L225.797 194.849C226.015 194.756 226.227 194.66 226.44 194.556C226.924 194.324 227.395 194.064 227.85 193.778L228.06 193.641L228.26 193.501C228.325 193.454 228.389 193.408 228.452 193.358C228.566 193.273 228.675 193.182 228.781 193.099C228.887 193.016 228.965 192.933 229.053 192.84C229.367 192.539 229.644 192.2 229.875 191.831L229.968 191.676C230.01 191.606 230.049 191.536 230.085 191.463C230.121 191.391 230.176 191.279 230.217 191.186C230.259 191.092 230.287 191.025 230.318 190.942C230.398 190.733 230.463 190.518 230.513 190.299C230.513 190.263 230.531 190.224 230.539 190.185C230.549 190.147 230.557 190.108 230.562 190.068C230.562 189.998 230.588 189.928 230.598 189.858C230.609 189.788 230.619 189.716 230.627 189.643C230.635 189.571 230.627 189.519 230.645 189.457C230.663 189.394 230.645 189.288 230.66 189.197C230.676 189.107 230.66 189.101 230.66 189.055C230.66 188.912 230.66 188.764 230.66 188.614C230.344 180.53 231.179 172.483 231.529 164.42C231.682 160.948 231.788 157.474 231.788 153.998C231.788 153.46 231.788 152.923 231.788 152.388C231.788 151.852 231.781 151.312 231.768 150.77C231.768 150.321 231.749 149.873 231.739 149.422C231.739 149.199 231.739 148.976 231.721 148.753C231.703 148.53 231.721 148.307 231.7 148.084C231.7 147.991 231.7 147.9 231.7 147.806C231.672 146.998 231.633 146.191 231.596 145.382C231.563 144.747 231.542 144.112 231.529 143.474C231.516 142.836 231.508 142.178 231.508 141.54C231.508 141.143 231.508 140.762 231.508 140.353C231.508 140.117 231.508 139.876 231.508 139.637V139.165C231.527 138.336 231.55 137.503 231.576 136.669C231.576 136.472 231.589 136.275 231.594 136.078C231.615 135.486 231.635 134.898 231.653 134.307C231.672 133.716 231.692 133.145 231.71 132.565C231.729 131.984 231.744 131.403 231.757 130.822L231.773 130.107C231.472 123.459 232.854 116.96 233.587 110.403C234.814 99.5556 235.885 88.7341 235 77.8219ZM231.259 86.4475C231.15 94.4508 229.836 102.35 229.4 110.323C229.04 116.916 228.56 123.506 228.76 130.122C228.822 132.163 229.076 134.271 228.283 136.249C228.323 136.304 228.359 136.363 228.389 136.425C228.404 136.454 228.417 136.483 228.428 136.513C228.441 136.542 228.451 136.571 228.459 136.601C228.47 136.631 228.477 136.661 228.483 136.692C228.491 136.721 228.496 136.75 228.498 136.78C228.52 136.953 228.512 137.128 228.475 137.299C228.452 137.413 228.42 137.527 228.387 137.641C228.371 137.698 228.353 137.755 228.337 137.809C228.322 137.864 228.301 137.936 228.286 138.001C228.273 138.045 228.262 138.089 228.255 138.133C228.252 138.144 228.252 138.154 228.255 138.165C228.242 138.215 228.233 138.266 228.226 138.318C227.859 140.754 227.702 143.217 227.759 145.681C227.964 151.698 226.862 157.658 226.958 163.658C227.088 171.739 226.826 179.815 226.878 187.893C226.878 188.057 226.878 188.209 226.878 188.355C226.878 188.5 226.878 188.567 226.865 188.666V188.793L226.849 188.935L226.834 189.057C226.82 189.167 226.799 189.276 226.772 189.384C226.772 189.436 226.743 189.485 226.728 189.534C226.687 189.669 226.627 189.797 226.551 189.915L226.494 189.998C226.483 190.019 226.469 190.037 226.453 190.053L226.414 190.099C226.385 190.131 226.357 190.162 226.326 190.19C226.296 190.221 226.264 190.249 226.23 190.276C226.196 190.304 226.16 190.33 226.123 190.356C226.094 190.38 226.063 190.401 226.03 190.418L225.942 190.47C225.763 190.574 225.575 190.661 225.379 190.729L225.273 190.766C225.128 190.814 224.97 190.861 224.799 190.906L224.734 190.924L224.666 190.939L224.055 191.09C223.697 191.175 223.339 191.253 222.979 191.328C222.439 191.439 221.898 191.545 221.356 191.647L219.728 191.953C219.178 192.057 218.628 192.166 218.081 192.285L217.876 192.329L217.456 192.417C217.161 192.482 216.865 192.542 216.57 192.599C216.067 192.697 215.561 192.791 215.058 192.879L213.923 193.068C213.548 193.127 213.169 193.184 212.787 193.239L212.027 193.345L210.975 193.48L210.812 193.498C210.153 193.576 209.492 193.649 208.833 193.711C208.478 193.745 208.123 193.778 207.768 193.807L206.85 193.879L206.163 193.929L205.326 193.981H205.134C204.792 194.001 204.447 194.017 204.097 194.035C203.179 194.079 202.261 194.108 201.343 194.128C200.885 194.128 200.426 194.147 199.964 194.152C198.728 194.162 197.491 194.162 196.252 194.152C195.453 194.152 194.657 194.121 193.859 194.095C193.366 194.079 192.871 194.071 192.381 194.071H191.572C191.313 194.071 191.035 194.071 190.766 194.092L190.141 194.118L189.897 194.131C189.513 194.149 189.119 194.175 188.746 194.206C188.487 194.227 188.228 194.248 187.968 194.274C187.621 194.307 187.273 194.344 186.931 194.385C186.765 194.406 186.599 194.424 186.436 194.447C186.013 194.502 185.591 194.561 185.168 194.629C184.93 194.665 184.694 194.704 184.455 194.745C183.281 194.944 182.092 195.041 180.901 195.036H180.445C180.133 195.036 179.822 195.02 179.511 195.002C179.356 195.002 179.2 194.987 179.042 194.974C178.796 194.955 178.549 194.937 178.303 194.914L177.562 194.836L176.823 194.743L176.449 194.691L175.708 194.577C175.462 194.538 175.213 194.497 174.966 194.452C174.418 194.357 173.865 194.291 173.31 194.253C173.03 194.229 172.752 194.214 172.472 194.198L171.637 194.154C169.776 194.058 167.909 194.012 166.048 193.924L165.509 193.898C165.218 193.898 164.925 193.867 164.635 193.848C164.303 193.828 163.969 193.804 163.637 193.778C163.305 193.752 163.009 193.737 162.698 193.727C162.255 193.708 161.812 193.706 161.371 193.727H161.337C161.047 193.727 160.754 193.742 160.461 193.755C160.168 193.768 159.888 193.786 159.603 193.807H159.582C159.305 193.828 159.025 193.851 158.747 193.879L158.268 193.929C158.047 193.952 157.829 193.978 157.609 194.007L156.956 194.092C156.665 194.131 156.372 194.175 156.082 194.219L155.32 194.336L154.775 194.427C152.268 194.844 149.849 194.427 147.423 193.882L147.023 193.799C146.902 193.771 146.78 193.747 146.655 193.727C146.531 193.706 146.396 193.68 146.285 193.659L145.973 193.607C145.763 193.574 145.556 193.542 145.349 193.517L145.045 193.478C145.026 193.476 145.007 193.476 144.988 193.478L144.537 193.408L144.376 193.389L144.068 193.364L143.845 193.343L143.396 193.309C142.95 193.275 142.502 193.255 142.053 193.239L141.198 193.216C140.633 193.216 140.07 193.216 139.505 193.216H138.805L137.449 193.234C136.088 193.234 134.727 193.234 133.368 193.234C131.17 193.211 128.961 193.218 126.77 193.234H123.597H121.956H120.719C118.422 193.216 116.13 193.167 113.841 193.05C113.345 193.024 112.851 192.995 112.36 192.964L111.619 192.912C105.742 192.492 99.8849 192.822 94.0282 192.539C93.7197 192.524 93.4138 192.503 93.1079 192.474C92.8019 192.446 92.496 192.409 92.1901 192.368C91.8842 192.327 91.5834 192.282 91.2801 192.236C90.0667 192.041 88.8586 191.8 87.6504 191.621C87.3471 191.575 87.0438 191.533 86.7379 191.497C83.0434 191.064 79.419 191.741 75.7764 192.127L74.1664 192.293C72.5564 192.456 70.9438 192.627 69.3519 192.902C68.5194 193.046 67.7024 193.269 66.9123 193.568C66.653 193.664 66.3938 193.771 66.1579 193.882L65.7923 194.053C65.3128 194.287 64.8463 194.547 64.3949 194.831C63.273 195.563 62.2349 196.416 61.2993 197.374C60.4284 198.262 59.6111 199.202 58.8519 200.187C57.1253 202.405 55.7635 204.883 54.8179 207.529C54.6658 207.955 54.5033 208.374 54.3304 208.787C54.2164 209.064 54.0971 209.337 53.9753 209.609C53.8534 209.881 53.729 210.148 53.5993 210.415C53.5345 210.55 53.4697 210.674 53.4023 210.814C53.2701 211.074 53.143 211.333 52.9953 211.592C52.8475 211.851 52.7127 212.111 52.5675 212.37C52.4223 212.629 52.2745 212.888 52.1216 213.148C51.8174 213.654 51.5037 214.154 51.1804 214.649C50.8564 215.144 50.5219 215.631 50.1797 216.116C49.3242 217.324 48.4193 218.499 47.4834 219.66C47.2427 219.96 46.9829 220.244 46.7056 220.511C46.5682 220.645 46.4256 220.77 46.2779 220.902C46.0583 221.092 45.8276 221.274 45.5856 221.447C44.9913 221.87 44.3626 222.243 43.706 222.561C43.916 219.769 44.5616 217.311 45.0282 214.825C45.4845 212.438 45.2682 209.972 44.4034 207.701C44.3274 207.536 44.3006 207.353 44.3264 207.174C44.3522 206.994 44.4293 206.826 44.5486 206.689C45.5233 205.232 46.2122 203.603 46.5786 201.888C46.6175 201.694 46.6538 201.499 46.6823 201.302C46.7264 201.017 46.7601 200.724 46.7834 200.428C46.7847 200.413 46.7847 200.397 46.7834 200.382C46.799 200.19 46.8067 199.995 46.8145 199.801V199.785C46.8145 199.613 46.8145 199.44 46.8145 199.267C46.7938 198.087 46.7782 196.91 46.7601 195.733C46.7497 195.142 46.7385 194.551 46.7264 193.96C46.6227 188.653 46.4101 183.351 45.5908 178.083C45.4897 177.435 45.4093 176.786 45.3523 176.12C45.3523 176.029 45.3367 175.939 45.3316 175.861C45.3186 175.718 45.3082 175.573 45.303 175.431C45.2641 174.811 45.2512 174.191 45.2693 173.577C45.3004 172.361 45.2849 171.15 45.2356 169.947C45.2356 169.688 45.2123 169.429 45.1967 169.169C45.176 168.809 45.1527 168.451 45.1267 168.091C45.1267 168.003 45.1267 167.917 45.1086 167.832C45.0697 167.331 45.0282 166.828 44.9816 166.328C44.9504 166.012 44.9219 165.698 44.8882 165.382C44.8882 165.317 44.8882 165.249 44.8675 165.185C44.8053 164.586 44.7379 163.989 44.6679 163.391C44.6679 163.315 44.6497 163.243 44.6393 163.168C44.5045 162.027 44.3567 160.884 44.2116 159.743C44.0664 158.602 43.9212 157.461 43.7864 156.318C43.3975 152.973 43.0034 149.632 42.6041 146.292C42.3328 144.021 42.0623 141.751 41.7927 139.482C41.663 138.41 41.5351 137.338 41.409 136.267C41.409 136.225 41.409 136.181 41.396 136.137C41.3753 135.922 41.3753 135.706 41.396 135.492C41.956 130.325 41.1367 125.243 40.4704 120.154C40.1956 118.08 40.3512 116.006 40.6156 113.952C40.9838 111.072 40.7167 108.23 40.4341 105.384C40.3849 104.878 40.333 104.375 40.2864 103.867C40.2553 103.53 40.2241 103.193 40.1956 102.856C40.0738 101.389 39.9027 99.9238 39.7264 98.4486C39.6927 98.1556 39.6564 97.8627 39.6201 97.5671C39.5501 96.9812 39.4775 96.3952 39.4127 95.8093C39.379 95.5138 39.3453 95.2208 39.3141 94.9278C39.2493 94.3419 39.1923 93.756 39.1379 93.1675C38.9014 90.8138 38.8632 88.4445 39.0238 86.0845C38.977 85.1463 38.9848 84.2062 39.0471 83.2689C39.3427 78.7293 40.8956 74.5397 43.4545 70.7026C45.5079 67.6226 48.8341 65.7533 51.4345 63.1841C53.6408 60.9985 56.3164 59.6478 59.2797 58.8985C62.9949 57.96 66.7179 57.1148 70.573 56.8244C78.6619 56.1918 86.7353 55.3778 94.863 55.4607C95.4593 55.4607 96.0738 55.3804 96.6441 55.6604C97.1186 55.6811 97.5956 55.7044 98.0701 55.7304H98.1245L99.0682 55.7848L100.038 55.8418L101.007 55.8963C103.085 56.0389 105.17 56.0389 107.248 55.8963C109.84 55.6759 112.433 55.5411 115.002 55.9585C121.31 56.9955 127.693 56.2748 133.993 56.8607C140.011 57.43 146.057 57.6412 152.1 57.4933C156.212 57.381 160.316 57.1701 164.412 56.8607C168.745 56.5306 173.066 56.0873 177.375 55.5307C183.673 54.7145 190.044 54.6327 196.36 55.287C200.428 55.7044 204.556 55.5255 208.655 55.7018C213.355 55.9041 218.027 56.2904 222.623 57.457C225.994 58.3178 228.006 60.1482 228.923 63.6456C230.904 71.1252 231.371 78.7319 231.259 86.4475Z" fill="#5E6777"/>
<path d="M114.753 117.979C104.562 127.895 94.0747 137.48 82.9888 146.396C82.6595 146.655 82.3588 146.959 81.9777 147.303C85.2573 148.522 88.3114 149.699 91.9047 149.403C98.228 148.885 104.593 148.885 110.937 148.626C112.083 148.579 112.687 148.973 112.97 150.109C113.436 151.988 113.986 153.852 114.567 155.701C114.932 156.867 114.512 157.469 113.421 157.871C101.658 162.25 89.4889 165.448 77.0932 167.419C74.1947 167.87 71.2936 168.327 68.4184 168.9C67.3166 169.117 67.1817 168.581 67.0962 167.79C67.0184 167.1 66.6632 166.447 67.9051 166.268C77.8597 164.868 87.7273 162.907 97.4606 160.393C102.127 159.17 106.607 157.316 111.201 155.864C111.668 155.719 111.777 155.462 111.634 154.996C111.318 153.959 111.022 152.921 110.766 151.884C110.582 151.143 110.035 151.296 109.537 151.311C103.833 151.516 98.1295 151.612 92.4414 151.975C89.3303 152.175 86.3643 151.991 83.4892 150.679C82.1592 150.072 80.7254 149.707 79.341 149.206C77.6247 148.584 77.4484 147.565 78.8666 146.399C85.5658 140.876 92.2547 135.346 98.6947 129.513C103.595 125.072 108.287 120.421 113.11 115.897C113.854 115.202 113.48 114.556 113.384 113.893C113.068 111.702 113.027 111.679 111.222 112.856C102.285 118.741 93.004 124.056 83.668 129.287C82.6103 129.879 81.7366 129.995 80.6736 129.339C79.5043 128.616 78.2288 128.064 77.0129 127.413C75.618 126.669 75.4832 125.951 76.528 124.787C83.8962 116.589 91.4743 108.599 99.9417 101.503C100.753 100.823 102.14 100.206 102.104 99.317C102.073 98.5885 100.725 97.9118 99.9547 97.2196C99.3792 96.7011 98.6973 96.263 98.228 95.6641C97.2817 94.4533 96.5506 94.8552 95.5473 95.6641C87.2692 102.265 79.258 109.179 71.4543 116.332C70.0206 117.647 69.7847 117.629 68.294 116.407C66.9977 115.339 65.7273 114.222 64.3766 113.219C63.3758 112.474 63.2099 111.702 63.6584 110.546C66.9484 102.063 70.534 93.7196 74.8688 85.7215C75.2525 85.0085 75.6466 84.2981 76.0432 83.5904L76.6032 82.4574L76.9688 81.7185L76.2377 81.3089L68.4962 76.9689L66.3703 81.6978C66.32 81.8005 66.2758 81.9061 66.238 82.0141C66.1343 82.2733 66.028 82.5481 65.9192 82.8126C63.8217 87.8759 60.7029 92.3663 57.908 97.0407C55.6914 100.748 54.0606 104.751 52.2043 108.637C51.6703 109.752 50.978 110.284 49.7466 110.333C48.064 110.4 46.3762 110.592 44.7117 110.753C43.6151 110.857 42.9903 110.455 42.8814 109.296C42.2056 102.21 41.5185 95.1179 40.8203 88.0211C40.7939 87.8496 40.7817 87.6761 40.784 87.5026C40.8566 86.2063 40.2836 85.7215 39.0262 86.0533C38.9794 85.1152 38.9872 84.175 39.0495 83.2378L39.8558 83.1833L40.7943 83.1211H40.9654L42.4692 83.0278L42.3836 83.3985C42.9851 83.7381 43.0992 84.3111 43.1614 84.9359C43.7784 91.5038 44.4024 98.0717 45.0332 104.64C45.1343 105.71 44.9269 107.103 45.5155 107.751C46.231 108.541 47.6154 107.673 48.7121 107.751C49.4899 107.81 49.8736 107.46 50.1666 106.779C53.1817 99.7941 57.0162 93.2607 61.0555 86.8337C61.9758 85.3663 62.611 83.7226 63.3888 81.983L63.4666 81.8144C63.521 81.6952 63.578 81.5759 63.6351 81.4541L67.3503 73.3704L79.4525 79.927C79.6733 80.0462 79.8557 80.2258 79.9783 80.4448C80.1009 80.6638 80.1586 80.9131 80.1447 81.1637C80.1326 81.3444 80.0841 81.5208 80.0021 81.6822L78.9106 83.8237C78.4734 84.7363 78.0136 85.6368 77.5314 86.5252C76.961 87.5907 76.3673 88.6433 75.7684 89.6933C71.9962 96.3174 69.4425 103.47 66.5051 110.46C66.2303 111.113 66.3729 111.466 66.9069 111.847C67.5942 112.296 68.2312 112.818 68.8073 113.403C69.6032 114.287 70.1425 114.009 70.8814 113.312C78.8329 105.866 87.2147 98.9411 95.708 92.1122C96.6803 91.3344 97.4166 91.3967 98.3006 92.2055C100.411 94.1215 102.578 95.9752 104.712 97.8678C106.047 99.0526 106.063 99.6385 104.712 100.777C99.0084 105.612 93.4292 110.587 88.244 115.98C85.4284 118.904 82.7114 121.924 79.9192 124.872C79.3851 125.437 79.4473 125.632 80.0903 126.073C81.4203 126.977 82.5169 126.889 83.9454 126.096C93.6469 120.714 103.131 114.963 112.438 108.949C114.346 107.717 115.031 108.041 115.438 110.315C115.645 111.505 115.697 112.739 116.07 113.877C116.646 115.669 115.995 116.773 114.753 117.979Z" fill="white"/>
<path d="M228.926 63.6092C228.008 60.1118 226.007 58.2815 222.626 57.4207C218.03 56.2541 213.358 55.8652 208.657 55.6655C204.558 55.4892 200.431 55.6655 196.363 55.2507C190.047 54.5964 183.675 54.6782 177.378 55.4944C173.057 56.051 168.736 56.4943 164.415 56.8244C160.317 57.1373 156.212 57.3481 152.102 57.457C146.06 57.6049 140.013 57.3937 133.996 56.8244C127.696 56.2385 121.313 56.9463 115.005 55.9222C112.443 55.5048 109.843 55.6396 107.25 55.86C105.173 56.0026 103.088 56.0026 101.01 55.86L100.04 55.8055L99.0707 55.7485L98.127 55.6941H98.0726C97.5982 55.6681 97.1211 55.6422 96.6441 55.6215C97.7174 60.5292 97.4841 65.4889 97.2015 70.4433C97.0952 72.3307 96.81 74.2155 96.5326 76.09C96.25 78.0111 95.7548 79.8804 94.7178 81.5552C94.8033 81.5552 94.8889 81.5552 94.977 81.5552C95.0652 81.5552 95.1222 81.5422 95.1922 81.5318L95.4074 81.4955L95.6148 81.4463C95.7522 81.41 95.8896 81.3685 96.0244 81.3192L96.4237 81.1663L96.8204 80.9978L97.217 80.8292L97.3674 80.767L97.5178 80.71C97.567 80.6892 97.6163 80.6737 97.6682 80.6555L97.8211 80.6037C97.8885 80.5803 97.9585 80.5596 98.0285 80.5415C98.3941 80.4403 98.7622 80.347 99.133 80.2563C99.3922 80.1915 99.667 80.1292 99.9367 80.0696C100.782 79.8778 101.632 79.7118 102.485 79.5511L103.608 79.3463L104.45 79.1959C105.293 79.0455 106.138 78.8952 106.978 78.7344L107.546 78.6178L108.109 78.4855L108.233 78.457L108.352 78.4285L108.578 78.3766L108.783 78.33L108.972 78.2911L109.125 78.2626H109.148L109.229 78.2496L109.324 78.2366H109.415C109.559 78.2189 109.704 78.226 109.846 78.2574C109.87 78.2619 109.893 78.2688 109.916 78.2781L109.991 78.3066L110.035 78.3274L110.105 78.3689C110.166 78.4106 110.223 78.4593 110.273 78.5141L110.351 78.6074C110.38 78.643 110.407 78.6802 110.432 78.7189L110.496 78.82C110.543 78.9003 110.592 78.9885 110.644 79.0792L110.73 79.2529L110.82 79.4474C110.893 79.6029 110.971 79.7741 111.056 79.9659C114.481 87.6011 117.146 95.5059 119.394 103.558C121.093 109.725 122.452 115.98 123.465 122.295C124.436 128.286 124.814 134.358 124.592 140.423L126.718 140.57L127.716 140.638L129.041 140.721L129.744 140.762L130.54 140.806C130.822 140.822 131.102 140.837 131.385 140.848L131.958 140.874L132.953 140.913C133.493 140.933 134.03 140.949 134.566 140.959H134.996C135.315 140.959 135.634 140.959 135.953 140.959C136.809 140.959 137.664 140.951 138.52 140.936C139.017 140.936 139.513 140.902 140.008 140.876C140.503 140.85 140.993 140.811 141.486 140.767C141.978 140.723 142.466 140.669 142.956 140.607C145.399 140.309 147.8 139.731 150.111 138.885C150.243 138.836 150.37 138.789 150.505 138.745C150.754 138.662 151.003 138.59 151.252 138.527C151.542 138.45 151.833 138.385 152.123 138.33C152.382 138.284 152.623 138.242 152.875 138.211C153.945 138.079 155.023 138.035 156.1 138.079C156.945 138.105 157.791 138.167 158.636 138.234C160.368 138.372 162.092 138.566 163.821 138.781L165.542 139.004L166.528 139.134L167.762 139.303L168.996 139.476L171.306 139.811L171.622 139.857L176.234 140.544L176.395 140.568L176.745 140.62C178.845 140.933 180.945 141.26 183.048 141.574C183.943 141.708 184.839 141.84 185.736 141.968C186.947 142.141 188.155 142.331 189.366 142.512L190.846 142.727L191.007 142.748L192.008 142.883C192.63 142.962 193.253 143.034 193.877 143.098C194.242 143.134 194.611 143.168 194.979 143.197C199.495 143.56 203.967 143.796 208.525 142.761L209.222 142.593L209.93 142.429C210.945 142.194 211.955 141.95 212.961 141.698L213.715 141.506C214.397 141.333 215.077 141.156 215.753 140.97C216.51 140.767 217.266 140.555 218.019 140.332C218.333 140.241 218.649 140.148 218.963 140.052L219.054 140.023L219.938 139.748L220.482 139.577L221.027 139.401C221.498 139.246 221.968 139.084 222.434 138.916L223.36 138.566C224.127 138.266 224.885 137.942 225.634 137.597C226.083 137.389 226.528 137.172 226.969 136.946C227.189 136.834 227.41 136.718 227.627 136.601L228.281 136.241C229.074 134.25 228.82 132.155 228.758 130.114C228.558 123.498 229.038 116.908 229.398 110.315C229.834 102.343 231.148 94.4429 231.257 86.4396C231.371 78.7318 230.904 71.1252 228.926 63.6092ZM145.808 68.7374C154.643 68.0789 163.486 68.1774 172.33 68.377C180.312 68.5559 188.292 68.7529 196.275 68.8955C197.265 68.9137 197.478 69.2144 197.481 70.1607C197.481 71.1978 197.001 71.2133 196.215 71.1848C187.808 70.8633 179.395 70.6663 170.476 70.6092C162.602 70.1866 154.239 70.4744 145.878 70.9696C145.144 71.0137 144.726 70.9696 144.641 70.0233C144.548 68.9992 144.89 68.8048 145.808 68.7374ZM196.363 115.458C192.044 115.422 187.727 115.44 183.4 115.44C176.063 115.471 168.726 115.63 161.405 116.218C157.347 116.545 153.295 116.003 149.238 115.928C148.029 115.904 146.821 115.788 145.608 115.811C144.796 115.824 144.54 115.552 144.641 114.753C144.729 114.043 144.641 113.457 145.748 113.53C149.022 113.75 152.307 113.789 155.582 113.991C160.432 114.276 165.242 113.67 170.069 113.447C178.829 113.045 187.595 113.128 196.361 113.187C197.33 113.187 197.452 113.548 197.46 114.385C197.468 115.223 197.195 115.466 196.363 115.458ZM196.288 101.067C188.899 101.049 181.51 100.694 174.134 100.561C164.762 100.39 155.385 100.507 146.01 100.499C144.734 100.499 144.314 99.8926 144.682 98.6844C144.853 98.127 145.263 98.2618 145.621 98.2618C154.132 98.2618 162.644 98.2618 172.584 98.2618C179.584 98.6222 187.999 98.7492 196.42 98.8763C197.457 98.8944 197.426 99.3455 197.478 100.113C197.538 101.111 196.991 101.07 196.288 101.067ZM197.468 85.1978C197.325 85.7552 196.905 85.6489 196.547 85.6696C189.519 86.0715 182.493 86.5511 175.444 86.0896C174.025 85.9963 172.592 86.0741 171.168 86.0741C171.168 86.03 171.168 85.9833 171.168 85.9366C166.942 86.1389 162.714 86.3852 158.485 86.5303C154.117 86.6807 149.782 86.03 145.426 85.8563C144.739 85.8303 144.493 85.5322 144.649 84.8789C144.786 84.3318 144.462 83.5229 145.595 83.6292C147.915 83.8496 150.262 83.9222 152.572 84.1478C156.059 84.4347 159.564 84.4286 163.051 84.1296C167.659 83.762 172.286 83.6962 176.903 83.9326C183.304 84.3059 189.679 83.8678 196.06 83.4529C197.346 83.3622 197.787 83.9507 197.468 85.1978Z" fill="#9099A8"/>
<path d="M197.48 70.1583C197.48 71.1953 197.001 71.2109 196.215 71.1823C187.807 70.8609 179.394 70.6638 170.476 70.6068C162.602 70.1842 154.239 70.472 145.878 70.9672C145.144 71.0112 144.727 70.9672 144.641 70.0209C144.548 68.9995 144.9 68.805 145.808 68.7376C154.643 68.0791 163.486 68.1776 172.33 68.3773C180.312 68.5561 188.292 68.7532 196.275 68.8958C197.265 68.9113 197.478 69.2224 197.48 70.1583Z" fill="white"/>
<path d="M197.467 85.1979C197.324 85.7553 196.904 85.649 196.546 85.6698C189.518 86.0716 182.492 86.5512 175.443 86.0898C174.025 85.9964 172.591 86.0742 171.168 86.0742C171.168 86.0301 171.168 85.9835 171.168 85.9368C166.942 86.139 162.713 86.3853 158.485 86.5305C154.116 86.6809 149.782 86.0301 145.426 85.8565C144.739 85.8305 144.493 85.5324 144.648 84.8791C144.786 84.3321 144.462 83.5232 145.595 83.6295C147.915 83.8498 150.261 83.9224 152.571 84.148C156.059 84.4349 159.564 84.4288 163.05 84.1298C167.659 83.7622 172.286 83.6964 176.903 83.9328C183.304 84.3061 189.679 83.868 196.059 83.4532C197.345 83.3625 197.786 83.9509 197.467 85.1979Z" fill="white"/>
<path d="M196.288 101.067C188.899 101.049 181.51 100.694 174.134 100.562C164.762 100.39 155.384 100.507 146.009 100.499C144.734 100.499 144.314 99.8927 144.682 98.6846C144.853 98.1272 145.263 98.262 145.62 98.262C154.132 98.262 162.643 98.262 172.583 98.262C179.583 98.6224 187.999 98.7494 196.42 98.8764C197.457 98.8946 197.426 99.3457 197.478 100.113C197.537 101.111 196.99 101.07 196.288 101.067Z" fill="white"/>
<path d="M197.473 114.383C197.473 115.256 197.195 115.466 196.363 115.459C192.044 115.422 187.727 115.44 183.4 115.44C176.063 115.472 168.726 115.63 161.404 116.218C157.347 116.545 153.295 116.003 149.237 115.928C148.029 115.905 146.821 115.788 145.608 115.811C144.796 115.824 144.539 115.552 144.641 114.753C144.729 114.043 144.641 113.457 145.748 113.53C149.022 113.75 152.307 113.789 155.581 113.991C160.432 114.276 165.241 113.67 170.069 113.447C178.829 113.045 187.595 113.128 196.36 113.188C197.343 113.19 197.465 113.556 197.473 114.383Z" fill="white"/>
<path d="M45.5881 221.446C44.9951 221.872 44.3662 222.246 43.7085 222.564C44.3651 222.244 44.9939 221.871 45.5881 221.446Z" fill="#2D01F6"/>
<path d="M66.8887 193.576C66.6295 193.674 66.3702 193.778 66.1343 193.89C66.3909 193.778 66.6424 193.667 66.8887 193.576Z" fill="#2D01F6"/>
<path d="M87.6296 191.629C87.3262 191.585 87.0229 191.543 86.717 191.507C83.0225 191.072 79.3981 191.751 75.7555 192.137L74.1455 192.3L75.7555 192.134C79.3851 191.748 83.0148 191.072 86.717 191.504C87.0307 191.541 87.334 191.593 87.6296 191.629Z" fill="#2D01F6"/>
<path d="M112.355 192.972L111.614 192.923C105.736 192.503 99.8822 192.832 94.0229 192.55C93.7144 192.534 93.4085 192.511 93.1025 192.482C93.4085 192.511 93.7144 192.532 94.0229 192.547C99.8796 192.829 105.736 192.501 111.614 192.92L112.355 192.972Z" fill="#2D01F6"/>
<path d="M119.021 196.604C122.156 195.977 125.298 196.389 128.435 196.55C136.793 196.983 145.09 198.364 153.487 198.198C157.233 198.121 161.006 197.094 164.716 197.828C169.595 198.792 174.513 198.665 179.423 198.891C181.883 199.005 184.348 198.882 186.784 198.523C190.828 197.931 194.891 198.31 198.946 198.351C204.146 198.403 209.228 197.081 214.416 197.014C218.003 196.997 221.562 196.365 224.936 195.147C225.951 194.782 226.924 194.308 227.837 193.734C229.722 192.531 230.741 190.911 230.65 188.57C230.334 180.486 231.169 172.438 231.519 164.376C231.799 158.042 231.877 151.695 231.558 145.338C231.299 140.264 231.667 135.157 231.757 130.063C235.363 130.709 238.929 131.558 242.439 132.606C243.201 132.837 243.372 133.166 243.287 133.884C242.141 143.394 241.511 152.945 240.917 162.504C240.614 167.373 240.375 172.241 240.448 177.123C240.468 178.115 240.635 179.099 240.943 180.043C242.999 186.524 243.924 193.21 244.71 199.948C245.083 203.161 243.738 205.134 241.474 206.878C240.383 207.724 239.206 208.47 238.324 209.557C238.065 209.883 237.821 209.878 237.435 209.761C233.406 208.546 229.276 208.626 225.126 208.771C220.119 208.945 215.141 209.406 210.164 209.912C206.775 210.257 203.382 210.563 200.006 211.016C197.056 211.416 194.149 210.941 191.227 210.809C184.121 210.487 177.321 208.374 170.354 207.213C166.899 206.64 163.411 206.435 159.922 206.318C150.814 206.026 141.701 205.989 132.591 206.031C128.274 206.05 123.96 205.791 119.677 205.253C118.713 205.131 118.287 204.807 118.381 203.796C118.64 201.406 118.342 198.963 119.021 196.604Z" fill="#A1BAED"/>
<path d="M228.506 136.782C228.503 136.753 228.498 136.723 228.49 136.694C228.485 136.663 228.477 136.633 228.467 136.604C228.459 136.573 228.448 136.544 228.436 136.515C228.425 136.485 228.412 136.456 228.397 136.427C228.366 136.366 228.331 136.307 228.291 136.251C228.073 136.374 227.855 136.493 227.637 136.609C227.42 136.725 227.199 136.842 226.979 136.954C226.538 137.18 226.093 137.397 225.644 137.604C224.897 137.95 224.139 138.273 223.37 138.574L222.444 138.924C221.978 139.095 221.511 139.256 221.039 139.411C220.858 139.471 220.676 139.531 220.492 139.585C220.017 139.741 219.541 139.889 219.064 140.031L218.973 140.059C218.659 140.155 218.343 140.249 218.029 140.339C217.274 140.562 216.519 140.775 215.763 140.977C215.087 141.164 214.407 141.34 213.726 141.514C213.466 141.581 213.223 141.646 212.971 141.706C211.965 141.96 210.955 142.204 209.94 142.437L209.222 142.592L208.515 142.756C203.959 143.793 199.487 143.554 194.971 143.191C194.603 143.162 194.235 143.128 193.866 143.09C193.241 143.028 192.618 142.956 191.997 142.875C191.663 142.834 191.328 142.787 190.996 142.74L190.836 142.719L189.355 142.504C188.142 142.323 186.934 142.134 185.726 141.96C184.829 141.832 183.932 141.701 183.037 141.566C180.935 141.252 178.835 140.925 176.735 140.612L176.385 140.56L176.224 140.536L171.63 139.857L171.314 139.811L168.993 139.481L167.759 139.308L166.525 139.142L165.54 139.009L163.818 138.786C162.094 138.571 160.37 138.379 158.633 138.242C157.788 138.175 156.94 138.112 156.098 138.084C155.021 138.04 153.942 138.084 152.872 138.216C152.613 138.247 152.369 138.289 152.121 138.335C151.83 138.39 151.54 138.455 151.25 138.532C151.001 138.595 150.752 138.667 150.503 138.75C150.371 138.794 150.244 138.841 150.109 138.89C147.794 139.741 145.388 140.322 142.94 140.622C142.45 140.684 141.963 140.739 141.47 140.783C140.978 140.827 140.485 140.866 139.992 140.892C139.5 140.918 139.002 140.941 138.504 140.954C137.646 140.977 136.793 140.985 135.938 140.975C135.619 140.975 135.3 140.975 134.981 140.975H134.551C134.013 140.964 133.476 140.949 132.938 140.928L131.943 140.889C131.751 140.889 131.561 140.874 131.37 140.863C131.087 140.863 130.807 140.837 130.524 140.822L129.728 140.778C129.052 140.739 128.378 140.697 127.701 140.653L126.703 140.586L124.577 140.441C124.429 141.478 124.86 142.393 125.306 143.277C128.157 148.981 129.653 155.019 129.454 161.365C129.223 168.591 130.833 175.55 131.989 182.583C132.573 186.133 133.247 189.669 133.368 193.278C134.727 193.278 136.088 193.278 137.449 193.278L138.808 193.262H139.505C140.07 193.262 140.633 193.262 141.198 193.262L142.054 193.286C142.502 193.301 142.951 193.322 143.397 193.356L143.845 193.389L144.068 193.41L144.377 193.436L144.537 193.454L144.968 193.503C144.987 193.502 145.006 193.502 145.025 193.503L145.328 193.542C145.535 193.568 145.743 193.599 145.953 193.633L146.264 193.685C146.388 193.706 146.523 193.726 146.635 193.752C146.746 193.778 146.881 193.796 147.003 193.825L147.402 193.908C149.824 194.447 152.248 194.87 154.755 194.452L155.299 194.361L156.061 194.245C156.352 194.201 156.645 194.157 156.935 194.118L157.588 194.032C157.809 194.004 158.027 193.978 158.247 193.954L158.727 193.905C159.004 193.877 159.284 193.853 159.561 193.833H159.582C159.867 193.812 160.152 193.794 160.44 193.781C160.728 193.768 161.026 193.757 161.317 193.752H161.35C161.791 193.752 162.234 193.752 162.678 193.752C162.989 193.752 163.302 193.783 163.616 193.807C163.93 193.83 164.282 193.853 164.614 193.874C164.905 193.892 165.198 193.91 165.488 193.923L166.027 193.949C167.889 194.037 169.755 194.084 171.617 194.18L172.452 194.224C172.732 194.24 173.009 194.255 173.289 194.278C173.844 194.323 174.399 194.382 174.946 194.478C175.205 194.522 175.441 194.564 175.687 194.603L176.429 194.717L176.802 194.768L177.541 194.862L178.282 194.94C178.542 194.963 178.775 194.981 179.021 194.999C179.179 195.012 179.335 195.02 179.491 195.028C179.802 195.046 180.113 195.056 180.424 195.061H180.88C182.071 195.067 183.26 194.97 184.435 194.771C184.673 194.73 184.909 194.691 185.148 194.654C185.57 194.587 185.993 194.527 186.415 194.473C186.579 194.45 186.745 194.431 186.911 194.411C187.258 194.369 187.605 194.333 187.948 194.299C188.207 194.273 188.466 194.253 188.725 194.232C189.109 194.201 189.503 194.175 189.876 194.157L190.12 194.144L190.745 194.118C191.004 194.118 191.282 194.1 191.551 194.097H192.36C192.85 194.097 193.345 194.097 193.838 194.12C194.636 194.146 195.432 194.164 196.231 194.177C197.47 194.198 198.708 194.198 199.943 194.177C200.405 194.177 200.864 194.177 201.323 194.154C202.24 194.133 203.158 194.105 204.076 194.061C204.418 194.043 204.763 194.027 205.113 194.006H205.305L206.142 193.954L206.829 193.905L207.747 193.833C208.102 193.804 208.457 193.77 208.813 193.737C209.475 193.674 210.134 193.604 210.791 193.524L210.954 193.506L212.007 193.371L212.766 193.265C213.148 193.209 213.527 193.152 213.902 193.094L215.037 192.904C215.54 192.816 216.046 192.723 216.549 192.624C216.844 192.567 217.14 192.508 217.436 192.443L217.856 192.355L218.06 192.313C218.607 192.194 219.157 192.085 219.707 191.979L221.335 191.673C221.877 191.572 222.419 191.468 222.958 191.354C223.318 191.279 223.676 191.201 224.034 191.116C224.239 191.069 224.443 191.02 224.646 190.968L224.713 190.95L224.778 190.931C224.951 190.888 225.109 190.842 225.252 190.791L225.359 190.755C225.554 190.687 225.742 190.6 225.921 190.496L226.009 190.444C226.042 190.426 226.074 190.406 226.103 190.382C226.139 190.356 226.175 190.33 226.209 190.301C226.243 190.275 226.275 190.246 226.305 190.216C226.336 190.187 226.364 190.156 226.393 190.125L226.432 190.078C226.449 190.063 226.463 190.044 226.473 190.024L226.53 189.941C226.607 189.823 226.666 189.695 226.707 189.56C226.722 189.511 226.738 189.461 226.751 189.41C226.778 189.302 226.799 189.193 226.813 189.083L226.829 188.961L226.844 188.818V188.691C226.844 188.593 226.844 188.489 226.857 188.38C226.87 188.271 226.857 188.082 226.857 187.919C226.805 179.84 227.067 171.764 226.937 163.683C226.841 157.684 227.943 151.724 227.739 145.706C227.682 143.243 227.838 140.779 228.205 138.343C228.212 138.292 228.221 138.241 228.234 138.19C228.231 138.18 228.231 138.169 228.234 138.159C228.242 138.114 228.252 138.07 228.265 138.027C228.28 137.962 228.299 137.9 228.317 137.835C228.335 137.77 228.35 137.724 228.366 137.666C228.4 137.552 228.431 137.438 228.454 137.324C228.503 137.148 228.521 136.965 228.506 136.782ZM166.284 172.757C163.432 172.757 161.392 170.683 161.444 167.811C161.488 165.182 164.267 162.734 167.199 162.737C170.066 162.737 171.765 164.482 171.736 167.404C171.708 170.201 169.11 172.757 166.281 172.757H166.284ZM181.928 172.801C179.141 172.884 176.61 170.561 176.501 167.816C176.4 165.309 178.835 162.861 181.559 162.755C184.51 162.636 186.286 164.51 186.402 167.865C186.498 170.688 184.658 172.718 181.925 172.801H181.928ZM196.283 172.752C193.322 172.752 191.429 170.795 191.442 167.735C191.455 164.884 193.371 162.742 195.925 162.737C198.777 162.737 201.333 165.4 201.336 168.402C201.336 170.994 199.298 172.75 196.28 172.752H196.283Z" fill="#A1BAED"/>
<path d="M171.734 167.393C171.708 170.201 169.11 172.757 166.289 172.757C163.468 172.757 161.397 170.683 161.446 167.811C161.493 165.182 164.27 162.734 167.204 162.737C170.074 162.742 171.76 164.482 171.734 167.393Z" fill="white"/>
<path d="M186.408 167.865C186.506 170.688 184.663 172.718 181.933 172.791C179.146 172.874 176.616 170.551 176.507 167.805C176.406 165.296 178.84 162.851 181.565 162.742C184.507 162.636 186.283 164.51 186.408 167.865Z" fill="white"/>
<path d="M201.333 168.401C201.333 170.994 199.298 172.749 196.281 172.752C193.32 172.752 191.428 170.794 191.44 167.735C191.44 164.883 193.367 162.742 195.923 162.737C198.785 162.732 201.331 165.407 201.333 168.401Z" fill="white"/>
<path d="M133.368 193.254C131.17 193.231 128.961 193.239 126.77 193.254H123.597H121.956H120.719C118.422 193.236 116.13 193.187 113.841 193.07C113.345 193.044 112.852 193.016 112.361 192.985L111.619 192.933C105.742 192.513 99.885 192.842 94.0284 192.559C93.7198 192.544 93.4139 192.523 93.108 192.495C92.8021 192.466 92.4961 192.43 92.1902 192.388C91.8843 192.347 91.5835 192.303 91.2802 192.256C90.0669 192.062 88.8587 191.821 87.6506 191.642C87.3472 191.595 87.0439 191.553 86.738 191.517C83.0435 191.084 79.4191 191.761 75.7765 192.147L74.1665 192.313C72.5564 192.476 70.9438 192.648 69.352 192.922C68.5194 193.066 67.7025 193.289 66.9123 193.589C66.6531 193.685 66.3938 193.791 66.1579 193.902L65.7923 194.073C65.3128 194.307 64.8463 194.567 64.3949 194.851C63.273 195.583 62.2349 196.436 61.2994 197.395C60.429 198.276 59.6118 199.208 58.852 200.187C57.1253 202.404 55.7635 204.883 54.8179 207.529C54.6658 207.954 54.5033 208.373 54.3305 208.786C54.2164 209.064 54.0971 209.336 53.9753 209.608C53.8534 209.881 53.729 210.148 53.5993 210.415C53.5345 210.549 53.4697 210.674 53.4023 210.814C53.2701 211.073 53.143 211.332 52.9953 211.592C52.8475 211.851 52.7127 212.11 52.5675 212.369C52.4223 212.629 52.2745 212.888 52.1216 213.147C51.8174 213.654 51.5037 214.154 51.1805 214.648C50.8564 215.143 50.5219 215.631 50.1797 216.116C49.3241 217.324 48.4193 218.498 47.4834 219.66C47.2427 219.96 46.9829 220.244 46.7056 220.51C46.5682 220.645 46.4256 220.769 46.2778 220.902C46.0583 221.092 45.8276 221.273 45.5856 221.446C44.9913 221.869 44.3625 222.242 43.706 222.561C43.916 219.769 44.5615 217.311 45.0282 214.825C45.4845 212.438 45.2681 209.971 44.4034 207.7C44.3274 207.536 44.3006 207.353 44.3264 207.173C44.3521 206.994 44.4293 206.826 44.5486 206.689C45.5233 205.232 46.2122 203.602 46.5786 201.888C46.6175 201.693 46.6538 201.499 46.6823 201.302C46.7264 201.014 46.7627 200.723 46.7834 200.428C46.7847 200.412 46.7847 200.397 46.7834 200.381C46.799 200.189 46.8093 199.995 46.8145 199.801V199.785C46.8145 199.614 46.8145 199.44 46.8145 199.266C46.7972 198.086 46.7782 196.907 46.7575 195.73C46.7471 195.139 46.7359 194.548 46.7238 193.957C46.6201 188.65 46.4075 183.348 45.5882 178.08C45.4871 177.432 45.4067 176.783 45.3497 176.117C45.3497 176.026 45.3341 175.936 45.3289 175.858C45.316 175.715 45.3056 175.57 45.3004 175.428C45.2615 174.811 45.2512 174.191 45.2693 173.576C45.3004 172.361 45.2849 171.15 45.233 169.947C45.233 169.688 45.2097 169.428 45.1941 169.169C45.1734 168.809 45.1501 168.451 45.1241 168.091C45.1241 168.002 45.1241 167.917 45.106 167.831C45.0671 167.331 45.0256 166.828 44.9789 166.328C44.9478 166.011 44.9193 165.698 44.8856 165.381C44.8856 165.316 44.8856 165.249 44.8649 165.184C44.8027 164.585 44.7352 163.989 44.6652 163.39C44.6652 163.315 44.6471 163.242 44.6367 163.167C44.5019 162.026 44.3541 160.883 44.2089 159.742C44.0638 158.602 43.9186 157.458 43.7864 156.318C43.3957 152.973 43.0008 149.631 42.6015 146.292C42.3302 144.021 42.0597 141.751 41.79 139.481L41.4089 136.266L41.3934 136.137C41.3727 135.922 41.3727 135.706 41.3934 135.491C41.9534 130.324 41.1341 125.243 40.4678 120.153C40.193 118.079 40.3486 116.005 40.613 113.952C40.9812 111.072 40.7141 108.23 40.4315 105.383C40.3823 104.878 40.3304 104.375 40.2837 103.867C40.2526 103.53 40.2215 103.193 40.193 102.856C40.0712 101.388 39.9 99.9235 39.7237 98.4483C39.69 98.1553 39.6537 97.8624 39.6174 97.5668C39.5466 96.9809 39.4774 96.395 39.41 95.809C39.3763 95.5135 39.3426 95.2205 39.3115 94.9276C39.2467 94.3416 39.1897 93.7557 39.1352 93.1672C38.8988 90.8136 38.8606 88.4442 39.0211 86.0842C40.2786 85.7524 40.8515 86.245 40.7789 87.5335C40.7767 87.707 40.7888 87.8805 40.8152 88.052C41.5066 95.1384 42.1936 102.23 42.8763 109.327C42.9852 110.486 43.6101 110.882 44.7067 110.784C46.3841 110.623 48.059 110.431 49.7416 110.364C50.973 110.315 51.6653 109.783 52.1993 108.668C54.0608 104.779 55.6916 100.779 57.9031 97.0716C60.6979 92.405 63.8168 87.9068 65.9142 82.8435C66.0231 82.5842 66.1294 82.325 66.2331 82.045C66.2709 81.937 66.315 81.8314 66.3653 81.7287C66.4158 81.6043 66.5034 81.4986 66.6161 81.4258C66.7288 81.3529 66.8612 81.3166 66.9953 81.3216C69.715 81.2594 72.4398 81.1013 75.1542 81.1168C75.5237 81.0999 75.8915 81.1747 76.225 81.3346L76.9561 81.7442L76.6035 82.4442L76.0435 83.5772C75.6468 84.285 75.2527 84.9953 74.869 85.7083C70.5342 93.7065 66.9486 102.042 63.6586 110.532C63.2101 111.689 63.376 112.461 64.3768 113.205C65.7275 114.209 66.9927 115.326 68.2942 116.394C69.785 117.618 70.0209 117.633 71.4546 116.319C79.2583 109.166 87.2695 102.252 95.5476 95.6509C96.551 94.8472 97.2821 94.4453 98.2284 95.6509C98.6976 96.255 99.3795 96.6879 99.9551 97.2065C100.733 97.8987 102.073 98.5753 102.104 99.3039C102.141 100.201 100.754 100.81 99.9421 101.489C91.4747 108.585 83.8965 116.576 76.5283 124.773C75.4913 125.938 75.6183 126.656 77.0131 127.4C78.229 128.051 79.5046 128.603 80.6739 129.326C81.7368 129.982 82.6105 129.865 83.6683 129.274C93.0017 124.042 102.286 118.725 111.233 112.848C113.048 111.663 113.079 111.686 113.395 113.885C113.491 114.548 113.864 115.181 113.12 115.889C108.301 120.413 103.605 125.064 98.7054 129.505C92.2654 135.338 85.5765 140.868 78.8772 146.391C77.459 147.557 77.6353 148.576 79.3517 149.198C80.7283 149.699 82.162 150.064 83.4998 150.671C86.375 151.98 89.3332 152.164 92.4521 151.967C98.1428 151.604 103.86 151.508 109.548 151.303C110.045 151.288 110.585 151.135 110.777 151.876C111.036 152.913 111.329 153.951 111.645 154.988C111.788 155.454 111.679 155.711 111.212 155.856C106.61 157.308 102.138 159.162 97.4713 160.385C87.7379 162.899 77.8703 164.86 67.9157 166.26C66.6738 166.439 67.029 167.092 67.1068 167.782C67.1924 168.573 67.3272 169.109 68.429 168.892C71.3042 168.319 74.2053 167.855 77.1039 167.411C89.4996 165.44 101.669 162.242 113.431 157.863C114.523 157.461 114.943 156.859 114.577 155.693C113.997 153.844 113.447 151.98 112.98 150.101C112.698 148.965 112.094 148.571 110.948 148.618C104.604 148.877 98.2439 148.877 91.9154 149.395C88.322 149.691 85.268 148.514 81.9883 147.295C82.3694 146.951 82.6702 146.65 82.9994 146.388C94.0854 137.472 104.572 127.887 114.764 117.971C116.006 116.765 116.657 115.661 116.094 113.913C115.728 112.775 115.669 111.541 115.461 110.351C115.062 108.077 114.37 107.758 112.462 108.985C103.144 114.999 93.6706 120.75 83.9691 126.132C82.5406 126.925 81.4439 127.013 80.1139 126.109C79.4709 125.668 79.4087 125.473 79.9428 124.908C82.735 121.961 85.452 118.945 88.2676 116.016C93.4528 110.623 99.0295 105.645 104.736 100.813C106.081 99.6746 106.066 99.0887 104.736 97.9039C102.602 96.0113 100.435 94.1576 98.3243 92.2416C97.435 91.4328 96.6987 91.3653 95.7317 92.1483C87.2513 98.9772 78.8565 105.902 70.905 113.348C70.1583 114.045 69.6087 114.323 68.8309 113.439C68.2548 112.854 67.6177 112.332 66.9305 111.883C66.3964 111.502 66.2538 111.149 66.5286 110.496C69.4661 103.496 72.0198 96.3535 75.792 89.7294C76.3909 88.6794 76.9846 87.6268 77.555 86.5613C78.0337 85.6729 78.4935 84.7724 78.9342 83.8598L80.0257 81.7183C80.1077 81.5569 80.1562 81.3805 80.1683 81.1998C80.2171 81.151 80.2772 81.115 80.3432 81.0951C80.4093 81.0752 80.4792 81.072 80.5468 81.0857C83.6994 81.345 86.9609 80.9172 89.8802 82.6102C90.0154 82.6775 90.1633 82.7158 90.3142 82.7225C90.4652 82.7292 90.6158 82.7042 90.7565 82.6491C92.0865 82.3016 93.4113 81.9335 94.7387 81.5757C94.8243 81.5757 94.9099 81.5757 94.998 81.5757C95.0702 81.5732 95.1421 81.5654 95.2132 81.5524C95.2855 81.5443 95.3574 81.5322 95.4284 81.5161C95.4984 81.5037 95.5676 81.4872 95.6358 81.4668C95.7732 81.4305 95.9106 81.389 96.0454 81.3398C96.1802 81.2905 96.3047 81.2413 96.4447 81.1868L96.8413 81.0183L97.238 80.8498L97.3884 80.7876L97.5387 80.7305C97.588 80.7098 97.6373 80.6942 97.6891 80.6761L97.8421 80.6242C97.9095 80.6009 97.9795 80.5802 98.0495 80.562C98.415 80.4609 98.7832 80.3676 99.1539 80.2768C99.4132 80.212 99.688 80.1498 99.9576 80.0902C100.803 79.8983 101.653 79.7324 102.506 79.5716L103.629 79.3668L104.471 79.2165C105.315 79.0695 106.157 78.9157 106.999 78.755L107.567 78.6383L108.13 78.5087L108.254 78.4776L108.373 78.449L108.599 78.3972L108.804 78.3505L108.993 78.3116L109.146 78.2831H109.148L109.229 78.2702L109.325 78.2572H109.415C109.559 78.2395 109.705 78.2465 109.846 78.2779C109.87 78.2824 109.893 78.2894 109.916 78.2987L109.991 78.3272L110.035 78.3479L110.105 78.3894C110.167 78.4311 110.223 78.4799 110.274 78.5346L110.351 78.6279C110.38 78.6636 110.407 78.7008 110.432 78.7394L110.497 78.8405C110.543 78.9209 110.592 79.0091 110.644 79.0998L110.73 79.2735L110.821 79.4679C110.893 79.6235 110.971 79.7946 111.057 79.9865C114.481 87.6216 117.147 95.5265 119.394 103.579C121.093 109.745 122.452 116 123.465 122.316C124.436 128.306 124.814 134.378 124.593 140.443C124.445 141.48 124.875 142.395 125.321 143.279C128.173 148.983 129.669 155.021 129.469 161.368C129.238 168.593 130.848 175.552 132.005 182.586C132.573 186.109 133.26 189.645 133.368 193.254Z" fill="#C8CDD4"/>
<path d="M63.6377 81.4774C63.5807 81.5992 63.5236 81.7185 63.4692 81.8377L63.3914 82.0062C62.5981 83.7407 61.9655 85.3896 61.0581 86.857C57.0188 93.284 53.1844 99.82 50.1692 106.802C49.8762 107.484 49.4822 107.839 48.7147 107.774C47.6181 107.691 46.2336 108.552 45.5181 107.774C44.9296 107.121 45.137 105.728 45.0359 104.663C44.4033 98.095 43.7793 91.5271 43.164 84.9592C43.107 84.3344 42.9929 83.7614 42.3862 83.4218L42.4718 83.0511C49.4225 82.3666 56.381 81.83 63.6429 81.4955L63.6377 81.4774Z" fill="#C8CDD4"/>
<path d="M40.7891 83.1338L39.8506 83.1963L40.7891 83.1338Z" fill="#9079FA"/>
<path d="M63.6378 81.4774C63.5807 81.5993 63.5237 81.7185 63.4692 81.8378L63.6352 81.4774H63.6378Z" fill="#2D01F6"/>
<path d="M76.2379 81.2959H76.2354V81.3063H76.2379V81.2959Z" fill="#E51813"/>
</svg>
