<svg width="16" height="16" viewBox="0 0 16 16" fill="none" xmlns="http://www.w3.org/2000/svg">
<path d="M12.6641 6H5.9974C5.26102 6 4.66406 6.59695 4.66406 7.33333V11.3333C4.66406 12.0697 5.26102 12.6667 5.9974 12.6667H12.6641C13.4004 12.6667 13.9974 12.0697 13.9974 11.3333V7.33333C13.9974 6.59695 13.4004 6 12.6641 6Z" stroke="#5E6777" stroke-width="1.2" stroke-linecap="round" stroke-linejoin="round"/>
<path d="M9.33333 10.6667C10.0697 10.6667 10.6667 10.0697 10.6667 9.33333C10.6667 8.59695 10.0697 8 9.33333 8C8.59695 8 8 8.59695 8 9.33333C8 10.0697 8.59695 10.6667 9.33333 10.6667Z" stroke="#5E6777" stroke-width="1.2" stroke-linecap="round" stroke-linejoin="round"/>
<path d="M11.3333 6.00065V4.66732C11.3333 4.3137 11.1929 3.97456 10.9428 3.72451C10.6928 3.47446 10.3536 3.33398 10 3.33398H3.33333C2.97971 3.33398 2.64057 3.47446 2.39052 3.72451C2.14048 3.97456 2 4.3137 2 4.66732V8.66732C2 9.02094 2.14048 9.36008 2.39052 9.61013C2.64057 9.86018 2.97971 10.0007 3.33333 10.0007H4.66667" stroke="#5E6777" stroke-width="1.2" stroke-linecap="round" stroke-linejoin="round"/>
</svg>
