<svg width="16" height="16" viewBox="0 0 16 16" fill="none" xmlns="http://www.w3.org/2000/svg">
<path d="M3.33333 8H2L8 2L14 8H12.6667" stroke="#5E6777" stroke-width="1.2" stroke-linecap="round" stroke-linejoin="round"/>
<path d="M3.32812 8V12.6667C3.32813 13.0203 3.4686 13.3594 3.71865 13.6095C3.9687 13.8595 4.30784 14 4.66146 14H11.3281C11.6817 14 12.0209 13.8595 12.2709 13.6095C12.521 13.3594 12.6615 13.0203 12.6615 12.6667V8" stroke="#5E6777" stroke-width="1.2" stroke-linecap="round" stroke-linejoin="round"/>
<path d="M6 13.9993V9.99935C6 9.64573 6.14048 9.30659 6.39052 9.05654C6.64057 8.80649 6.97971 8.66602 7.33333 8.66602H8.66667C9.02029 8.66602 9.35943 8.80649 9.60948 9.05654C9.85952 9.30659 10 9.64573 10 9.99935V13.9993" stroke="#5E6777" stroke-width="1.2" stroke-linecap="round" stroke-linejoin="round"/>
</svg>
