<svg width="32" height="32" viewBox="0 0 32 32" fill="none" xmlns="http://www.w3.org/2000/svg">
<rect x="4.35156" y="16.0039" width="23.2727" height="12.3636" stroke="#437ADB" stroke-width="1.5" stroke-linecap="round" stroke-linejoin="round"/>
<path d="M4.35156 5.36719C4.35156 4.8149 4.79928 4.36719 5.35156 4.36719H26.6243C27.1766 4.36719 27.6243 4.8149 27.6243 5.36719V16.0036H4.35156V5.36719Z" stroke="#437ADB" stroke-width="1.5" stroke-linecap="round" stroke-linejoin="round"/>
<path d="M9.4375 22.8203C9.4375 22.268 9.88522 21.8203 10.4375 21.8203H12.8011C13.3534 21.8203 13.8011 22.268 13.8011 22.8203V28.3658H9.4375V22.8203Z" stroke="#437ADB" stroke-width="1.5" stroke-linecap="round" stroke-linejoin="round"/>
<path d="M2.17188 4.36719H29.8082" stroke="#437ADB" stroke-width="1.5" stroke-linecap="round" stroke-linejoin="round"/>
<rect x="18.9141" y="8" width="3.63636" height="3.63636" rx="1" fill="#437ADB"/>
<rect x="9.33594" y="8" width="3.63636" height="3.63636" rx="1" fill="#437ADB"/>
<rect x="18.9141" y="18.9062" width="3.63636" height="3.63636" rx="1" fill="#437ADB"/>
</svg>
