<svg width="22" height="22" viewBox="0 0 22 22" fill="none" xmlns="http://www.w3.org/2000/svg">
<path fill-rule="evenodd" clip-rule="evenodd" d="M7 14.5V13.5H1.5V14.5H7ZM7 15.5H1.5V20.5H7V15.5ZM13.5 14.5V13.5H8V14.5H13.5ZM13.5 15.5H8V20.5H13.5V15.5ZM1.7675 12.5C1.5354 12.0961 1.45147 11.6239 1.53018 11.1648C1.60889 10.7057 1.84531 10.2884 2.19868 9.98495C2.55206 9.68146 3.00024 9.51076 3.46598 9.50228C3.93171 9.4938 4.38581 9.64807 4.75 9.9385C5.11395 9.64669 5.56845 9.49127 6.03487 9.49915C6.50129 9.50702 6.95029 9.67769 7.30418 9.98163C7.65806 10.2856 7.89457 10.7036 7.97279 11.1635C8.05101 11.6234 7.96601 12.0962 7.7325 12.5H21C21.1326 12.5 21.2598 12.5527 21.3536 12.6464C21.4473 12.7402 21.5 12.8674 21.5 13V21C21.5 21.1326 21.4473 21.2598 21.3536 21.3536C21.2598 21.4473 21.1326 21.5 21 21.5H1C0.867392 21.5 0.740215 21.4473 0.646447 21.3536C0.552678 21.2598 0.5 21.1326 0.5 21V13C0.5 12.8674 0.552678 12.7402 0.646447 12.6464C0.740215 12.5527 0.867392 12.5 1 12.5H1.7675ZM14.5 13.5V20.5H20.5V13.5H14.5ZM2.793 10.793C2.61045 10.9758 2.5057 11.2221 2.5007 11.4803C2.4957 11.7386 2.59084 11.9888 2.76618 12.1785C2.94152 12.3682 3.18347 12.4827 3.44133 12.4979C3.6992 12.5132 3.95297 12.4281 4.1495 12.2605C3.95 11.774 3.95 11.2255 4.1495 10.7395C3.95813 10.5761 3.71221 10.4909 3.46078 10.5008C3.20935 10.5107 2.9709 10.6151 2.793 10.793ZM5.293 12.207C5.38525 12.3025 5.49559 12.3787 5.6176 12.4311C5.7396 12.4835 5.87082 12.5111 6.0036 12.5123C6.13638 12.5134 6.26806 12.4881 6.39095 12.4378C6.51385 12.3875 6.6255 12.3133 6.7194 12.2194C6.81329 12.1255 6.88754 12.0139 6.93782 11.891C6.9881 11.7681 7.0134 11.6364 7.01225 11.5036C7.0111 11.3708 6.98351 11.2396 6.9311 11.1176C6.87869 10.9956 6.80251 10.8852 6.707 10.793C6.5184 10.6108 6.2658 10.51 6.0036 10.5123C5.7414 10.5146 5.49059 10.6198 5.30518 10.8052C5.11977 10.9906 5.0146 11.2414 5.01233 11.5036C5.01005 11.7658 5.11084 12.0184 5.293 12.207ZM16 16H19C19.1326 16 19.2598 16.0527 19.3536 16.1464C19.4473 16.2402 19.5 16.3674 19.5 16.5V19C19.5 19.1326 19.4473 19.2598 19.3536 19.3536C19.2598 19.4473 19.1326 19.5 19 19.5H16C15.8674 19.5 15.7402 19.4473 15.6464 19.3536C15.5527 19.2598 15.5 19.1326 15.5 19V16.5C15.5 16.3674 15.5527 16.2402 15.6464 16.1464C15.7402 16.0527 15.8674 16 16 16ZM16.5 17V18.5H18.5V17H16.5ZM16 15C15.8674 15 15.7402 14.9473 15.6464 14.8536C15.5527 14.7598 15.5 14.6326 15.5 14.5C15.5 14.3674 15.5527 14.2402 15.6464 14.1464C15.7402 14.0527 15.8674 14 16 14H19C19.1326 14 19.2598 14.0527 19.3536 14.1464C19.4473 14.2402 19.5 14.3674 19.5 14.5C19.5 14.6326 19.4473 14.7598 19.3536 14.8536C19.2598 14.9473 19.1326 15 19 15H16ZM15.5 12C15.3674 12 15.2402 11.9473 15.1464 11.8536C15.0527 11.7598 15 11.6326 15 11.5C15 11.3674 15.0527 11.2402 15.1464 11.1464C15.2402 11.0527 15.3674 11 15.5 11H16.5C16.6326 11 16.7598 11.0527 16.8536 11.1464C16.9473 11.2402 17 11.3674 17 11.5C17 11.6326 16.9473 11.7598 16.8536 11.8536C16.7598 11.9473 16.6326 12 16.5 12H15.5ZM18.5 12C18.3674 12 18.2402 11.9473 18.1464 11.8536C18.0527 11.7598 18 11.6326 18 11.5C18 11.3674 18.0527 11.2402 18.1464 11.1464C18.2402 11.0527 18.3674 11 18.5 11H19.5C19.6326 11 19.7598 11.0527 19.8536 11.1464C19.9473 11.2402 20 11.3674 20 11.5C20 11.6326 19.9473 11.7598 19.8536 11.8536C19.7598 11.9473 19.6326 12 19.5 12H18.5ZM5.5 17.5C5.36739 17.5 5.24021 17.4473 5.14645 17.3536C5.05268 17.2598 5 17.1326 5 17C5 16.8674 5.05268 16.7402 5.14645 16.6464C5.24021 16.5527 5.36739 16.5 5.5 16.5C5.63261 16.5 5.75979 16.5527 5.85355 16.6464C5.94732 16.7402 6 16.8674 6 17C6 17.1326 5.94732 17.2598 5.85355 17.3536C5.75979 17.4473 5.63261 17.5 5.5 17.5ZM9.5 17.5C9.36739 17.5 9.24021 17.4473 9.14645 17.3536C9.05268 17.2598 9 17.1326 9 17C9 16.8674 9.05268 16.7402 9.14645 16.6464C9.24021 16.5527 9.36739 16.5 9.5 16.5C9.63261 16.5 9.75979 16.5527 9.85355 16.6464C9.94732 16.7402 10 16.8674 10 17C10 17.1326 9.94732 17.2598 9.85355 17.3536C9.75979 17.4473 9.63261 17.5 9.5 17.5ZM1 0.5H12C12.1326 0.5 12.2598 0.552678 12.3536 0.646447C12.4473 0.740215 12.5 0.867392 12.5 1V7C12.5 7.13261 12.4473 7.25979 12.3536 7.35355C12.2598 7.44732 12.1326 7.5 12 7.5H1C0.867392 7.5 0.740215 7.44732 0.646447 7.35355C0.552678 7.25979 0.5 7.13261 0.5 7V1C0.5 0.867392 0.552678 0.740215 0.646447 0.646447C0.740215 0.552678 0.867392 0.5 1 0.5ZM1.5 1.5V6.5H6V1.5H1.5ZM7 1.5V6.5H11.5V1.5H7ZM4.5 5.5C4.36739 5.5 4.24021 5.44732 4.14645 5.35355C4.05268 5.25979 4 5.13261 4 5C4 4.86739 4.05268 4.74021 4.14645 4.64645C4.24021 4.55268 4.36739 4.5 4.5 4.5C4.63261 4.5 4.75979 4.55268 4.85355 4.64645C4.94732 4.74021 5 4.86739 5 5C5 5.13261 4.94732 5.25979 4.85355 5.35355C4.75979 5.44732 4.63261 5.5 4.5 5.5ZM8.5 5.5C8.36739 5.5 8.24021 5.44732 8.14645 5.35355C8.05268 5.25979 8 5.13261 8 5C8 4.86739 8.05268 4.74021 8.14645 4.64645C8.24021 4.55268 8.36739 4.5 8.5 4.5C8.63261 4.5 8.75979 4.55268 8.85355 4.64645C8.94732 4.74021 9 4.86739 9 5C9 5.13261 8.94732 5.25979 8.85355 5.35355C8.75979 5.44732 8.63261 5.5 8.5 5.5ZM16 3.26V1C16 0.867392 16.0527 0.740215 16.1464 0.646447C16.2402 0.552678 16.3674 0.5 16.5 0.5H18.5C18.6326 0.5 18.7598 0.552678 18.8536 0.646447C18.9473 0.740215 19 0.867392 19 1V3.26L21.3125 5.11C21.371 5.15681 21.4182 5.21616 21.4506 5.28367C21.4831 5.35117 21.5 5.4251 21.5 5.5V7C21.5 7.13261 21.4473 7.25979 21.3536 7.35355C21.2598 7.44732 21.1326 7.5 21 7.5H14C13.8674 7.5 13.7402 7.44732 13.6464 7.35355C13.5527 7.25979 13.5 7.13261 13.5 7V5.5C13.5 5.4251 13.5169 5.35117 13.5494 5.28367C13.5818 5.21616 13.629 5.15681 13.6875 5.11L16 3.26ZM17 1.5V3.5C17 3.5749 16.9831 3.64883 16.9506 3.71633C16.9182 3.78384 16.871 3.84319 16.8125 3.89L14.5 5.74V6.5H20.5V5.74L18.1875 3.89C18.129 3.84319 18.0818 3.78384 18.0494 3.71633C18.0169 3.64883 18 3.5749 18 3.5V1.5H17ZM17 6C16.8674 6 16.7402 5.94732 16.6464 5.85355C16.5527 5.75979 16.5 5.63261 16.5 5.5C16.5 5.36739 16.5527 5.24021 16.6464 5.14645C16.7402 5.05268 16.8674 5 17 5H18C18.1326 5 18.2598 5.05268 18.3536 5.14645C18.4473 5.24021 18.5 5.36739 18.5 5.5C18.5 5.63261 18.4473 5.75979 18.3536 5.85355C18.2598 5.94732 18.1326 6 18 6H17Z" fill="#24282E"/>
</svg>
