<svg width="24" height="24" viewBox="0 0 24 24" fill="none" xmlns="http://www.w3.org/2000/svg">
<path d="M12 15.3113H8.055C7.95554 15.3113 7.86016 15.2718 7.78984 15.2014C7.71951 15.1311 7.68 15.0357 7.68 14.9363V9.66376C7.68 9.46485 7.60098 9.27408 7.46033 9.13343C7.31968 8.99278 7.12891 8.91376 6.93 8.91376H6V5.69626C6 5.09952 6.23705 4.52723 6.65901 4.10527C7.08097 3.68331 7.65326 3.44626 8.25 3.44626H15.75C16.3467 3.44626 16.919 3.68331 17.341 4.10527C17.7629 4.52723 18 5.09952 18 5.69626V8.91376H17.0737C16.8748 8.91376 16.6841 8.99278 16.5434 9.13343C16.4028 9.27408 16.3237 9.46485 16.3237 9.66376V14.9363C16.3237 15.0357 16.2842 15.1311 16.2139 15.2014C16.1436 15.2718 16.0482 15.3113 15.9487 15.3113H12Z" stroke="#24282E" stroke-width="1.5" stroke-miterlimit="10"/>
<path d="M7.67993 12.195H16.3237V14.9363C16.3237 15.0357 16.2842 15.1311 16.2138 15.2014C16.1435 15.2717 16.0481 15.3113 15.9487 15.3113H8.05493C7.95548 15.3113 7.86009 15.2717 7.78977 15.2014C7.71944 15.1311 7.67993 15.0357 7.67993 14.9363V12.195Z" stroke="#24282E" stroke-width="1.5" stroke-miterlimit="10"/>
<path d="M6 18.7387V20.5537" stroke="#24282E" stroke-width="1.5" stroke-linecap="round" stroke-linejoin="round"/>
<path d="M18 18.7387V20.5537" stroke="#24282E" stroke-width="1.5" stroke-linecap="round" stroke-linejoin="round"/>
<path d="M19.68 17.5425V9.66751C19.68 9.4686 19.601 9.27783 19.4603 9.13718C19.3197 8.99652 19.1289 8.91751 18.93 8.91751H17.0737C16.8748 8.91751 16.6841 8.99652 16.5434 9.13718C16.4027 9.27783 16.3237 9.4686 16.3237 9.66751V14.9363C16.3237 15.0357 16.2842 15.1311 16.2139 15.2014C16.1436 15.2717 16.0482 15.3113 15.9487 15.3113H8.07373C7.97427 15.3113 7.87889 15.2717 7.80857 15.2014C7.73824 15.1311 7.69873 15.0357 7.69873 14.9363V9.66376C7.69873 9.46484 7.61971 9.27408 7.47906 9.13343C7.33841 8.99278 7.14764 8.91376 6.94873 8.91376H5.07373C4.87482 8.91376 4.68405 8.99278 4.5434 9.13343C4.40275 9.27408 4.32373 9.46484 4.32373 9.66376V17.5388C4.32373 17.8371 4.44226 18.1233 4.65324 18.3343C4.86421 18.5452 5.15036 18.6638 5.44873 18.6638H18.555C18.8527 18.6638 19.1383 18.5457 19.3492 18.3356C19.56 18.1254 19.679 17.8402 19.68 17.5425Z" stroke="#24282E" stroke-width="1.5" stroke-miterlimit="10"/>
</svg>
