<svg width="16" height="16" viewBox="0 0 16 16" fill="none" xmlns="http://www.w3.org/2000/svg">
<path d="M10 5.33398H10.0067" stroke="#5E6777" stroke-width="1.2" stroke-linecap="round" stroke-linejoin="round"/>
<path d="M11.3385 2.66602H4.67188C3.56731 2.66602 2.67188 3.56145 2.67188 4.66602V11.3327C2.67188 12.4373 3.56731 13.3327 4.67188 13.3327H11.3385C12.4431 13.3327 13.3385 12.4373 13.3385 11.3327V4.66602C13.3385 3.56145 12.4431 2.66602 11.3385 2.66602Z" stroke="#5E6777" stroke-width="1.2" stroke-linecap="round" stroke-linejoin="round"/>
<path d="M2.67188 9.99997L5.33854 7.3333C5.64258 7.04074 5.98747 6.88672 6.33854 6.88672C6.68961 6.88672 7.0345 7.04074 7.33854 7.3333L10.6719 10.6666" stroke="#5E6777" stroke-width="1.2" stroke-linecap="round" stroke-linejoin="round"/>
<path d="M9.32812 9.33395L9.99479 8.66729C10.2988 8.37472 10.6437 8.2207 10.9948 8.2207C11.3459 8.2207 11.6908 8.37472 11.9948 8.66729L13.3281 10.0006" stroke="#5E6777" stroke-width="1.2" stroke-linecap="round" stroke-linejoin="round"/>
</svg>
