<svg width="65" height="64" viewBox="0 0 65 64" fill="none" xmlns="http://www.w3.org/2000/svg">
<g clip-path="url(#clip0_11842_109351)">
<path d="M40.5 21.334H40.5257" stroke="#9099A8" stroke-width="1.5" stroke-linecap="round" stroke-linejoin="round"/>
<path d="M45.8334 10.666H19.1667C14.7485 10.666 11.1667 14.2477 11.1667 18.666V45.3327C11.1667 49.751 14.7485 53.3327 19.1667 53.3327H45.8334C50.2517 53.3327 53.8334 49.751 53.8334 45.3327V18.666C53.8334 14.2477 50.2517 10.666 45.8334 10.666Z" stroke="#9099A8" stroke-width="1.5" stroke-linecap="round" stroke-linejoin="round"/>
<path d="M11.1667 39.9999L21.8334 29.3332C23.0496 28.163 24.4291 27.5469 25.8334 27.5469C27.2377 27.5469 28.6173 28.163 29.8334 29.3332L43.1667 42.6665" stroke="#9099A8" stroke-width="1.5" stroke-linecap="round" stroke-linejoin="round"/>
<path d="M37.8333 37.3339L40.4999 34.6672C41.7161 33.4969 43.0956 32.8809 44.4999 32.8809C45.9042 32.8809 47.2838 33.4969 48.4999 34.6672L53.8333 40.0005" stroke="#9099A8" stroke-width="1.5" stroke-linecap="round" stroke-linejoin="round"/>
</g>
<defs>
<clipPath id="clip0_11842_109351">
<rect width="64" height="64" fill="white" transform="translate(0.5)"/>
</clipPath>
</defs>
</svg>
