<svg width="16" height="16" viewBox="0 0 16 16" fill="none" xmlns="http://www.w3.org/2000/svg">
<path d="M13.0009 8.38047L8.00085 13.3325L3.00085 8.38047C2.67106 8.05955 2.41128 7.67382 2.23788 7.24756C2.06449 6.82131 1.98123 6.36377 1.99334 5.90376C2.00546 5.44375 2.11269 4.99123 2.30829 4.5747C2.50389 4.15817 2.78361 3.78664 3.12984 3.48353C3.47608 3.18041 3.88132 2.95227 4.32006 2.81346C4.7588 2.67466 5.22152 2.6282 5.6791 2.67701C6.13667 2.72582 6.57919 2.86885 6.97877 3.09708C7.37835 3.32531 7.72635 3.63381 8.00085 4.00314C8.27654 3.63649 8.62494 3.33069 9.02425 3.10488C9.42356 2.87907 9.86518 2.73811 10.3215 2.69082C10.7778 2.64353 11.2389 2.69094 11.676 2.83007C12.1132 2.9692 12.5169 3.19706 12.8619 3.49938C13.2069 3.80171 13.4858 4.172 13.6811 4.58707C13.8765 5.00214 13.984 5.45306 13.9971 5.91161C14.0101 6.37016 13.9284 6.82647 13.7569 7.25197C13.5855 7.67748 13.3281 8.06302 13.0009 8.38447" stroke="#5E6777" stroke-width="1.2" stroke-linecap="round" stroke-linejoin="round"/>
</svg>
