<svg width="18" height="20" viewBox="0 0 18 20" fill="none" xmlns="http://www.w3.org/2000/svg">
<path d="M0.203125 0.398438H16.9726C17.1005 0.398438 17.2232 0.44925 17.3137 0.539699C17.4041 0.630147 17.4549 0.752822 17.4549 0.880735V4.10369C17.4549 4.26358 17.3914 4.41692 17.2783 4.52998C17.1653 4.64304 17.0119 4.70656 16.852 4.70656H0.212771V0.398438H0.203125Z" fill="#38A0C7"/>
<path d="M0.203125 5.29688H17.0932C17.1891 5.29688 17.2811 5.33498 17.349 5.40282C17.4168 5.47066 17.4549 5.56266 17.4549 5.6586V9.8148C17.4549 9.91073 17.4168 10.0027 17.349 10.0706C17.2811 10.1384 17.1891 10.1765 17.0932 10.1765H0.203125V5.29688Z" fill="#38A0C7"/>
<path d="M0.289062 10.7559H8.22045C8.38034 10.7559 8.53368 10.8194 8.64674 10.9324C8.7598 11.0455 8.82332 11.1988 8.82332 11.3587V19.3878C8.82332 19.5477 8.7598 19.701 8.64674 19.8141C8.53368 19.9271 8.38034 19.9907 8.22045 19.9907H0.289062V10.7559Z" fill="#C03634"/>
<path d="M16.887 10.7559H10.0878C9.8214 10.7559 9.60547 10.9718 9.60547 11.2382V14.8879C9.60547 15.1543 9.8214 15.3702 10.0878 15.3702H16.887C17.1533 15.3702 17.3693 15.1543 17.3693 14.8879V11.2382C17.3693 10.9718 17.1533 10.7559 16.887 10.7559Z" fill="#38A0C7"/>
<path d="M16.887 15.8887H10.0878C9.8214 15.8887 9.60547 16.1046 9.60547 16.371V19.5035C9.60547 19.7699 9.8214 19.9858 10.0878 19.9858H16.887C17.1533 19.9858 17.3693 19.7699 17.3693 19.5035V16.371C17.3693 16.1046 17.1533 15.8887 16.887 15.8887Z" fill="#7FC348"/>
</svg>
