<svg width="16" height="16" viewBox="0 0 16 16" fill="none" xmlns="http://www.w3.org/2000/svg">
<path d="M5.99479 7.33333C7.46755 7.33333 8.66146 6.13943 8.66146 4.66667C8.66146 3.19391 7.46755 2 5.99479 2C4.52203 2 3.32812 3.19391 3.32812 4.66667C3.32812 6.13943 4.52203 7.33333 5.99479 7.33333Z" stroke="#5E6777" stroke-width="1.2" stroke-linecap="round" stroke-linejoin="round"/>
<path d="M2 14V12.6667C2 11.9594 2.28095 11.2811 2.78105 10.781C3.28115 10.281 3.95942 10 4.66667 10H7.33333C8.04058 10 8.71885 10.281 9.21895 10.781C9.71905 11.2811 10 11.9594 10 12.6667V14" stroke="#5E6777" stroke-width="1.2" stroke-linecap="round" stroke-linejoin="round"/>
<path d="M10.6719 2.08594C11.2455 2.2328 11.7539 2.5664 12.117 3.03414C12.48 3.50188 12.6771 4.07716 12.6771 4.66927C12.6771 5.26138 12.48 5.83666 12.117 6.3044C11.7539 6.77214 11.2455 7.10574 10.6719 7.2526" stroke="#5E6777" stroke-width="1.2" stroke-linecap="round" stroke-linejoin="round"/>
<path d="M14 13.9996V12.6663C13.9966 12.0777 13.7986 11.5068 13.4368 11.0425C13.0751 10.5783 12.5699 10.2467 12 10.0996" stroke="#5E6777" stroke-width="1.2" stroke-linecap="round" stroke-linejoin="round"/>
</svg>
