<svg width="24" height="24" viewBox="0 0 24 24" fill="none" xmlns="http://www.w3.org/2000/svg">
<path d="M23.25 10.5C23.25 9.90326 23.0129 9.33097 22.591 8.90901C22.169 8.48705 21.5967 8.25 21 8.25H5.25V3.75C5.25 3.35218 5.40803 2.97064 5.68934 2.68934C5.97064 2.40804 6.35217 2.25 6.75 2.25C7.14782 2.25 7.52935 2.40804 7.81066 2.68934C8.09196 2.97064 8.25 3.35218 8.25 3.75H7.5C7.30109 3.75 7.11032 3.82902 6.96967 3.96967C6.82902 4.11032 6.75 4.30109 6.75 4.5C6.75 4.69891 6.82902 4.88968 6.96967 5.03033C7.11032 5.17098 7.30109 5.25 7.5 5.25H10.5C10.6989 5.25 10.8897 5.17098 11.0303 5.03033C11.171 4.88968 11.25 4.69891 11.25 4.5C11.25 4.30109 11.171 4.11032 11.0303 3.96967C10.8897 3.82902 10.6989 3.75 10.5 3.75H9.75C9.75 2.95435 9.43393 2.19129 8.87132 1.62868C8.30871 1.06607 7.54565 0.75 6.75 0.75C5.95435 0.75 5.19129 1.06607 4.62868 1.62868C4.06607 2.19129 3.75 2.95435 3.75 3.75V8.25H3C2.40326 8.25 1.83097 8.48705 1.40901 8.90901C0.987053 9.33097 0.75 9.90326 0.75 10.5C0.752751 10.9833 0.911055 11.4529 1.20147 11.8392C1.49189 12.2255 1.89899 12.5081 2.3625 12.645L3.525 18.4425C3.61016 18.8978 3.83379 19.3158 4.16534 19.6393C4.49689 19.9628 4.92021 20.1761 5.3775 20.25L4.5525 22.245C4.4783 22.429 4.48004 22.635 4.55736 22.8177C4.63467 23.0004 4.78125 23.1451 4.965 23.22C5.05643 23.2518 5.15396 23.262 5.25 23.25C5.39935 23.2507 5.54552 23.2069 5.66978 23.124C5.79405 23.0412 5.89075 22.9231 5.9475 22.785L6.9825 20.25H17.0175L18.0525 22.785C18.1092 22.9231 18.206 23.0412 18.3302 23.124C18.4545 23.2069 18.6007 23.2507 18.75 23.25C18.8484 23.2525 18.946 23.232 19.035 23.19C19.2187 23.1151 19.3653 22.9704 19.4426 22.7877C19.52 22.605 19.5217 22.399 19.4475 22.215L18.6225 20.25C19.0757 20.178 19.496 19.9691 19.8272 19.6514C20.1583 19.3337 20.3843 18.9223 20.475 18.4725L21.6375 12.675C22.1059 12.5366 22.5166 12.2496 22.8075 11.8572C23.0984 11.4648 23.2537 10.9884 23.25 10.5ZM19.005 18.15C18.9699 18.322 18.8757 18.4762 18.7386 18.5858C18.6016 18.6954 18.4305 18.7535 18.255 18.75H5.73C5.55454 18.7535 5.3834 18.6954 5.24636 18.5858C5.10932 18.4762 5.01506 18.322 4.98 18.15L3.915 12.75H20.085L19.005 18.15ZM21 11.25H3C2.80109 11.25 2.61032 11.171 2.46967 11.0303C2.32902 10.8897 2.25 10.6989 2.25 10.5C2.25 10.3011 2.32902 10.1103 2.46967 9.96967C2.61032 9.82902 2.80109 9.75 3 9.75H21C21.1989 9.75 21.3897 9.82902 21.5303 9.96967C21.671 10.1103 21.75 10.3011 21.75 10.5C21.75 10.6989 21.671 10.8897 21.5303 11.0303C21.3897 11.171 21.1989 11.25 21 11.25Z" fill="#24282E"/>
</svg>
