<svg width="33" height="33" viewBox="0 0 33 33" fill="none" xmlns="http://www.w3.org/2000/svg">
<path d="M4.53711 13.2266C13.6257 13.2266 18.7213 13.2266 27.8098 13.2266V28.5701H4.53711V13.2266Z" stroke="#023060" stroke-width="1.5" stroke-linecap="round" stroke-linejoin="round"/>
<path d="M4.53711 5.57031C4.53711 5.01803 4.98482 4.57031 5.53711 4.57031H26.8098C27.3621 4.57031 27.8098 5.01803 27.8098 5.57031V20.7811H4.53711V5.57031Z" stroke="#023060" stroke-width="1.5" stroke-linecap="round" stroke-linejoin="round"/>
<path d="M4.53711 5.57031C4.53711 5.01803 4.98482 4.57031 5.53711 4.57031H26.8098C27.3621 4.57031 27.8098 5.01803 27.8098 5.57031V20.7811H4.53711V5.57031Z" fill="white" stroke="#023060" stroke-width="1.5" stroke-linecap="round" stroke-linejoin="round"/>
<path d="M4.53711 13.2266C13.6257 13.2266 18.7213 13.2266 27.8098 13.2266V28.5701H4.53711V13.2266Z" fill="white" stroke="#023060" stroke-width="1.5" stroke-linecap="round" stroke-linejoin="round"/>
<path d="M2.36328 4.57031H29.9996" stroke="#023060" stroke-width="1.5" stroke-linecap="round" stroke-linejoin="round"/>
<path d="M2.35156 12.6743H29.9879" stroke="#023060" stroke-width="1.5" stroke-linecap="round" stroke-linejoin="round"/>
<path d="M2.2793 21.2319H29.9157" stroke="#023060" stroke-width="1.5" stroke-linecap="round" stroke-linejoin="round"/>
<rect x="8.88281" y="7.07666" width="3.33333" height="3.33333" rx="1" fill="#023060"/>
<rect x="19.8105" y="7.07666" width="3.33333" height="3.33333" rx="1" fill="#023060"/>
<rect x="9.03906" y="15.3452" width="3.33333" height="3.33333" rx="1" fill="#023060"/>
<rect x="19.9668" y="15.3452" width="3.33333" height="3.33333" rx="1" fill="#023060"/>
<path d="M14.3828 25.1172C14.3828 24.5649 14.8305 24.1172 15.3828 24.1172H16.9468C17.4991 24.1172 17.9468 24.5649 17.9468 25.1172V28.5694H14.3828V25.1172Z" fill="#023060"/>
</svg>
