<svg width="132" height="132" viewBox="0 0 132 132" fill="none" xmlns="http://www.w3.org/2000/svg">
<path d="M111.31 48.5667C109.291 47.9335 107.192 47.8333 105.107 47.7111C101.231 47.4667 97.3509 47.3114 93.4764 47.0536C92.132 46.9631 90.7619 46.8873 89.5042 46.2481C89.1864 46.0868 88.7452 46.1491 88.3614 46.1393C86.3276 46.0892 84.2951 46.0489 82.2613 46.0049C82.2173 48.6082 82.2039 51.2115 82.1232 53.8124C82.0352 56.6345 81.8971 59.4542 81.7565 62.2739C81.6848 63.7405 81.6033 65.2072 81.5121 66.6739C81.4754 67.2923 81.4367 67.9108 81.396 68.5292C81.202 71.544 80.9983 74.5588 80.7849 77.5737C80.5942 80.2442 80.4475 82.9209 80.1664 85.5817C79.5883 91.0303 79.4746 96.49 79.6005 101.959C79.6127 102.505 79.493 102.538 79.0016 102.36C78.5791 102.21 78.1472 102.087 77.7085 101.994C76.9956 101.845 76.2724 101.75 75.5452 101.711C75.1602 102.469 74.7202 103.171 74.9683 104.134C75.0673 104.519 74.6371 105.033 74.9989 105.5C75.0141 105.52 75.0243 105.544 75.0285 105.569C75.0328 105.594 75.0309 105.619 75.0231 105.643C75.0153 105.667 75.0018 105.689 74.9837 105.707C74.9657 105.724 74.9436 105.737 74.9194 105.745C74.4941 105.888 74.114 106.251 73.6067 106.011C73.0995 105.772 72.9602 105.422 72.9516 104.85C72.9345 103.792 73.3782 102.894 73.7057 101.945C72.7341 101.444 71.6927 101.27 70.6086 101.203C67.8623 101.034 65.1209 100.789 62.3745 100.632C61.3234 100.573 60.276 100.408 59.2188 100.477C59.7797 103.644 60.2417 106.832 60.9959 109.96C63.1066 110.097 65.2162 110.283 67.3294 110.355C68.8071 110.405 70.2236 110.722 71.6585 111.009C74.0406 111.487 76.4667 111.531 78.8855 111.595C81.7137 111.672 84.5542 111.652 87.3445 112.125C89.0923 112.42 90.8132 112.453 92.5659 112.369C93.7172 112.315 94.8991 112.7 96.0235 112.321C97.4935 111.846 99.0164 111.553 100.558 111.45C100.723 111.447 100.885 111.407 101.033 111.334C101.181 111.261 101.311 111.156 101.414 111.027C101.519 110.884 101.595 110.722 101.637 110.549C102.406 107.688 103.477 104.905 103.837 101.939C103.934 101.253 103.898 100.554 103.731 99.8817C103.507 98.9935 103.478 98.0675 103.645 97.1671C103.957 95.302 103.799 93.4283 103.6 91.5693C103.356 89.2263 102.989 86.8943 102.713 84.5525C102.622 83.8647 102.644 83.1666 102.778 82.4858C103.007 81.3246 103.029 80.1322 102.844 78.9633C102.739 78.3569 102.776 77.7346 102.951 77.1447C103.46 75.6132 103.44 74.0194 103.643 72.4513C103.895 70.5227 104.106 68.5915 104.417 66.6702C104.566 65.745 104.738 64.821 104.948 63.9007C105.437 61.7764 105.495 59.552 105.727 57.3703C105.834 56.3559 105.892 55.3414 106.673 54.5445C107.213 53.9933 107.443 54.0092 107.761 54.7279C107.933 55.1178 108.127 55.5345 107.985 55.9611C107.487 57.4009 107.517 58.9311 107.201 60.3965C106.752 62.469 106.408 64.5629 106.172 66.6702C106.166 66.7228 106.161 66.7766 106.155 66.8291C105.944 68.7492 105.828 70.6901 105.454 72.5736C105.134 74.1918 104.678 75.8088 104.721 77.4429C104.788 80.1941 104.248 82.9649 104.931 85.7027C105.029 86.1402 105.075 86.5878 105.067 87.0361C105.078 89.9095 105.49 92.7598 105.542 95.6295C105.55 96.072 105.452 96.5169 105.403 96.9618C105.32 97.7914 105.329 98.6276 105.431 99.4551C105.699 101.783 105.851 104.08 104.881 106.35C104.263 107.797 103.923 109.37 103.537 110.906C103.527 110.948 103.516 110.988 103.505 111.028C103.15 112.308 102.363 113.035 101.06 113.371C99.5777 113.754 98.116 114.149 96.5601 114.015C95.8875 113.965 95.2112 114.036 94.5642 114.227C92.9753 114.68 91.351 114.546 89.7706 114.349C86.6601 113.956 83.5104 113.925 80.428 113.395C78.6655 113.11 76.8877 112.929 75.104 112.854C74.534 112.812 73.9613 112.821 73.3929 112.881C72.574 112.985 71.7453 112.95 70.9863 112.637C69.9205 112.205 68.8217 112.127 67.6985 112.095C65.6452 112.037 63.5882 112.172 61.5397 111.947C61.827 113.134 62.1716 114.303 62.7009 115.408C62.85 115.718 63.0064 116.006 63.455 115.995C66.5924 115.916 69.7201 116.152 72.8478 116.349C77.0938 116.615 81.3397 116.875 85.5857 117.13C90.8083 117.435 96.0345 117.71 101.268 117.445C102.857 117.366 104.44 117.249 105.959 116.736C107.044 116.369 107.208 116.114 107.206 114.975C107.203 114.729 107.223 114.484 107.264 114.242C107.494 112.983 107.715 111.721 107.976 110.467C108.653 107.2 109.056 103.926 108.413 100.599C108.247 99.7374 108.175 98.8538 108.451 97.9994C108.737 97.1485 108.833 96.2453 108.732 95.3533C108.568 93.9771 108.472 92.5972 108.428 91.2149C108.269 86.1659 108.411 81.1169 108.441 76.0679C108.461 72.8803 108.744 69.7465 109.635 66.6641C110.584 63.3824 111.03 60.0177 110.847 56.5906C110.8 55.7411 110.757 54.9124 110.908 54.0544C111.201 52.3947 111.356 50.7104 111.586 49.0433C111.626 48.7854 111.454 48.6987 111.31 48.5667ZM102.032 96.226C99.9126 98.7853 97.3875 100.963 95.2107 103.464C95.1435 103.541 95.0653 103.66 94.9883 103.663C94.0325 103.711 92.9594 104.091 92.1527 103.482C89.1485 101.213 86.0844 99.0139 83.2745 96.4973C83.0997 96.3409 82.8724 96.2333 82.8565 95.9339C82.8321 95.4939 82.8834 95.2103 83.4456 95.1822C85.3767 95.082 87.3079 94.9378 89.2439 95.0025C89.7327 95.0184 89.855 94.8803 89.8232 94.3914C89.6117 91.221 89.5849 88.0481 89.6655 84.8691C89.7022 83.3719 89.4663 81.8661 89.316 80.3677C89.1119 78.3375 89.151 76.2989 89.0715 74.2651C89.0507 73.7065 89.4553 73.9241 89.7046 73.8777C89.9857 73.8251 90.207 73.8434 90.2106 74.2541C90.2265 75.5986 90.2876 76.943 90.3145 78.2874C90.35 80.0413 90.5883 81.7781 90.7472 83.521C90.8355 84.556 90.8445 85.5963 90.7741 86.6328C90.6164 89.1994 90.9171 91.7661 90.9562 94.323C90.9855 96.204 91.2006 96.1319 89.338 96.105C87.8542 96.083 86.3741 96.1417 84.7546 96.2455C85.4369 96.9104 86.1637 97.5278 86.9302 98.0935C88.8043 99.5333 90.6783 100.972 92.5524 102.409C93.2087 102.913 94.2941 102.819 94.8245 102.195C96.5014 100.225 98.5877 98.6509 100.164 96.5804C100.295 96.4093 100.516 96.3067 100.565 96.0243C99.0986 95.863 97.6442 95.9791 96.1934 96.1331C93.9739 96.3678 94.2171 96.4607 94.1865 94.4513C94.123 90.2811 94.0435 86.1048 94.1865 81.9382C94.2806 79.1601 94.7463 76.393 95.0421 73.6271C95.1203 72.8938 95.1924 72.169 95.2767 71.4418C95.3525 70.7879 95.8634 71.102 96.1836 71.0751C96.576 71.0445 96.4146 71.3794 96.3902 71.564C95.4686 78.6419 94.9064 85.7418 95.3293 92.8808C95.3743 93.4697 95.3772 94.0612 95.3379 94.6505C95.3012 95.0942 95.4601 95.1077 95.8182 95.0527C97.72 94.7593 99.6327 94.7997 101.544 94.9304C101.874 94.9524 102.27 94.8779 102.44 95.2971C102.62 95.731 102.259 95.9522 102.032 96.226Z" fill="#C15E81"/>
<path d="M102.032 96.2256C99.9124 98.7849 97.3873 100.963 95.2106 103.464C95.1433 103.541 95.0651 103.659 94.9881 103.663C94.0323 103.71 92.9592 104.091 92.1526 103.482C89.1483 101.212 86.0842 99.0135 83.2743 96.4969C83.0996 96.3405 82.8722 96.2329 82.8563 95.9334C82.8319 95.4934 82.8832 95.2099 83.4454 95.1818C85.3766 95.0816 87.3077 94.9373 89.2437 95.0021C89.7326 95.018 89.8548 94.8799 89.823 94.391C89.6116 91.2206 89.5847 88.0477 89.6653 84.8687C89.702 83.3715 89.4661 81.8657 89.3158 80.3672C89.1117 78.3371 89.1508 76.2985 89.0713 74.2647C89.0506 73.7061 89.4551 73.9237 89.7045 73.8772C89.9856 73.8247 90.2068 73.843 90.2105 74.2537C90.2263 75.5981 90.2874 76.9426 90.3143 78.287C90.3498 80.0409 90.5881 81.7777 90.747 83.5206C90.8354 84.5556 90.8444 85.5959 90.7739 86.6323C90.6162 89.199 90.9169 91.7657 90.956 94.3226C90.9853 96.2036 91.2005 96.1315 89.3378 96.1046C87.854 96.0826 86.3739 96.1412 84.7545 96.2451C85.4367 96.91 86.1636 97.5274 86.93 98.0931C88.8041 99.5329 90.6782 100.971 92.5522 102.409C93.2086 102.912 94.2939 102.818 94.8243 102.195C96.5012 100.225 98.5876 98.6505 100.164 96.58C100.295 96.4089 100.516 96.3062 100.565 96.0239C99.0984 95.8626 97.644 95.9787 96.1932 96.1327C93.9737 96.3673 94.2169 96.4602 94.1863 94.4509C94.1228 90.2807 94.0433 86.1043 94.1863 81.9378C94.2804 79.1597 94.7461 76.3926 95.0419 73.6267C95.1201 72.8933 95.1922 72.1686 95.2766 71.4413C95.3523 70.7875 95.8632 71.1016 96.1835 71.0747C96.5758 71.0441 96.4145 71.379 96.39 71.5636C95.4685 78.6415 94.9062 85.7413 95.3291 92.8803C95.3741 93.4693 95.377 94.0607 95.3377 94.6501C95.301 95.0938 95.4599 95.1072 95.818 95.0522C97.7198 94.7589 99.6326 94.7992 101.544 94.93C101.874 94.952 102.27 94.8775 102.44 95.2967C102.62 95.7306 102.259 95.9518 102.032 96.2256Z" fill="white"/>
<path d="M111.308 48.5673C109.288 47.9341 107.19 47.8339 105.105 47.7056C101.229 47.4611 97.3486 47.3059 93.4741 47.048C92.1297 46.9588 90.7596 46.8818 89.5019 46.2438C89.1841 46.0825 88.7429 46.1448 88.3591 46.135C86.3254 46.0849 84.2928 46.0446 82.259 46.0006C82.2248 45.09 82.1087 44.1734 82.1771 43.2714C82.2554 42.2496 81.786 41.6531 80.9879 41.1569C79.4687 40.2109 77.8346 39.5179 76.1687 38.8909C76.0294 38.1943 75.8094 37.4573 75.9756 36.7911C76.1736 35.9979 75.7996 35.2023 76.1271 34.4445C76.1491 34.3944 76.0954 34.2783 76.0416 34.2355C75.6468 33.914 75.2398 33.7099 74.7081 33.9641C74.2193 34.1964 74.0457 34.4689 74.1264 35.0568C74.2645 36.0761 74.6984 37.1065 74.218 38.1503C72.5884 37.5799 70.9588 37.0116 69.3291 36.4453C68.9869 36.323 68.6496 36.1006 68.3061 36.0896C66.5364 36.037 64.7776 35.8574 63.0164 35.707C59.1639 35.377 55.3041 35.3844 51.4444 35.3514C49.4094 35.3343 47.378 35.3868 45.3455 35.4443C45.6889 34.7977 45.4225 33.9776 45.9419 33.3787C45.9627 33.3567 45.9517 33.3005 45.9419 33.2565C45.8955 32.9411 45.2587 32.4804 44.8688 32.4987C44.3799 32.5231 43.9143 32.5867 43.8776 33.232C43.836 33.9788 43.6784 34.7195 43.7554 35.4724L38.1637 35.663C38.061 32.1308 37.9596 28.5949 37.8594 25.0554C38.4387 25.2069 39.0217 25.5626 39.6206 25.2644C40.2928 24.9295 40.9504 25.0493 41.6422 25.1006C42.5124 25.1654 43.3533 25.4367 44.2382 25.3927C45.5924 25.3267 46.9466 25.1067 48.3082 25.3463C48.571 25.3723 48.8364 25.3507 49.0916 25.2827C50.667 24.9661 52.2608 25.202 53.8411 25.1751C54.8678 25.158 55.9091 25.246 56.9334 25.125C58.4648 24.9454 59.9889 24.6777 61.5155 24.4846C61.8614 24.4418 61.9665 24.3685 61.9017 24.0165C61.6414 22.5914 62.1193 21.2127 62.1938 19.8071L68.2744 19.5761C68.4626 20.3853 68.6594 21.1931 68.8341 22.0059C68.9086 22.3877 68.866 22.783 68.7119 23.1401C68.4577 23.7904 68.4174 24.4846 68.333 25.1727C68.311 25.3438 68.3147 25.5271 68.5555 25.5039C69.7899 25.3817 70.9681 25.785 72.1745 25.8804C74.0359 26.027 75.9047 26.0527 77.6574 26.8154C77.829 26.8795 78.0107 26.9126 78.1939 26.9131C79.5387 26.962 80.8675 27.2214 82.1319 27.6819C82.4815 27.8127 82.8567 27.8787 83.2087 27.7528C83.8699 27.5181 84.4016 27.7809 85.0066 28.018C86.0186 28.4165 87.0318 28.9958 88.2113 28.535C88.4061 28.4643 88.6168 28.449 88.8198 28.4909C89.0229 28.5328 89.2103 28.6301 89.3614 28.7721C89.86 29.2121 90.4467 29.2488 91.0615 29.3124C92.753 29.4859 94.4837 29.4346 96.108 30.0579C96.4723 30.2029 96.8753 30.2185 97.2496 30.1019C97.8005 29.9319 98.396 29.9836 98.9094 30.2461C99.4123 30.4781 99.9807 30.5261 100.515 30.3818C100.971 30.2595 101.454 30.2843 101.895 30.4527C103.025 30.9061 104.173 30.7839 105.303 30.504C105.812 30.3654 106.341 30.315 106.867 30.3549C108.56 30.5419 110.263 30.1118 111.663 29.1437C112.152 28.81 112.348 28.0205 112.082 27.5108C111.893 27.1441 111.529 27.1295 111.194 27.0659C110.859 27.0024 110.717 27.1967 110.595 27.4644C110.399 27.897 110.016 28.0657 109.573 28.1378C109.007 28.2295 108.473 28.3823 107.984 28.7281C107.599 29.0044 107.147 29.0765 106.713 28.8369C106.252 28.5827 105.786 28.6634 105.294 28.678C104.26 28.7086 103.271 29.2256 102.222 28.9714C101.577 28.8149 100.941 28.8491 100.287 28.8663C99.2198 28.8931 98.1687 28.8821 97.1249 28.4226C96.3537 28.0828 95.4468 27.7528 94.5851 27.9618C93.4411 28.238 92.4389 27.8469 91.4599 27.4729C90.322 27.0317 89.2147 26.6773 87.9851 26.8997C87.6185 26.9669 87.2188 26.9437 86.9291 26.7103C86.2911 26.1957 85.493 26.181 84.7768 25.917C84.0887 25.664 83.3957 26.06 82.7284 25.8327C81.7811 25.51 80.829 25.2619 79.8109 25.3108C79.5445 25.3243 79.2573 25.1886 79.003 25.0664C78.5508 24.8586 78.0729 24.7889 77.5926 24.6997C76.3777 24.4748 75.1371 24.4748 73.9259 24.1301C72.8125 23.8136 71.6734 23.3797 70.4646 23.6914C70.2678 23.7427 70.2654 23.6119 70.269 23.4946C70.3106 22.177 69.9158 20.8693 70.1823 19.5468C73.1241 19.3598 76.0758 19.3818 79.0128 19.0066C81.1994 18.7267 83.403 19.0066 85.5871 19.2853C96.009 20.5906 106.249 22.8737 116.509 25.0639C117.142 25.1984 117.358 25.4893 117.342 26.0869C117.298 27.7039 116.975 29.2757 116.592 30.8377C116.531 31.0883 116.491 31.2533 116.715 31.4745C117.047 31.8008 116.981 32.2653 116.92 32.6906C116.728 34.035 116.26 35.2878 115.747 36.5296C115.624 36.8303 115.574 37.0735 115.766 37.379C116.011 37.7787 115.874 38.1991 115.698 38.6013C115.419 39.2417 114.758 39.7013 114.784 40.4933C114.784 40.5544 114.559 40.6265 114.436 40.6888C112.186 41.8316 112.513 41.3183 112.318 43.8409C112.223 45.0766 112.295 46.3306 111.959 47.5394C111.85 47.9341 111.796 48.3998 111.308 48.5673Z" fill="#C8CDD4"/>
<path d="M22.7193 62.3332C21.601 62.3809 20.4814 62.409 19.3668 62.4885C18.9744 62.5166 18.8253 62.3772 18.7557 62.0607C18.7562 62.0513 18.7562 62.0419 18.7557 62.0326C18.7557 62.013 18.7471 61.9935 18.7434 61.9727C18.7428 61.9662 18.7428 61.9596 18.7434 61.9531C18.7434 61.9323 18.7434 61.9152 18.7349 61.9042C18.7263 61.8932 18.7349 61.8981 18.7349 61.8969C18.7346 61.8945 18.7346 61.892 18.7349 61.8896C18.4733 60.3471 18.2085 58.8055 17.9404 57.2647C17.8524 56.7497 17.764 56.2352 17.6752 55.721C17.4927 54.6618 17.3122 53.6025 17.1338 52.5432C16.6547 49.7003 16.0582 46.8648 15.7979 43.9999C15.6842 42.7496 15.232 41.7168 14.8201 40.6131C14.7557 40.4419 14.711 40.264 14.6869 40.0827C14.6038 39.408 14.7272 39.3164 15.3994 39.2039C16.4603 39.0267 17.5102 38.7871 18.565 38.5732C18.9493 39.3879 19.0926 40.2954 18.9781 41.1888C18.8627 41.9341 18.8942 42.6947 19.071 43.4279C19.4377 44.8408 19.6577 46.2916 20.1844 47.6653C20.5756 48.6822 20.5719 49.7786 20.7357 50.8431C20.7809 51.1377 20.8371 51.431 20.8994 51.7219C20.9117 51.7806 20.9251 51.838 20.9386 51.8967C20.9642 52.0128 20.9911 52.1289 21.0204 52.245C21.0498 52.3611 21.0767 52.476 21.1072 52.5921C21.1378 52.7082 21.1634 52.8097 21.1928 52.9185C21.4372 53.851 21.722 54.7775 21.9261 55.7296C21.975 55.9569 22.0202 56.1855 22.0581 56.4152C22.206 57.3001 22.3734 58.1716 22.3502 59.0748C22.3209 60.1711 22.679 61.2332 22.7193 62.3332Z" fill="#7BA2E6"/>
<path d="M25.5794 99.9859C24.606 99.9497 23.6364 99.8447 22.6779 99.6717C21.9445 99.5495 21.6634 99.1034 21.5302 98.4495C21.273 97.1123 21.1182 95.7574 21.067 94.3966C21.034 93.7366 21.0034 93.0766 20.9851 92.4166C20.9215 90.1152 20.9851 87.8186 21.5045 85.5416C21.5155 85.4928 21.5265 85.4463 21.5388 85.4035C21.5546 85.3485 21.5705 85.2972 21.5889 85.2508C21.7111 84.9293 21.9042 84.8071 22.3638 84.8658C23.047 84.9538 23.7436 84.9366 24.433 84.9648C24.7055 85.9279 24.609 86.9069 24.5234 87.8761C24.431 88.8085 24.4652 89.7492 24.6249 90.6725C24.6518 90.8204 24.6774 90.9683 24.6994 91.115C24.7104 91.1859 24.7214 91.2555 24.73 91.3264C24.7385 91.3973 24.7459 91.4486 24.7532 91.5024C24.7605 91.5562 24.7679 91.6246 24.774 91.6882C24.7801 91.7517 24.7862 91.8031 24.7911 91.8593C24.8025 91.9726 24.8111 92.0862 24.8168 92.2003C24.8168 92.2736 24.8241 92.3458 24.8265 92.4191C24.8367 92.7076 24.831 92.9965 24.8094 93.2844C24.6493 95.4037 25.0771 97.4534 25.4914 99.508C25.5232 99.6669 25.5501 99.8257 25.5794 99.9859Z" fill="#7BA2E6"/>
<path d="M24.1984 69.9118C22.9761 69.8324 21.7661 69.7481 20.5488 69.6808C20.3154 69.6674 20.2139 69.5867 20.165 69.3753L20.1491 69.2983C19.8142 67.5391 19.472 65.7824 19.1225 64.0281C19.1225 64.0281 19.1139 63.9841 19.1005 63.9059C19.0467 63.5392 19.3266 63.5954 19.5515 63.5856C20.6686 63.5331 21.7857 63.4854 22.9028 63.4365C23.8268 65.2417 23.9417 67.2254 24.202 69.181C24.2176 69.4244 24.2163 69.6686 24.1984 69.9118Z" fill="#7BA2E6"/>
<path d="M24.5795 76.4136C23.7667 76.4136 22.9539 76.4075 22.135 76.4222C21.8417 76.4283 21.706 76.3305 21.6461 76.0298V76.0152C21.3076 74.4972 20.9458 72.9841 20.5938 71.4697C20.5755 71.3927 20.5596 71.3243 20.5461 71.2632L20.518 71.1214C20.4569 70.7547 20.5791 70.7645 21.1878 70.8061C22.1582 70.8721 23.1287 70.9283 24.0991 70.9955C24.159 71.9024 24.2397 72.8081 24.2739 73.7162C24.2899 74.623 24.3922 75.5262 24.5795 76.4136Z" fill="#7BA2E6"/>
<path d="M24.6804 78.2519C24.1573 80.095 24.37 81.9894 24.2661 83.8607C23.6158 83.8264 22.9656 83.7727 22.3105 83.7641C21.9768 83.7641 21.8461 83.6614 21.8803 83.3363C21.8803 83.3046 21.8839 83.2752 21.8913 83.2483C21.8913 83.2251 21.8974 83.2031 21.8998 83.1799V83.1469C21.9005 83.1379 21.9005 83.129 21.8998 83.12V83.1114C22.1259 81.4176 22.1382 79.702 21.9365 78.005C21.9365 77.9476 21.9218 77.8901 21.9145 77.8327C21.8693 77.5002 22.0942 77.5308 22.2995 77.5296C23.0931 77.5296 23.8868 77.5296 24.6804 77.5296C24.6877 77.7703 24.744 78.0282 24.6804 78.2519Z" fill="#7BA2E6"/>
<path d="M47.9988 100.329C47.3156 100.524 46.6385 100.744 45.9479 100.911C44.4641 101.27 43.0732 101.167 41.9378 99.9879C41.8659 99.9165 41.7786 99.8626 41.6827 99.8302C41.5867 99.7978 41.4846 99.7877 41.3841 99.8009C39.7985 99.8718 38.2133 99.9366 36.6285 99.9952C33.5729 100.108 30.5235 100.133 27.4704 100.109C27.078 98.7645 26.803 97.398 26.8947 95.979C26.9351 95.4926 26.9216 95.0031 26.8544 94.5197C26.7444 93.8206 26.6527 93.1202 26.5842 92.4187C26.4007 90.6157 26.3802 88.7999 26.5231 86.9932C26.5902 86.3054 26.5585 85.6115 26.429 84.9326C28.9664 84.7468 31.5049 84.6148 34.0496 84.572C36.8179 84.5256 39.585 84.5818 42.3521 84.583C42.6601 84.583 43.0072 84.6955 43.0121 84.1455C43.0121 83.6798 42.9461 83.3987 42.4071 83.4415C42.2055 83.4573 42.0014 83.4207 41.796 83.417C36.5812 83.3192 31.3733 83.4414 26.1724 83.7837C26.0847 83.4495 26.0734 83.0998 26.1394 82.7607C26.4596 81.0276 26.4852 79.2712 26.5781 77.5186C28.2685 77.5186 29.96 77.4672 31.6467 77.5503C35.2645 77.7276 38.8871 77.7227 42.5061 77.8498C42.9535 77.8657 42.995 77.6432 43.0011 77.29C43.0072 76.9368 43.0011 76.663 42.5061 76.6691C37.1736 76.7363 31.8484 76.2902 26.5146 76.4149C26.0807 75.4579 25.8802 74.4471 26.0868 73.418C26.2725 72.5941 26.3428 71.7484 26.2958 70.9051C27.7172 70.8342 29.1424 70.6533 30.5589 70.7145C34.5922 70.888 38.6072 70.888 42.6271 70.5531C42.9119 70.5299 43.0072 70.448 43.0121 70.1571C43.0207 69.6487 42.9217 69.3859 42.2996 69.4323C39.2147 69.6621 36.1225 69.8369 33.0315 69.6548C30.7092 69.5191 28.3968 69.6328 26.0844 69.8112C25.637 67.6642 25.1889 65.5167 24.7399 63.3689L30.4746 63.4569C31.2079 63.4679 31.9412 63.4716 32.6746 63.4887C35.9685 63.562 39.2624 63.6329 42.5562 63.7221C43.0598 63.7356 42.9742 63.419 42.9987 63.1232C43.0268 62.7932 42.9779 62.5928 42.5599 62.5928C41.7044 62.5928 40.8488 62.5292 40.0006 62.5133C34.8567 62.4172 29.7111 62.3247 24.5639 62.2359C24.3366 61.1872 24.4759 60.0848 24.1092 59.0581C23.7426 58.0315 23.2684 57.0158 23.2732 55.8999C23.2732 55.8412 23.2732 55.7777 23.2732 55.7239C23.2525 54.441 22.9948 53.173 22.513 51.9839C22.258 51.3167 22.1387 50.6053 22.1622 49.8914C22.2075 47.9359 21.7161 46.05 21.1246 44.2301C20.4646 42.1976 20.4658 40.1198 20.2812 38.0481C21.851 37.6364 23.3922 37.1228 24.8951 36.5106C25.3437 36.325 25.8217 36.2211 26.3068 36.2038C30.2619 36.0343 34.2166 35.8571 38.1709 35.6721L43.7626 35.4814C43.7259 36.1023 43.3861 36.6707 43.4961 37.3258C43.7504 38.8364 43.2725 40.4058 43.853 41.8932C43.8738 41.9517 43.8738 42.0156 43.853 42.0741C43.4986 42.9773 44.018 43.7156 44.2869 44.51C44.6255 45.5098 44.9481 46.5242 44.5961 47.5973C44.5429 47.7313 44.5331 47.8786 44.5679 48.0185C44.6028 48.1584 44.6806 48.2838 44.7905 48.3771C45.1229 48.668 45.1571 49.0261 45.1364 49.4282C45.074 50.5074 45.1425 51.5744 45.5152 52.606C45.5802 52.8413 45.6042 53.0861 45.5861 53.3296C45.5861 53.3711 45.5861 53.4139 45.5861 53.4518C45.5861 53.4897 45.5861 53.5349 45.5935 53.574C45.5935 53.6449 45.6045 53.7146 45.6118 53.7842C45.6118 53.8307 45.6228 53.8771 45.6289 53.9236C45.6411 54.0164 45.6546 54.1093 45.6692 54.2022C45.6998 54.3966 45.734 54.5897 45.7646 54.7852C45.7829 54.9074 45.8 55.0297 45.8135 55.1458L45.8245 55.2436C45.8245 55.2778 45.8306 55.312 45.833 55.3474C45.8355 55.3829 45.8404 55.4501 45.8428 55.5014C45.8452 55.5528 45.8428 55.5919 45.8428 55.6371C45.8428 55.664 45.8428 55.6921 45.8428 55.7202C45.8428 55.7483 45.8428 55.7997 45.8428 55.8424C45.8428 55.9207 45.833 55.9989 45.822 56.0771C45.8159 56.1223 45.8098 56.1676 45.8012 56.214C45.778 56.3423 45.8758 56.4878 45.8978 56.6271C45.937 56.7642 45.9445 56.9084 45.9198 57.0488C45.5067 58.238 45.8978 59.371 46.1105 60.5272C46.2449 61.2606 46.5835 61.9939 46.3268 62.7407C45.9051 63.9702 46.2046 65.1851 46.3354 66.3988C46.3708 66.7386 46.504 67.082 46.3354 67.4193C46.1447 67.8056 46.1752 68.2089 46.2192 68.6159C46.35 69.8503 46.4735 71.0836 46.4527 72.3302C46.438 73.2004 46.4527 74.078 46.768 74.9165C46.8262 75.1133 46.8137 75.3243 46.7326 75.5129C46.4087 76.465 46.4955 77.477 46.4722 78.4462C46.4429 79.6685 46.7717 80.8907 46.3867 82.1202C46.3569 82.2802 46.3687 82.4452 46.4209 82.5993C46.6212 83.4112 46.6483 84.2562 46.5004 85.0792C46.4564 85.331 46.4784 85.5852 46.6592 85.7686C47.0259 86.1462 46.955 86.5202 46.8316 86.9908C46.6556 87.6716 46.4099 88.4208 47.0675 89.0392C47.1781 89.1353 47.2471 89.2705 47.2599 89.4165C47.2727 89.5625 47.2282 89.7077 47.1359 89.8215C46.8438 90.2175 46.9196 90.5951 47.0247 91.0314C47.0797 91.26 47.1384 91.4898 47.1934 91.7208C47.208 91.7782 47.2215 91.8357 47.2349 91.8931C47.2484 91.9506 47.2606 92.008 47.2728 92.0667C47.285 92.1253 47.2985 92.1889 47.3095 92.2415L47.3425 92.415C47.3498 92.4541 47.3559 92.4932 47.362 92.5372C47.3681 92.5812 47.3779 92.6375 47.384 92.6863C47.3938 92.7548 47.4024 92.8245 47.4097 92.8929L47.4207 93.0066V93.0115C47.4207 93.0493 47.4268 93.0885 47.428 93.1337C47.4292 93.1789 47.428 93.1997 47.428 93.2314C47.428 93.2632 47.428 93.3207 47.428 93.3659C47.4284 93.5113 47.4202 93.6566 47.4036 93.801C47.3461 94.307 47.4928 94.7201 47.5722 95.1821C47.7189 96.0377 47.8485 96.969 47.7592 97.7989C47.6786 98.6972 47.6639 99.5039 47.9988 100.329Z" fill="#7BA2E6"/>
<path d="M45.3494 35.4448C47.3819 35.3874 49.4132 35.3348 51.4482 35.3519C55.308 35.3849 59.1678 35.3776 63.0202 35.7076C64.7815 35.8579 66.5402 36.0376 68.31 36.0901C68.6535 36.1011 68.9908 36.326 69.333 36.4458C70.9626 37.0162 72.5923 37.5845 74.2219 38.1508C74.4162 38.9538 74.2647 39.7739 74.3515 40.5842C74.4529 41.5192 73.9322 42.4518 74.3282 43.3954C74.332 43.4158 74.3276 43.4368 74.316 43.454C73.8638 44.1874 74.2341 44.9207 74.3588 45.643C74.5507 46.754 74.7035 47.843 74.1302 48.899C74.0611 49.0146 74.0286 49.1483 74.0369 49.2827C74.0452 49.417 74.0939 49.5458 74.1767 49.6519C74.4615 50.0186 74.4309 50.3853 74.338 50.8033C74.1437 51.6943 73.9518 52.5938 74.1009 53.5166C74.1629 53.8962 74.1883 54.281 74.1767 54.6655C74.1486 55.7288 74.1767 56.7946 74.1852 57.8591C74.1852 58.0816 74.283 58.3236 74.2231 58.5228C73.8565 59.723 74.1144 60.8939 74.3246 62.0673C74.4664 62.8654 74.7316 63.7197 74.4004 64.4701C73.9432 65.5041 74.1119 66.5174 74.2781 67.5159C74.4272 68.3837 74.0043 69.1427 74.0532 69.9775C74.129 71.2559 74.228 72.5344 74.1608 73.8214C74.1168 74.6659 74.0789 75.5325 74.3955 76.355C74.4798 76.5726 74.404 76.7914 74.327 77.0077C74.0007 77.9158 74.0826 78.8936 74.041 79.8188C73.986 81.052 74.3784 82.3024 73.9506 83.5429C73.9139 83.6815 73.9139 83.8272 73.9506 83.9658C74.1363 84.7808 74.1363 85.6271 73.9506 86.442C73.8919 86.7011 73.8956 86.9761 74.096 87.1937C74.4248 87.5494 74.3124 87.8965 74.1865 88.3169C73.9799 89.0087 73.6316 89.742 74.2781 90.4289C74.5226 90.6917 74.4382 91.0034 74.217 91.26C73.9652 91.5509 73.9726 91.8577 74.0227 92.2256C74.173 93.3439 74.4932 94.4635 74.0703 95.5977C74.0306 95.7254 74.0209 95.8607 74.0421 95.9928C74.0633 96.1249 74.1148 96.2503 74.1926 96.3591C74.2617 96.4611 74.305 96.5783 74.3188 96.7007C74.3327 96.8232 74.3166 96.9471 74.272 97.0619C73.8479 98.0923 74.1987 99.2521 73.7037 100.279C73.4482 100.808 73.8736 101.392 73.6964 101.952C72.7247 101.452 71.6833 101.277 70.5992 101.21C67.8529 101.041 65.1115 100.797 62.3651 100.641C61.314 100.581 60.2666 100.417 59.2094 100.484C58.927 100.33 58.6154 100.394 58.3159 100.362C57.1499 100.252 55.9277 100.362 54.8314 99.9733C53.1105 99.3719 51.4299 99.3731 49.7054 99.8009C49.5526 99.0236 49.0784 98.2976 49.3692 97.4494C49.4426 97.2355 49.269 97.0228 49.2152 96.8089C49.038 96.1025 48.873 95.4168 49.126 94.6615C49.3069 94.1225 49.4536 93.4515 49.093 92.9504C48.6041 92.2757 48.7264 91.5876 48.8865 90.9117C49.0722 90.0916 49.1688 89.3228 48.642 88.5895C48.5674 88.4909 48.5225 88.3731 48.5125 88.2499C48.5026 88.1268 48.528 88.0033 48.5858 87.894C48.9769 87.0861 48.9696 86.2978 48.5247 85.5144C48.4299 85.3311 48.403 85.1203 48.4489 84.9191C48.6347 83.8668 48.1592 82.8133 48.455 81.7609C48.4611 81.7426 48.4489 81.7206 48.4465 81.701C48.2974 80.689 48.2644 79.6746 48.5406 78.6821C48.7034 78.0884 48.6885 77.4599 48.4978 76.8745C48.2289 76.0458 48.2094 75.2 48.0761 74.3628C48.0329 74.1418 48.0528 73.913 48.1336 73.7028C48.5797 72.6126 48.5931 71.5028 48.3389 70.3588C48.1006 69.2894 47.9148 68.2309 48.2167 67.1114C48.3768 66.51 48.2912 65.8537 48.0578 65.201C47.8244 64.5484 47.4467 63.8309 48.048 63.1233C48.2362 62.9008 48.0749 62.6258 47.9955 62.3691C47.7669 61.626 47.4064 60.9025 47.7779 60.0811C47.8635 59.8941 47.7901 59.6387 47.8097 59.4163C47.8696 58.7245 47.6374 58.0486 47.7339 57.3495C47.8427 56.5526 48.0199 55.741 47.5848 54.9649C47.5286 54.8653 47.499 54.7529 47.499 54.6386C47.499 54.5242 47.5286 54.4118 47.5848 54.3123C47.8879 53.8393 47.7987 53.398 47.5995 52.9214C47.442 52.5469 47.3229 52.1575 47.2438 51.759C47.1472 51.2701 46.8062 50.7397 46.9994 50.2801C47.3929 49.3671 46.8857 48.712 46.5105 48.0203C46.343 47.7086 46.2379 47.4287 46.3455 47.1024C46.4387 46.8757 46.4626 46.6264 46.4139 46.3861C46.0839 45.1639 46.3455 43.8195 45.6134 42.6865C45.5082 42.5227 45.5657 42.2477 45.5706 42.0253C45.5767 41.7564 45.5791 41.4789 45.4484 41.2504C45.2252 40.8819 45.1435 40.445 45.2186 40.0208C45.4704 38.6458 45.309 37.2769 45.2308 35.9056C45.2177 35.8248 45.2214 35.7421 45.2418 35.6628C45.2622 35.5835 45.2988 35.5093 45.3494 35.4448Z" fill="#7BA2E6"/>
<path d="M76.1701 38.8916C77.836 39.5186 79.4701 40.2116 80.9894 41.1576C81.7875 41.6538 82.2568 42.2503 82.1786 43.272C82.1102 44.174 82.2263 45.0907 82.2605 46.0013C82.2165 48.6034 82.203 51.2067 82.1224 53.8088C82.0344 56.6297 81.8963 59.4494 81.7557 62.269C81.653 64.3578 81.5271 66.4442 81.389 68.5305C81.1935 71.5453 80.9898 74.5601 80.7779 77.5749C80.5873 80.2455 80.4406 82.9222 80.1595 85.5842C79.5814 91.0316 79.4677 96.4913 79.5936 101.962C79.6058 102.506 79.486 102.54 78.9947 102.362C77.8849 101.959 76.7177 101.783 75.5382 101.71C75.6067 100.815 75.2009 99.9062 75.6434 99.0213C75.7363 98.8343 75.6348 98.5849 75.6104 98.3625C75.5309 97.6292 75.4527 96.9081 75.801 96.1625C76.0455 95.6431 76.2569 94.9659 75.9233 94.4C75.5089 93.6838 75.7277 93.0055 75.9404 92.3528C76.1958 91.5633 76.2997 90.8299 75.8597 90.0844C75.6874 89.791 75.7729 89.5148 75.9257 89.2288C76.0926 88.9164 76.1873 88.5705 76.2027 88.2166C76.2181 87.8627 76.154 87.5098 76.0149 87.184C75.9208 86.9482 75.8304 86.7159 75.8927 86.48C76.0623 85.9326 76.0359 85.3431 75.8181 84.8129C75.7754 84.676 75.7845 84.528 75.8438 84.3974C76.1103 83.8083 76.0284 83.1947 75.966 82.5934C75.9037 81.9921 75.8621 81.3932 75.999 80.7796C76.1746 80.0885 76.2226 79.3711 76.1408 78.6627C76.0601 78.1029 75.7888 77.5798 75.7925 77.0078C75.7925 76.3967 75.548 75.7856 75.7803 75.1953C76.2203 74.0855 76.2765 72.9647 76.0663 71.7975C75.8793 70.761 75.7803 69.7319 76.0858 68.6662C76.2468 68.0338 76.2243 67.3686 76.021 66.7485C75.8536 66.1899 75.5065 65.5422 75.9404 64.9433C76.2019 64.5839 76.1934 64.2662 76.0565 63.8653C75.8621 63.2933 75.6201 62.6589 75.8194 62.0894C76.0308 61.4783 76.0064 60.8953 76.0186 60.2915C76.0284 59.8454 75.9697 59.3919 76.0284 58.9532C76.1396 58.1282 76.329 57.3142 75.9453 56.5087C75.9013 56.4036 75.8876 56.2882 75.9057 56.1757C75.9239 56.0631 75.9731 55.9579 76.0479 55.8719C76.3376 55.5114 76.263 55.1313 76.2239 54.7169C76.1213 53.6169 75.5517 52.5169 76.2496 51.4059C76.3486 51.2507 76.2655 50.9684 76.2361 50.7484C76.1237 49.9063 75.5163 49.0874 76.131 48.211C76.1701 48.1548 76.1457 48.0509 76.1408 47.9666C76.0736 46.7077 76.318 45.4708 76.0675 44.1716C75.8915 43.2562 75.7265 42.216 75.9171 41.2322C76.0809 40.456 76.2423 39.686 76.1701 38.8916Z" fill="#7BA2E6"/>
<path d="M107.987 55.9644C107.489 57.4042 107.519 58.9344 107.203 60.3998C106.743 62.5244 106.393 64.6715 106.157 66.8324C105.946 68.7525 105.83 70.6934 105.456 72.5768C105.136 74.1951 104.68 75.8121 104.723 77.4462C104.79 80.1974 104.25 82.9682 104.933 85.7059C105.031 86.1435 105.077 86.5911 105.069 87.0394C105.08 89.9128 105.492 92.7631 105.544 95.6328C105.552 96.0753 105.454 96.5202 105.405 96.9651C105.322 97.7946 105.331 98.6309 105.433 99.4584C105.701 101.787 105.853 104.083 104.883 106.353C104.265 107.8 103.925 109.373 103.539 110.909C103.201 112.264 102.406 113.026 101.06 113.373C99.5774 113.756 98.1156 114.151 96.5597 114.018C95.8871 113.967 95.2109 114.038 94.5638 114.229C92.9749 114.682 91.3506 114.548 89.7703 114.351C86.6597 113.958 83.51 113.927 80.4276 113.397C78.6651 113.112 76.8874 112.931 75.1036 112.856C74.5336 112.814 73.9609 112.823 73.3925 112.883C72.5736 112.987 71.7449 112.952 70.9859 112.639C69.9202 112.207 68.8214 112.129 67.6982 112.097C65.6448 112.039 63.5878 112.174 61.5394 111.95C59.9749 111.738 58.4325 111.391 56.8595 111.231C54.2549 110.966 51.6577 111.277 49.0568 111.28C46.2726 111.28 43.5055 111.133 40.7591 110.537C39.0395 110.164 37.2477 110.135 35.5036 109.875C33.9611 109.647 32.3906 109.479 30.93 108.898C29.1969 108.208 27.9845 106.971 27.19 105.254C26.4469 103.648 26.1304 101.937 25.6867 100.253C25.6569 100.159 25.6218 100.067 25.5816 99.9766C25.5523 99.8165 25.5254 99.6576 25.4936 99.4987C25.0793 97.4442 24.6515 95.3945 24.8116 93.2752C24.8332 92.9873 24.8389 92.6984 24.8287 92.4098C24.8287 92.3365 24.8287 92.2644 24.8189 92.1911C24.8124 92.077 24.8039 91.9633 24.7933 91.8501C24.7933 91.7938 24.7823 91.7364 24.7761 91.6789C24.77 91.6215 24.7639 91.5567 24.7554 91.4932C24.7468 91.4296 24.7407 91.3709 24.7321 91.3172C24.7236 91.2634 24.7126 91.1766 24.7016 91.1057C24.6796 90.9591 24.6539 90.8112 24.627 90.6633C24.4673 89.74 24.4332 88.7993 24.5256 87.8668C24.6111 86.8976 24.7077 85.9186 24.4351 84.9555C24.3789 84.588 24.3231 84.2214 24.2677 83.8555C24.3716 81.9843 24.1589 80.0898 24.682 78.2467C24.7456 78.0231 24.6943 77.7652 24.6955 77.5232C24.715 77.1467 24.7627 76.7654 24.5806 76.4085C24.3921 75.5212 24.2886 74.618 24.2714 73.7111C24.2371 72.8029 24.1565 71.8973 24.0966 70.9904C24.0184 70.6237 24.3044 70.2791 24.1956 69.9051C24.2121 69.6637 24.2121 69.4216 24.1956 69.1803C23.9353 67.2247 23.8204 65.2374 22.8964 63.4358C22.8361 63.0684 22.7766 62.7017 22.7179 62.3358C22.6776 61.2358 22.3195 60.1725 22.3513 59.0688C22.3745 58.1656 22.207 57.2942 22.0591 56.4093C22.0213 56.1795 21.976 55.9509 21.9271 55.7236C21.7243 54.7776 21.4383 53.8512 21.1938 52.9125C21.1645 52.8037 21.1364 52.6949 21.1083 52.5862C21.0801 52.4774 21.0496 52.3552 21.0215 52.2391C20.9934 52.1229 20.9653 52.0068 20.9396 51.8907C20.9261 51.8321 20.9127 51.7685 20.9005 51.7159C20.8381 51.4251 20.7783 51.1317 20.7367 50.8372C20.5729 49.7738 20.5766 48.6775 20.1855 47.6594C19.6587 46.2856 19.4399 44.8348 19.072 43.4219C18.8953 42.6888 18.8637 41.9281 18.9791 41.1828C19.0905 40.2894 18.9442 39.3828 18.5575 38.5697C18.2458 37.6438 18.0781 36.6755 18.06 35.6987C18.027 34.5987 17.8963 33.5134 17.4599 32.4818C17.1996 31.8707 17.3316 31.2914 17.7044 30.7512C17.9427 30.4028 18.2043 30.349 18.5 30.6583C19.0256 31.2107 19.4595 31.8133 19.5621 32.6016C19.8017 34.4154 20.0437 36.2304 20.2881 38.0466C20.4727 40.1183 20.4715 42.1961 21.1315 44.2286C21.723 46.0485 22.2144 47.9295 22.1691 49.8899C22.1456 50.6038 22.2649 51.3152 22.5199 51.9824C23.0017 53.1715 23.2594 54.4395 23.2801 55.7224C23.2801 55.7811 23.2801 55.8446 23.2801 55.8984C23.2801 57.0143 23.7495 58.0263 24.1161 59.0566C24.4828 60.0869 24.3435 61.1869 24.5708 62.2344C24.5415 62.6255 24.6674 62.9922 24.7505 63.3662C25.1978 65.5132 25.646 67.6606 26.0949 69.8085C26.1658 70.1752 26.2355 70.5418 26.3064 70.9085C26.3534 71.7518 26.2831 72.5975 26.0974 73.4214C25.8908 74.4505 26.0974 75.4613 26.5251 76.4183C26.5459 76.7849 26.5679 77.1516 26.5887 77.5183C26.4958 79.2709 26.4665 81.0273 26.1499 82.7604C26.084 83.0995 26.0952 83.4492 26.1829 83.7834C26.1414 84.1953 26.3051 84.5607 26.4371 84.9335C26.5666 85.6124 26.5983 86.3063 26.5313 86.9942C26.3884 88.8008 26.4088 90.6167 26.5924 92.4196C26.6608 93.1212 26.7525 93.8215 26.8625 94.5206C26.9297 95.0041 26.9432 95.4935 26.9028 95.9799C26.8111 97.3989 27.0861 98.7617 27.4785 100.11C27.8525 102.636 29.0539 104.736 30.7968 106.556C31.0254 106.789 31.3013 106.972 31.6059 107.09C33.2266 107.748 34.9487 108.08 36.5926 108.664C37.0301 108.821 37.5129 108.817 37.9823 108.818C38.4907 108.818 39.0016 108.808 39.5088 108.839C43.063 109.054 46.6173 109.284 50.1813 109.294C53.7453 109.303 57.3019 109.157 60.8048 109.977L60.8183 110.005L60.8317 109.978L60.9979 109.967C63.1087 110.104 65.2183 110.29 67.3315 110.362C68.8092 110.412 70.2257 110.729 71.6606 111.016C74.0427 111.494 76.4688 111.538 78.8876 111.602C81.7158 111.679 84.5563 111.659 87.3466 112.132C89.0944 112.427 90.8153 112.46 92.5679 112.376C93.7193 112.322 94.9012 112.707 96.0256 112.328C97.4955 111.853 99.0185 111.56 100.56 111.457C101.103 111.413 101.479 111.15 101.639 110.556C102.408 107.695 103.479 104.912 103.839 101.946C103.936 101.259 103.9 100.561 103.733 99.8886C103.507 98.9984 103.476 98.0698 103.644 97.1667C103.955 95.3016 103.798 93.4279 103.598 91.569C103.354 89.2259 102.987 86.8939 102.711 84.5522C102.62 83.8643 102.642 83.1662 102.776 82.4854C103.005 81.3243 103.027 80.1318 102.842 78.9629C102.738 78.3565 102.775 77.7342 102.949 77.1443C103.458 75.6128 103.438 74.0191 103.641 72.451C104.015 69.5934 104.299 66.7297 104.947 63.8954C105.435 61.7712 105.493 59.5467 105.725 57.3651C105.833 56.3506 105.89 55.3362 106.671 54.5393C107.211 53.9881 107.441 54.0039 107.759 54.7226C107.935 55.1223 108.135 55.5378 107.987 55.9644Z" fill="#24282E"/>
<path d="M70.1864 19.5444C69.9199 20.8668 70.3086 22.1746 70.2732 23.4922C70.2732 23.6144 70.2732 23.7366 70.4687 23.6889C71.6775 23.3773 72.8166 23.8112 73.93 24.1277C75.14 24.4724 76.3745 24.4724 77.5967 24.6973C78.077 24.7865 78.5549 24.8562 79.0072 25.0639C79.2614 25.1862 79.5486 25.3194 79.815 25.3084C80.8332 25.2595 81.7853 25.5076 82.7325 25.8303C83.3998 26.0576 84.0928 25.6616 84.7809 25.9146C85.4972 26.1786 86.2953 26.1933 86.9333 26.7078C87.2229 26.9413 87.6189 26.9645 87.9893 26.8973C89.2188 26.6748 90.3262 27.0293 91.4641 27.4705C92.4418 27.8494 93.4453 28.2405 94.5893 27.9594C95.4509 27.7504 96.3578 28.0816 97.129 28.4202C98.1728 28.8797 99.2239 28.8907 100.291 28.8638C100.945 28.8467 101.582 28.8125 102.226 28.9689C103.276 29.2232 104.264 28.7062 105.298 28.6756C105.787 28.6609 106.257 28.5803 106.717 28.8345C107.151 29.0789 107.603 29.0019 107.988 28.7257C108.469 28.381 109.005 28.227 109.577 28.1354C110.02 28.0633 110.404 27.8909 110.599 27.4619C110.721 27.1943 110.881 27.0036 111.198 27.0635C111.515 27.1234 111.897 27.1442 112.087 27.5084C112.352 28.018 112.156 28.8076 111.667 29.1413C110.267 30.1094 108.564 30.5395 106.871 30.3525C106.345 30.3126 105.816 30.363 105.307 30.5016C104.178 30.7815 103.029 30.9037 101.899 30.4503C101.458 30.2818 100.975 30.257 100.519 30.3794C99.9848 30.5237 99.4164 30.4757 98.9135 30.2437C98.4002 29.9812 97.8046 29.9294 97.2537 30.0995C96.8794 30.216 96.4764 30.2005 96.1122 30.0555C94.4829 29.4309 92.7572 29.4835 91.0656 29.3099C90.4545 29.2464 89.8642 29.2097 89.3655 28.7697C89.2145 28.6277 89.027 28.5303 88.824 28.4885C88.6209 28.4466 88.4103 28.4619 88.2154 28.5326C87.0359 28.997 86.0227 28.4104 85.0107 28.0156C84.3996 27.7785 83.874 27.5157 83.2128 27.7504C82.8608 27.8726 82.4856 27.8103 82.136 27.6795C80.873 27.2203 79.5459 26.9617 78.2029 26.9132C78.0197 26.9126 77.838 26.8795 77.6664 26.8154C75.9137 26.0527 74.0449 26.027 72.1835 25.8804C70.9772 25.785 69.7989 25.3842 68.5645 25.5039C68.32 25.5272 68.32 25.3438 68.342 25.1727C68.4264 24.487 68.4643 23.7904 68.7209 23.1402C68.875 22.783 68.9176 22.3877 68.8432 22.0059C68.6684 21.1932 68.4765 20.3853 68.2834 19.5762C68.1452 18.983 67.9195 18.4137 67.6136 17.887C67.0514 16.8408 66.2203 16.1185 64.9932 16.2688C63.8369 16.4094 62.8176 16.8873 62.4705 18.1938C62.3183 18.7192 62.2285 19.2607 62.2028 19.8072C62.1283 21.2127 61.6504 22.5914 61.9107 24.0165C61.9755 24.3685 61.8704 24.4418 61.5245 24.4846C59.9943 24.6777 58.4689 24.9454 56.9424 25.125C55.9182 25.2473 54.8768 25.158 53.8502 25.1752C52.2698 25.202 50.6724 24.9662 49.1006 25.2827C48.8454 25.3508 48.58 25.3723 48.3172 25.3463C46.9556 25.1018 45.6014 25.3267 44.2472 25.3927C43.3623 25.4367 42.5214 25.1654 41.6512 25.1006C40.9594 25.0493 40.3067 24.9295 39.6296 25.2644C39.0307 25.5626 38.4477 25.2069 37.8684 25.0554C36.5534 24.7896 35.2029 24.7482 33.8742 24.9332C33.1494 25.037 32.416 25.0395 31.6974 25.1862C31.4973 25.2379 31.2877 25.2409 31.0863 25.1947C30.1364 24.8839 29.1134 24.8762 28.159 25.1727C28.06 25.2011 27.9545 25.1981 27.8572 25.1642C26.1314 24.5054 24.3531 25.0419 22.6016 24.9307C21.9905 24.8916 21.3879 24.9307 20.7891 24.762C20.5166 24.6742 20.226 24.6586 19.9457 24.7168C18.9679 24.9784 17.9596 24.839 16.9782 25.0248C16.5149 25.1104 16.0371 25.147 15.6789 24.7303C15.4223 24.4272 15.0312 24.1412 15.3123 23.6804C15.5812 23.2428 15.9002 22.8248 16.5345 23.0998C16.6896 23.1528 16.854 23.1728 17.0173 23.1585C19.2882 23.0974 21.5639 23.2624 23.8336 23.0436C24.524 22.9942 25.2178 23.0545 25.8894 23.222C26.8598 23.4335 27.8547 23.4139 28.8582 23.2942C30.194 23.1365 31.5471 23.2269 32.8976 23.0852C34.0355 22.9629 35.2467 23.1218 36.4237 23.2C37.1571 23.2489 37.8843 23.2294 38.5748 23.5398C38.6968 23.5958 38.8289 23.6261 38.9631 23.6289C39.0972 23.6316 39.2305 23.6067 39.3546 23.5557C40.061 23.233 40.8274 23.288 41.5632 23.1524C42.0249 23.0685 42.5013 23.1247 42.9308 23.3137C43.8292 23.6926 44.7788 23.4604 45.7028 23.4042C46.452 23.3589 47.1939 23.211 47.9407 23.1292C48.3868 23.079 48.8244 23.0913 49.2461 23.3186C49.4052 23.4134 49.5831 23.4724 49.7674 23.4914C49.9517 23.5104 50.1379 23.489 50.313 23.4286C51.3018 23.0326 52.3285 23.1304 53.3295 23.2257C54.5517 23.3479 55.7678 23.2257 56.9839 23.1768C57.5951 23.1524 58.1952 23.1365 58.7977 23.3113C59.0947 23.382 59.4039 23.3849 59.7022 23.3198C59.9723 23.2685 60.5076 23.2966 60.0566 22.7356C59.9405 22.5914 60.0126 22.3323 60.1177 22.1502C60.4612 21.5513 60.4 20.9035 60.3939 20.2508C60.3793 18.8025 60.4135 17.3786 61.4292 16.1649C62.6758 14.6738 65.1753 13.9955 66.9695 14.7496C69.1108 15.6443 69.9114 17.414 70.1864 19.5444Z" fill="#24282E"/>
<path d="M76.1705 38.8909C76.2426 39.6853 76.0813 40.4504 75.9261 41.2265C75.7354 42.2043 75.9004 43.2505 76.0764 44.166C76.3208 45.4652 76.0764 46.7021 76.1497 47.961C76.1497 48.0417 76.1791 48.1455 76.14 48.2054C75.5288 49.0818 76.1326 49.9007 76.2451 50.7428C76.2744 50.9628 76.3575 51.2451 76.2585 51.4003C75.5606 52.5076 76.1302 53.6125 76.2328 54.7113C76.272 55.1257 76.3465 55.5058 76.0568 55.8663C75.9821 55.9523 75.9328 56.0575 75.9147 56.1701C75.8965 56.2826 75.9102 56.3979 75.9542 56.5031C76.338 57.3122 76.1485 58.1262 76.0373 58.9475C75.9786 59.3863 76.0373 59.8398 76.0275 60.2859C76.0153 60.8897 76.0397 61.4763 75.8283 62.0838C75.6291 62.6533 75.8711 63.2877 76.0654 63.8597C76.2023 64.2605 76.2108 64.5783 75.9493 64.9377C75.5154 65.5365 75.8625 66.1843 76.03 66.7429C76.2332 67.363 76.2557 68.0281 76.0947 68.6605C75.7892 69.7263 75.8882 70.7554 76.0752 71.7919C76.2854 72.9591 76.2292 74.0799 75.7892 75.1897C75.5545 75.7812 75.8063 76.396 75.8014 77.0022C75.8014 77.5742 76.0691 78.1022 76.1497 78.6571C76.2315 79.3655 76.1835 80.0828 76.008 80.774C75.8711 81.3851 75.9114 81.9779 75.975 82.5878C76.0385 83.1977 76.1192 83.8027 75.8527 84.3918C75.7934 84.5224 75.7843 84.6704 75.8271 84.8073C76.0449 85.3375 76.0712 85.9269 75.9016 86.4744C75.8356 86.7103 75.9261 86.9425 76.0238 87.1784C76.1629 87.5042 76.2271 87.8571 76.2116 88.211C76.1962 88.5649 76.1015 88.9108 75.9346 89.2232C75.7818 89.5153 75.6963 89.7915 75.8686 90.0788C76.3086 90.8243 76.2047 91.5577 75.9493 92.3472C75.7366 92.9999 75.5178 93.6782 75.9322 94.3944C76.2597 94.9603 76.0471 95.6374 75.81 96.1569C75.4616 96.8988 75.5398 97.6138 75.6193 98.3569C75.6437 98.5793 75.7415 98.8287 75.6523 99.0157C75.2098 99.9054 75.6156 100.815 75.5472 101.705C75.1622 102.462 74.7222 103.164 74.9703 104.128C75.0693 104.513 74.6391 105.027 75.0008 105.493C75.0158 105.514 75.0258 105.537 75.0298 105.562C75.0339 105.587 75.032 105.612 75.0242 105.636C75.0164 105.66 75.003 105.682 74.9851 105.7C74.9673 105.717 74.9454 105.73 74.9214 105.738C74.4961 105.88 74.1159 106.243 73.6087 106.003C73.1015 105.764 72.9622 105.414 72.9536 104.842C72.9365 103.785 73.3802 102.886 73.7077 101.937C73.8849 101.377 73.4633 100.793 73.7151 100.264C74.2039 99.2369 73.8593 98.077 74.2834 97.0467C74.328 96.9318 74.344 96.8079 74.3302 96.6855C74.3164 96.5631 74.273 96.4459 74.2039 96.3439C74.1262 96.235 74.0747 96.1096 74.0535 95.9775C74.0322 95.8454 74.0419 95.7102 74.0817 95.5824C74.5046 94.4482 74.1844 93.3287 74.0341 92.2103C73.9839 91.8437 73.9766 91.5357 74.2284 91.2448C74.4496 90.9881 74.5364 90.6764 74.2895 90.4137C73.6429 89.7268 73.9913 88.9934 74.1978 88.3017C74.3201 87.8812 74.4423 87.5341 74.1074 87.1784C73.9069 86.9609 73.9033 86.6895 73.9619 86.4268C74.1477 85.6118 74.1477 84.7655 73.9619 83.9505C73.9253 83.812 73.9253 83.6662 73.9619 83.5277C74.3897 82.2871 73.9974 81.0368 74.0524 79.8035C74.0927 78.882 74.012 77.9042 74.3384 76.9924C74.4154 76.7761 74.4912 76.5573 74.4068 76.3398C74.0903 75.516 74.1282 74.6507 74.1722 73.8061C74.2394 72.5191 74.1404 71.2394 74.0646 69.9622C74.0157 69.1274 74.4386 68.3733 74.2895 67.5007C74.1184 66.5021 73.9497 65.4889 74.4117 64.4549C74.7429 63.7044 74.4777 62.8501 74.3359 62.052C74.1257 60.8725 73.8703 59.7017 74.2345 58.5075C74.2944 58.3083 74.1991 58.0663 74.1966 57.8439C74.1856 56.7793 74.1599 55.7135 74.1881 54.6502C74.1997 54.2657 74.1743 53.881 74.1123 53.5013C73.9632 52.5785 74.1551 51.679 74.3494 50.788C74.4423 50.3663 74.4716 49.9972 74.1881 49.6367C74.1053 49.5305 74.0565 49.4018 74.0482 49.2674C74.04 49.133 74.0725 48.9993 74.1416 48.8838C74.7148 47.8302 74.5621 46.7388 74.3702 45.6278C74.2479 44.9079 73.8813 44.177 74.3274 43.4388C74.339 43.4216 74.3433 43.4005 74.3396 43.3801C73.9436 42.4402 74.4618 41.5076 74.3628 40.569C74.2761 39.7586 74.4276 38.9385 74.2333 38.1355C74.7136 37.0918 74.2797 36.0578 74.1416 35.0421C74.0609 34.4542 74.2406 34.1865 74.7234 33.9494C75.2551 33.6952 75.6621 33.8993 76.0568 34.2208C76.1106 34.2635 76.1644 34.3797 76.1424 34.4298C75.8148 35.19 76.1888 35.9832 75.9908 36.7764C75.8112 37.4572 76.0312 38.1942 76.1705 38.8909Z" fill="#24282E"/>
<path d="M49.7117 99.8031C49.7789 100.27 49.8278 100.712 49.4428 101.112C49.2374 101.326 49.301 101.652 49.4782 101.909C49.5803 102.062 49.6464 102.237 49.6715 102.419C49.6967 102.602 49.6804 102.787 49.6237 102.963C49.5173 103.359 49.5137 103.722 49.7862 104.063C49.9695 104.287 49.8327 104.429 49.6432 104.551C49.4598 104.681 49.2428 104.756 49.0182 104.766C48.7936 104.775 48.571 104.72 48.377 104.606C47.9712 104.393 47.783 104.146 47.739 103.629C47.6583 102.674 47.8221 101.778 48.0262 100.869C48.0641 100.7 48.0128 100.51 48.0018 100.33C47.6657 99.5061 47.6815 98.6982 47.7781 97.7962C47.8673 96.9664 47.7378 96.035 47.5911 95.1795C47.5117 94.7175 47.365 94.3056 47.4224 93.7996C47.53 92.8621 47.2538 91.943 47.0362 91.0361C46.9311 90.5998 46.8553 90.2234 47.1474 89.8274C47.2397 89.7136 47.2842 89.5684 47.2714 89.4224C47.2587 89.2764 47.1897 89.1412 47.079 89.0451C46.4214 88.4255 46.6671 87.6775 46.8431 86.9955C46.9653 86.52 47.0423 86.146 46.6708 85.7733C46.4899 85.5887 46.4679 85.3345 46.5119 85.0839C46.6599 84.2609 46.6328 83.4159 46.4324 82.604C46.3803 82.4494 46.3685 82.2841 46.3982 82.1237C46.7832 80.9015 46.4544 79.6719 46.4838 78.457C46.507 77.4866 46.4202 76.4758 46.7441 75.5237C46.8253 75.3351 46.8379 75.1241 46.7795 74.9272C46.463 74.0888 46.4495 73.2161 46.4642 72.341C46.485 71.0944 46.3615 69.8611 46.2295 68.6267C46.1868 68.2209 46.1562 67.8176 46.3518 67.4314C46.5168 67.094 46.3835 66.7506 46.3518 66.4096C46.2295 65.1874 45.9216 63.9823 46.3432 62.7527C46.5999 62.0023 46.2613 61.2701 46.1269 60.5393C45.9142 59.3855 45.5231 58.2488 45.9362 57.0596C45.9609 56.9196 45.9534 56.7758 45.9142 56.6391C45.8922 56.4986 45.792 56.3531 45.8177 56.226C45.9949 55.2421 45.6087 54.3047 45.6001 53.3379C45.6182 53.0945 45.5942 52.8497 45.5292 52.6144C45.1564 51.5865 45.088 50.5195 45.1503 49.4366C45.1735 49.0345 45.1369 48.6776 44.8044 48.3867C44.6946 48.2931 44.6169 48.1674 44.582 48.0274C44.5472 47.8873 44.557 47.7399 44.6101 47.6057C44.9621 46.5326 44.6394 45.5182 44.3009 44.5196C44.032 43.7239 43.5125 42.9869 43.867 42.0825C43.8878 42.0244 43.8878 41.9609 43.867 41.9028C43.2864 40.4142 43.7643 38.8473 43.5101 37.3354C43.4001 36.6803 43.7399 36.1132 43.7766 35.4898C43.702 34.7369 43.8597 33.9963 43.8988 33.2495C43.9354 32.6017 44.4023 32.5382 44.89 32.5162C45.2799 32.4978 45.9167 32.9586 45.9631 33.2739C45.9631 33.313 45.979 33.3693 45.9631 33.3962C45.4437 33.9926 45.7101 34.8152 45.3667 35.4617C45.3166 35.5264 45.2804 35.6007 45.2604 35.68C45.2404 35.7593 45.2371 35.8418 45.2506 35.9225C45.3288 37.2938 45.495 38.6627 45.2383 40.0377C45.1628 40.4643 45.2458 40.9037 45.4718 41.2734C45.6062 41.5019 45.6038 41.7794 45.594 42.0483C45.594 42.2707 45.5317 42.5457 45.6368 42.7095C46.3701 43.8474 46.1073 45.1906 46.4373 46.4091C46.486 46.6494 46.4622 46.8987 46.3689 47.1254C46.2613 47.4517 46.3689 47.7365 46.5339 48.0433C46.9067 48.735 47.4139 49.3877 47.0228 50.3032C46.8248 50.7627 47.1658 51.287 47.2672 51.782C47.3422 52.1724 47.4556 52.5544 47.6058 52.9224C47.805 53.399 47.8942 53.8403 47.5911 54.3133C47.5349 54.4128 47.5053 54.5252 47.5053 54.6396C47.5053 54.7539 47.5349 54.8664 47.5911 54.9659C48.0262 55.742 47.849 56.5548 47.7402 57.3505C47.6437 58.0496 47.8759 58.7255 47.816 59.4173C47.7964 59.6397 47.8698 59.8951 47.7842 60.0821C47.4175 60.8974 47.7732 61.627 48.0018 62.3701C48.0812 62.6268 48.2462 62.9018 48.0543 63.1243C47.4579 63.827 47.8355 64.5567 48.0641 65.202C48.2927 65.8474 48.3831 66.511 48.223 67.1124C47.926 68.2319 48.1118 69.2904 48.3452 70.3598C48.5994 71.5001 48.5897 72.6136 48.1399 73.7038C48.0591 73.9141 48.0392 74.1428 48.0824 74.3638C48.2157 75.201 48.2352 76.0468 48.5041 76.8755C48.6948 77.4609 48.7097 78.0894 48.5469 78.6831C48.2707 79.6756 48.3024 80.69 48.4528 81.702C48.4528 81.7216 48.4674 81.7436 48.4613 81.7619C48.1655 82.8143 48.641 83.8678 48.4552 84.9201C48.4093 85.1213 48.4362 85.3321 48.531 85.5154C48.9759 86.2988 48.9832 87.0871 48.5921 87.895C48.5343 88.0043 48.5089 88.1277 48.5188 88.2509C48.5288 88.3741 48.5737 88.4919 48.6483 88.5905C49.1751 89.3238 49.0785 90.0914 48.8928 90.9127C48.7388 91.5886 48.6165 92.2767 49.0993 92.9514C49.4599 93.4549 49.3132 94.1259 49.1323 94.6625C48.8793 95.4178 49.0443 96.1035 49.2215 96.8099C49.2753 97.0238 49.4489 97.2365 49.3756 97.4504C49.0847 98.2998 49.5589 99.0258 49.7117 99.8031Z" fill="#24282E"/>
<path d="M60.8008 109.977L60.8154 109.945L60.8277 109.978L60.8142 110.005L60.8008 109.977Z" fill="#12A090"/>
<path d="M24.434 84.9639C23.7446 84.9358 23.048 84.9529 22.3647 84.8649C21.9052 84.8063 21.7108 84.9285 21.5898 85.2499C21.6876 84.8405 21.8257 83.7979 21.8856 83.3359C21.8514 83.661 21.9822 83.76 22.3158 83.7637C22.9661 83.7723 23.6163 83.826 24.2714 83.8603C24.3235 84.2286 24.3777 84.5965 24.434 84.9639Z" fill="white"/>
<path d="M43.0159 84.1454C43.0159 84.6954 42.6639 84.5829 42.3559 84.5829C39.5887 84.5829 36.8216 84.5255 34.0533 84.5719C31.5086 84.6147 28.9701 84.7467 26.4328 84.9325C26.2983 84.5658 26.137 84.1991 26.1785 83.7824C31.3803 83.4377 36.5882 83.3155 41.8022 83.4157C42.0051 83.4157 42.2092 83.456 42.4133 83.4401C42.9499 83.3986 43.0232 83.6797 43.0159 84.1454Z" fill="white"/>
<path d="M43.0053 63.1215C42.9808 63.4172 43.0664 63.7326 42.5628 63.7203C39.269 63.6311 35.9751 63.5602 32.6812 63.4869C31.9478 63.4698 31.2145 63.4661 30.4812 63.4551L24.7465 63.3671C24.6634 62.9931 24.5375 62.6265 24.5668 62.2354C29.7124 62.3274 34.8584 62.4195 40.0047 62.5116C40.8603 62.5275 41.7158 62.5922 42.5641 62.591C42.9845 62.591 43.0334 62.7915 43.0053 63.1215Z" fill="white"/>
<path d="M22.8985 63.4336C21.7814 63.4825 20.6642 63.5301 19.5471 63.5827C19.3222 63.5925 19.0424 63.535 19.0961 63.9029C19.0301 63.546 18.8321 62.4778 18.7539 62.0586C18.826 62.3751 18.9751 62.5145 19.365 62.4864C20.4797 62.4069 21.5992 62.3788 22.7176 62.3312C22.7779 62.7003 22.8382 63.0677 22.8985 63.4336Z" fill="white"/>
<path d="M43.0225 70.1558C43.0225 70.4467 42.9223 70.5225 42.6375 70.5518C38.6127 70.8891 34.5892 70.8892 30.5644 70.7132C29.1478 70.652 27.7227 70.8354 26.3013 70.9038C26.2304 70.5372 26.1607 70.1705 26.0898 69.8038C28.4023 69.6254 30.7123 69.5117 33.037 69.6474C36.128 69.8295 39.2202 69.6547 42.3051 69.4249C42.9272 69.3846 43.0225 69.6474 43.0225 70.1558Z" fill="white"/>
<path d="M24.0974 70.9949C23.127 70.9314 22.1565 70.8727 21.1861 70.8055C20.575 70.7639 20.4527 70.7542 20.5163 71.1208L20.168 69.373C20.2169 69.5845 20.3183 69.6652 20.5517 69.6786C21.774 69.7458 22.9852 69.8302 24.2013 69.9096C24.3052 70.2836 24.0192 70.6234 24.0974 70.9949Z" fill="white"/>
<path d="M43.0061 77.2884C43.0061 77.6416 42.9584 77.8641 42.5111 77.8482C38.8921 77.726 35.2694 77.726 31.6516 77.5487C29.965 77.4656 28.2734 77.5231 26.5831 77.517C26.5623 77.1503 26.5403 76.7836 26.5195 76.4169C31.8533 76.2947 37.1785 76.7384 42.5111 76.6712C43.0085 76.6614 43.0073 76.9303 43.0061 77.2884Z" fill="white"/>
<path d="M24.6964 77.5278C23.9028 77.5278 23.1092 77.5278 22.3155 77.5278C22.1102 77.5278 21.8853 77.4984 21.9305 77.8309C21.9379 77.8883 21.9464 77.9458 21.9525 78.0032L21.6445 76.0146V76.0293C21.7105 76.33 21.8462 76.4278 22.1334 76.4217C22.9462 76.407 23.759 76.4143 24.5779 76.4131C24.7636 76.77 24.716 77.1513 24.6964 77.5278Z" fill="white"/>
</svg>
